File name: 4d 54 68 64 00 00 00 06 00 01 00 05 00 78 4d 54   MThd.........xMT
72 6b 00 00 00 ffffffdd 00 ffffffff 02 2e 28 63 29 20 31 39   rk........(c) 19
39 34 20 62 79 20 3c 49 52 43 3a 23 64 6f 6f 6d   94 by <IRC:#doom
3a 6a 75 73 74 5f 6a 6f 65 3e 20 50 72 6f 64 75   :just_joe> Produ
63 74 69 6f 6e 73 2e 00 00 ffffffff 01 2b 4d 55 53 32   ctions.....+MUS2
4d 49 44 49 20 76 30 2e 38 32 20 2d 20 6a 6f 61   MIDI v0.82 - joa
6b 69 6d 2e 65 72 64 66 65 6c 74 40 73 77 73 62   kim.erdfelt@swsb
62 73 2e 63 6f 6d 00 00 ffffffff 01 2a 70 72 65 6c 69   bs.com....*preli
6d 20 44 45 55 20 4d 75 73 69 63 2f 53 6f 75 6e   m DEU Music/Soun
64 20 70 72 6f 6a 65 63 74 20 66 6f 72 20 27 44   d project for 'D
4f 4f 4d 27 00 00 ffffffff 01 24 44 45 55 20 28 63 29   OOM'....$DEU (c)
20 31 39 39 33 2c 31 39 39 34 20 62 79 20 52 61    1993,1994 by Ra
70 68 61 ffffff89 6c 20 51 75 69 6e 65 74 00 00 ffffffff 01   pha.l Quinet....
22 44 4f 4f 4d 20 28 63 29 20 31 39 39 33 2c 31   "DOOM (c) 1993,1
39 39 34 20 62 79 20 69 64 20 73 6f 66 74 77 61   994 by id softwa
72 65 00 4d 54 72 6b 00 00 1d 08 00 ffffffc0 1e 00 ffffffb0   re.MTrk.........
07 64 00 ffffffb0 0a 18 00 ffffffb0 07 64 00 ffffffb0 0a 18 ffffff8f 73   .d.......d.....s
ffffff90 28 6c 0a ffffff80 28 6c 15 ffffff90 28 72 20 ffffff90 34 72 05   .(l..(l..(r .4r.
ffffff80 28 72 1b ffffff80 34 72 01 ffffff90 28 6e 0a ffffff80 28 6e 16   .(r..4r..(n..(n.
ffffff90 28 6e 20 ffffff90 32 6f 03 ffffff80 28 6f 19 ffffff80 32 6f 03   .(n .2o..(o..2o.
ffffff90 28 68 0a ffffff80 28 68 16 ffffff90 28 6f 20 ffffff90 30 74 00   .(h..(h..(o .0t.
ffffff80 28 74 1e ffffff80 30 74 01 ffffff90 28 6c 0a ffffff80 28 6c 16   .(t..0t..(l..(l.
ffffff90 28 6e 20 ffffff90 2e 6e 03 ffffff80 28 6e 1c ffffff80 2e 6e 00   .(n ..n..(n...n.
ffffff90 28 6e 0e ffffff80 28 6e 12 ffffff90 28 6f 21 ffffff90 2f 6e 1e   .(n..(n..(o!./n.
ffffff80 2f 6e 02 ffffff90 30 75 16 ffffff80 28 75 06 ffffff80 30 75 04   ./n..0u..(u..0u.
ffffff90 28 6f 06 ffffff80 28 6f 19 ffffff90 28 6f 20 ffffff90 34 72 07   .(o..(o..(o .4r.
ffffff80 28 72 15 ffffff80 34 72 04 ffffff90 28 6a 0a ffffff80 28 6a 15   .(r..4r..(j..(j.
ffffff90 28 6c 20 ffffff90 32 6a 05 ffffff80 28 6a 1b ffffff80 32 6a 00   .(l .2j..(j..2j.
ffffff90 28 72 0a ffffff80 28 72 15 ffffff90 28 6a 20 ffffff90 30 75 02   .(r..(r..(j .0u.
ffffff80 28 75 19 ffffff80 30 75 06 ffffff90 28 6f 0c ffffff80 28 6f 14   .(u..0u..(o..(o.
ffffff90 28 72 20 ffffff90 2e 72 0d ffffffe0 00 3e 03 ffffffe0 00 41 02   .(r ..r...>...A.
ffffffe0 00 44 02 ffffffe0 00 47 01 ffffffe0 00 4b 02 ffffffe0 00 4d 02   ..D...G...K...M.
ffffffe0 00 4c 01 ffffffe0 00 46 02 ffffffe0 00 40 11 ffffffe0 00 43 03   ..L...F...@...C.
ffffffe0 00 44 02 ffffffe0 00 4b 01 ffffffe0 00 49 02 ffffffe0 00 4a 03   ..D...K...I...J.
ffffffe0 00 50 02 ffffffe0 00 4f 02 ffffffe0 00 4c 01 ffffffe0 00 47 02   ..P...O...L...G.
ffffffe0 00 40 12 ffffffe0 00 41 02 ffffffe0 00 46 02 ffffffe0 00 49 01   ..@...A...F...I.
ffffffe0 00 48 02 ffffffe0 00 4a 02 ffffffe0 00 4c 01 ffffffe0 00 50 02   ..H...J...L...P.
ffffffe0 00 4c 02 ffffffe0 00 46 01 ffffffe0 00 41 16 ffffffe0 00 46 02   ..L...F...A...F.
ffffffe0 00 49 01 ffffffe0 00 4b 02 ffffffe0 00 4f 02 ffffffe0 00 4e 01   ..I...K...O...N.
ffffffe0 00 4d 05 ffffffe0 00 44 02 ffffffe0 00 40 12 ffffffe0 00 44 02   ..M...D...@...D.
ffffffe0 00 45 02 ffffffe0 00 48 00 ffffff80 28 72 00 ffffffe0 00 49 01   ..E...H..(r...I.
ffffffe0 00 4a 02 ffffffe0 00 4c 00 ffffffe0 00 4b 00 ffffff90 28 6c 00   ..J...L...K..(l.
ffffffe0 00 40 05 ffffff80 2e 6c 07 ffffff80 28 6c 14 ffffff90 28 6b 1f   ..@...l..(l..(k.
ffffff90 34 71 0f ffffff80 28 71 11 ffffff80 34 71 00 ffffff90 28 69 0c   .4q..(q..4q..(i.
ffffff80 28 69 15 ffffff90 28 6f 20 ffffff90 32 6e 05 ffffff80 28 6e 1b   .(i..(o .2n..(n.
ffffff90 28 6f 00 ffffff80 32 6f 0d ffffff80 28 6f 12 ffffff90 28 72 20   .(o..2o..(o..(r 
ffffff90 30 76 02 ffffff80 28 76 1c ffffff80 30 76 02 ffffff90 28 6a 0a   .0v..(v..0v..(j.
ffffff80 28 6a 15 ffffff90 28 6c 20 ffffff90 2e 73 02 ffffff80 28 73 1e   .(j..(l ..s..(s.
ffffff90 28 6f 05 ffffff80 2e 6f 05 ffffff80 28 6f 15 ffffff90 28 6f 20   .(o...o..(o..(o 
ffffff90 2f 6e 20 ffffff80 2f 6e 01 ffffff90 30 6f 11 ffffff80 28 6f 0d   ./n ./n..0o..(o.
ffffff80 30 6f 02 ffffff90 28 6e 0a ffffff80 28 6e 16 ffffff90 28 6c 1f   .0o..(n..(n..(l.
ffffff90 34 75 18 ffffff80 28 75 08 ffffff90 28 6f 03 ffffff80 34 6f 09   .4u..(u..(o..4o.
ffffff80 28 6f 14 ffffff90 28 6c 1f ffffff90 32 6e 09 ffffff80 28 6e 17   .(o..(l..2n..(n.
ffffff80 32 6e 00 ffffff90 28 72 0a ffffff80 28 72 16 ffffff90 28 73 14   .2n..(r..(r..(s.
ffffff80 28 73 0b ffffff90 3f 70 11 ffffff80 3f 70 00 ffffff90 3c 69 0f   .(s..?p..?p..<i.
ffffff80 3c 69 00 ffffff90 3b 70 11 ffffff80 3b 70 00 ffffff90 3f 67 10   .<i..;p..;p..?g.
ffffff80 3f 67 00 ffffff90 42 6f 0f ffffff80 42 6f 00 ffffff90 40 66 11   .?g..Bo..Bo..@f.
ffffff80 40 66 00 ffffff90 3f 71 0f ffffff80 3f 71 00 ffffff90 3b 67 11   .@f..?q..?q..;g.
ffffff80 3b 67 00 ffffff90 3f 6f 0f ffffff80 3f 6f 00 ffffff90 40 65 10   .;g..?o..?o..@e.
ffffff80 40 65 00 ffffff90 42 70 0f ffffff80 42 70 00 ffffff90 43 67 11   .@e..Bp..Bp..Cg.
ffffff80 43 67 00 ffffff90 42 6e 0f ffffff80 42 6e 00 ffffff90 40 64 11   .Cg..Bn..Bn..@d.
ffffff80 40 64 00 ffffff90 3f 71 10 ffffff80 3f 71 00 ffffff90 3b 67 0f   .@d..?q..?q..;g.
ffffff80 3b 67 00 ffffff90 28 6c 0a ffffff80 28 6c 16 ffffff90 28 72 20   .;g..(l..(l..(r 
ffffff90 34 72 05 ffffff80 28 72 1a ffffff80 34 72 00 ffffff90 28 6e 0a   .4r..(r..4r..(n.
ffffff80 28 6e 16 ffffff90 28 6e 21 ffffff90 32 6f 04 ffffff80 28 6f 19   .(n..(n!.2o..(o.
ffffff80 32 6f 03 ffffff90 28 68 0a ffffff80 28 68 16 ffffff90 28 6f 1f   .2o..(h..(h..(o.
ffffff90 30 74 00 ffffff80 28 74 1e ffffff80 30 74 02 ffffff90 28 6c 0a   .0t..(t..0t..(l.
ffffff80 28 6c 16 ffffff90 28 6e 1f ffffff90 2e 6e 04 ffffff80 28 6e 1a   .(l..(n...n..(n.
ffffff80 2e 6e 02 ffffff90 28 6e 0d ffffff80 28 6e 13 ffffff90 28 6f 1f   ..n..(n..(n..(o.
ffffff90 2f 6e 20 ffffff80 2f 6e 00 ffffff90 30 75 16 ffffff80 28 75 06   ./n ./n..0u..(u.
ffffff80 30 75 05 ffffff90 28 6f 05 ffffff80 28 6f 1b ffffff90 28 6f 20   .0u..(o..(o..(o 
ffffff90 34 72 06 ffffff80 28 72 16 ffffff80 34 72 03 ffffff90 28 6a 0a   .4r..(r..4r..(j.
ffffff80 28 6a 16 ffffff90 28 6c 20 ffffff90 32 6a 05 ffffff80 28 6a 1a   .(j..(l .2j..(j.
ffffff80 32 6a 00 ffffff90 28 72 0a ffffff80 28 72 16 ffffff90 28 6a 20   .2j..(r..(r..(j 
ffffff90 30 75 01 ffffff80 28 75 19 ffffff80 30 75 05 ffffff90 28 6f 0c   .0u..(u..0u..(o.
ffffff80 28 6f 14 ffffff90 28 72 21 ffffff90 2e 72 0c ffffffe0 00 3e 02   .(o..(r!..r...>.
ffffffe0 00 3d 03 ffffffe0 00 41 02 ffffffe0 00 44 01 ffffffe0 00 47 02   ..=...A...D...G.
ffffffe0 00 4b 02 ffffffe0 00 4d 01 ffffffe0 00 4c 02 ffffffe0 00 46 02   ..K...M...L...F.
ffffffe0 00 40 10 ffffffe0 00 43 04 ffffffe0 00 44 01 ffffffe0 00 48 02   ..@...C...D...H.
ffffffe0 00 49 02 ffffffe0 00 4b 03 ffffffe0 00 50 02 ffffffe0 00 4f 01   ..I...K...P...O.
ffffffe0 00 4c 02 ffffffe0 00 43 14 ffffffe0 00 41 02 ffffffe0 00 46 01   ..L...C...A...F.
ffffffe0 00 49 02 ffffffe0 00 48 02 ffffffe0 00 4a 01 ffffffe0 00 4f 02   ..I...H...J...O.
ffffffe0 00 4c 02 ffffffe0 00 4a 01 ffffffe0 00 46 02 ffffffe0 00 41 14   ..L...J...F...A.
ffffffe0 00 46 02 ffffffe0 00 48 03 ffffffe0 00 4b 02 ffffffe0 00 4f 01   ..F...H...K...O.
ffffffe0 00 4e 02 ffffffe0 00 4d 03 ffffffe0 00 44 02 ffffffe0 00 41 14   ..N...M...D...A.
ffffffe0 00 44 02 ffffffe0 00 45 01 ffffffe0 00 48 00 ffffff80 28 72 00   ..D...E...H..(r.
ffffffe0 00 49 02 ffffffe0 00 4a 02 ffffffe0 00 4b 00 ffffff90 28 6c 00   ..I...J...K..(l.
ffffffe0 00 40 05 ffffff80 2e 6c 06 ffffff80 28 6c 14 ffffff90 28 6b 20   ..@...l..(l..(k 
ffffff90 34 71 0f ffffff80 28 71 11 ffffff80 34 71 00 ffffff90 28 69 0b   .4q..(q..4q..(i.
ffffff80 28 69 14 ffffff90 28 6f 20 ffffff90 32 6e 05 ffffff80 28 6e 1c   .(i..(o .2n..(n.
ffffff90 28 6f 00 ffffff80 32 6f 0c ffffff80 28 6f 14 ffffff90 28 72 20   .(o..2o..(o..(r 
ffffff90 30 76 01 ffffff80 28 76 1d ffffff80 30 76 01 ffffff90 28 6a 0a   .0v..(v..0v..(j.
ffffff80 28 6a 16 ffffff90 28 6c 20 ffffff90 2e 73 01 ffffff80 28 73 1e   .(j..(l ..s..(s.
ffffff90 28 6f 05 ffffff80 2e 6f 05 ffffff80 28 6f 16 ffffff90 28 6f 20   .(o...o..(o..(o 
ffffff90 2f 6e 1f ffffff80 2f 6e 00 ffffff90 30 6f 13 ffffff80 28 6f 0d   ./n../n..0o..(o.
ffffff80 30 6f 00 ffffff90 28 6e 0c ffffff80 28 6e 15 ffffff90 28 6c 20   .0o..(n..(n..(l 
ffffff90 34 75 17 ffffff80 28 75 09 ffffff90 28 6f 03 ffffff80 34 6f 08   .4u..(u..(o..4o.
ffffff80 28 6f 14 ffffff90 28 6c 20 ffffff90 32 6e 08 ffffff80 28 6e 18   .(o..(l .2n..(n.
ffffff80 32 6e 00 ffffff90 28 72 0a ffffff80 28 72 15 ffffff90 28 73 13   .2n..(r..(r..(s.
ffffff80 28 73 0d ffffff90 43 70 11 ffffff80 43 70 00 ffffff90 40 69 0f   .(s..Cp..Cp..@i.
ffffff80 40 69 00 ffffff90 3b 70 10 ffffff80 3b 70 00 ffffff90 40 67 0f   .@i..;p..;p..@g.
ffffff80 40 67 00 ffffff90 43 6f 11 ffffff80 43 6f 00 ffffff90 40 66 0f   .@g..Co..Co..@f.
ffffff80 40 66 00 ffffff90 43 71 11 ffffff80 43 71 00 ffffff90 47 67 10   .@f..Cq..Cq..Gg.
ffffff80 47 67 00 ffffff90 43 6f 0f ffffff80 43 6f 00 ffffff90 40 65 11   .Gg..Co..Co..@e.
ffffff80 40 65 00 ffffff90 43 70 0f ffffff80 43 70 00 ffffff90 40 67 11   .@e..Cp..Cp..@g.
ffffff80 40 67 00 ffffff90 43 6e 0f ffffff80 43 6e 00 ffffff90 47 64 10   .@g..Cn..Cn..Gd.
ffffff80 47 64 00 ffffff90 4c 71 0f ffffff80 4c 71 00 ffffff90 4f 67 11   .Gd..Lq..Lq..Og.
ffffff80 4f 67 00 ffffff90 2d 6c 08 ffffff80 2d 6c 18 ffffff90 2d 72 1f   .Og..-l..-l..-r.
ffffff90 39 72 05 ffffff80 2d 72 1b ffffff80 39 72 00 ffffff90 2d 6e 0a   .9r..-r..9r..-n.
ffffff80 2d 6e 16 ffffff90 2d 6e 1f ffffff90 37 6f 05 ffffff80 2d 6f 19   .-n..-n..7o..-o.
ffffff80 37 6f 02 ffffff90 2d 68 0c ffffff80 2d 68 15 ffffff90 2d 6f 20   .7o..-h..-h..-o 
ffffff90 35 74 00 ffffff80 2d 74 1e ffffff80 35 74 02 ffffff90 2d 6c 0a   .5t..-t..5t..-l.
ffffff80 2d 6c 15 ffffff90 2d 6e 20 ffffff90 33 6e 02 ffffff80 2d 6e 1c   .-l..-n .3n..-n.
ffffff80 33 6e 02 ffffff90 2d 6e 0d ffffff80 2d 6e 12 ffffff90 2d 6f 20   .3n..-n..-n..-o 
ffffff90 34 6e 20 ffffff80 34 6e 00 ffffff90 35 75 15 ffffff80 2d 75 07   .4n .4n..5u..-u.
ffffff80 35 75 03 ffffff90 2d 6f 07 ffffff80 2d 6f 19 ffffff90 2d 6f 21   .5u..-o..-o..-o!
ffffff90 39 72 07 ffffff80 2d 72 16 ffffff80 39 72 03 ffffff90 2d 6a 0a   .9r..-r..9r..-j.
ffffff80 2d 6a 16 ffffff90 2d 6c 1f ffffff90 37 6a 04 ffffff80 2d 6a 1c   .-j..-l..7j..-j.
ffffff80 37 6a 00 ffffff90 2d 72 0a ffffff80 2d 72 16 ffffff90 2d 6a 1f   .7j..-r..-r..-j.
ffffff90 35 75 02 ffffff80 2d 75 19 ffffff80 35 75 05 ffffff90 2d 6f 0c   .5u..-u..5u..-o.
ffffff80 2d 6f 14 ffffff90 2d 72 1f ffffff90 33 72 0e ffffffe0 00 3e 01   .-o..-r..3r...>.
ffffffe0 00 3d 04 ffffffe0 00 41 01 ffffffe0 00 46 02 ffffffe0 00 47 02   ..=...A...F...G.
ffffffe0 00 4c 01 ffffffe0 00 4f 02 ffffffe0 00 4c 02 ffffffe0 00 46 01   ..L...O...L...F.
ffffffe0 00 40 0f ffffffe0 00 43 02 ffffffe0 00 45 02 ffffffe0 00 43 01   ..@...C...E...C.
ffffffe0 00 48 04 ffffffe0 00 49 01 ffffffe0 00 4b 02 ffffffe0 00 50 03   ..H...I...K...P.
ffffffe0 00 4f 02 ffffffe0 00 4a 02 ffffffe0 00 41 14 ffffffe0 00 43 01   ..O...J...A...C.
ffffffe0 00 46 02 ffffffe0 00 49 02 ffffffe0 00 48 01 ffffffe0 00 4a 02   ..F...I...H...J.
ffffffe0 00 4f 02 ffffffe0 00 4c 01 ffffffe0 00 4a 02 ffffffe0 00 43 02   ..O...L...J...C.
ffffffe0 00 40 14 ffffffe0 00 46 01 ffffffe0 00 48 04 ffffffe0 00 4b 01   ..@...F...H...K.
ffffffe0 00 4f 02 ffffffe0 00 4c 02 ffffffe0 00 4e 03 ffffffe0 00 44 02   ..O...L...N...D.
ffffffe0 00 40 14 ffffffe0 00 44 01 ffffffe0 00 48 00 ffffff80 2d 72 00   ..@...D...H..-r.
ffffffe0 00 49 04 ffffffe0 00 4a 01 ffffffe0 00 4b 00 ffffff90 2d 6c 00   ..I...J...K..-l.
ffffffe0 00 40 05 ffffff80 33 6c 05 ffffff80 2d 6c 16 ffffff90 2d 6b 20   ..@..3l..-l..-k 
ffffff90 39 71 0d ffffff80 2d 71 12 ffffff80 39 71 00 ffffff90 2d 69 0a   .9q..-q..9q..-i.
ffffff80 2d 69 16 ffffff90 2d 6f 20 ffffff90 37 6e 05 ffffff80 2d 6e 1a   .-i..-o .7n..-n.
ffffff90 2d 6f 02 ffffff80 37 6f 0c ffffff80 2d 6f 12 ffffff90 2d 72 21   .-o..7o..-o..-r!
ffffff90 35 76 02 ffffff80 2d 76 1c ffffff80 35 76 02 ffffff90 2d 6a 0a   .5v..-v..5v..-j.
ffffff80 2d 6a 16 ffffff90 2d 6c 1f ffffff90 33 73 02 ffffff80 2d 73 1e   .-j..-l..3s..-s.
ffffff90 2d 6f 03 ffffff80 33 6f 07 ffffff80 2d 6f 16 ffffff90 2d 6f 1f   .-o..3o..-o..-o.
ffffff90 34 6e 20 ffffff80 34 6e 00 ffffff90 35 6f 12 ffffff80 2d 6f 0e   .4n .4n..5o..-o.
ffffff80 35 6f 00 ffffff90 2d 6e 0b ffffff80 2d 6e 14 ffffff90 2d 6c 20   .5o..-n..-n..-l 
ffffff90 39 75 19 ffffff80 2d 75 08 ffffff90 2d 6f 04 ffffff80 39 6f 06   .9u..-u..-o..9o.
ffffff80 2d 6f 16 ffffff90 2d 6c 20 ffffff90 37 6e 08 ffffff80 2d 6e 17   .-o..-l .7n..-n.
ffffff80 37 6e 00 ffffff90 2d 72 09 ffffff80 2d 72 17 ffffff90 2d 73 12   .7n..-r..-r..-s.
ffffff80 2d 73 0e ffffff90 45 70 10 ffffff80 45 70 00 ffffff90 41 69 0f   .-s..Ep..Ep..Ai.
ffffff80 41 69 00 ffffff90 40 70 11 ffffff80 40 70 00 ffffff90 45 67 0f   .Ai..@p..@p..Eg.
ffffff80 45 67 00 ffffff90 40 6f 11 ffffff80 40 6f 00 ffffff90 3c 66 0f   .Eg..@o..@o..<f.
ffffff80 3c 66 00 ffffff90 40 71 10 ffffff80 40 71 00 ffffff90 45 67 0f   .<f..@q..@q..Eg.
ffffff80 45 67 00 ffffff90 48 6f 11 ffffff80 48 6f 00 ffffff90 45 65 0f   .Eg..Ho..Ho..Ee.
ffffff80 45 65 00 ffffff90 40 70 11 ffffff80 40 70 00 ffffff90 45 67 10   .Ee..@p..@p..Eg.
ffffff80 45 67 00 ffffff90 40 6e 0f ffffff80 40 6e 00 ffffff90 45 64 11   .Eg..@n..@n..Ed.
ffffff80 45 64 00 ffffff90 40 71 0f ffffff80 40 71 00 ffffff90 3c 67 11   .Ed..@q..@q..<g.
ffffff80 3c 67 00 ffffff90 28 6c 08 ffffff80 28 6c 17 ffffff90 28 72 20   .<g..(l..(l..(r 
ffffff90 34 72 05 ffffff80 28 72 19 ffffff80 34 72 02 ffffff90 28 6e 0a   .4r..(r..4r..(n.
ffffff80 28 6e 15 ffffff90 28 6e 20 ffffff90 32 6f 05 ffffff80 28 6f 17   .(n..(n .2o..(o.
ffffff80 32 6f 04 ffffff90 28 68 0b ffffff80 28 68 14 ffffff90 28 6f 20   .2o..(h..(h..(o 
ffffff90 30 74 02 ffffff80 28 74 1e ffffff80 30 74 01 ffffff90 28 6c 0a   .0t..(t..0t..(l.
ffffff80 28 6c 16 ffffff90 28 6e 20 ffffff90 2e 6e 01 ffffff80 28 6e 1d   .(l..(n ..n..(n.
ffffff80 2e 6e 01 ffffff90 28 6e 0e ffffff80 28 6e 12 ffffff90 28 6f 20   ..n..(n..(n..(o 
ffffff90 2f 6e 1e ffffff80 2f 6e 01 ffffff90 30 75 16 ffffff80 28 75 07   ./n../n..0u..(u.
ffffff80 30 75 03 ffffff90 28 6f 07 ffffff80 28 6f 19 ffffff90 28 6f 1f   .0u..(o..(o..(o.
ffffff90 34 72 07 ffffff80 28 72 17 ffffff80 34 72 02 ffffff90 28 6a 0a   .4r..(r..4r..(j.
ffffff80 28 6a 17 ffffff90 28 6c 20 ffffff90 32 6a 03 ffffff80 28 6a 1b   .(j..(l .2j..(j.
ffffff80 32 6a 02 ffffff90 28 72 0a ffffff80 28 72 15 ffffff90 28 6a 20   .2j..(r..(r..(j 
ffffff90 30 75 02 ffffff80 28 75 19 ffffff80 30 75 05 ffffff90 28 6f 0b   .0u..(u..0u..(o.
ffffff80 28 6f 14 ffffff90 28 72 20 ffffff90 2e 72 0d ffffffe0 00 3e 02   .(o..(r ..r...>.
ffffffe0 00 40 02 ffffffe0 00 41 01 ffffffe0 00 44 02 ffffffe0 00 46 02   ..@...A...D...F.
ffffffe0 00 47 01 ffffffe0 00 4c 02 ffffffe0 00 4f 02 ffffffe0 00 4c 01   ..G...L...O...L.
ffffffe0 00 46 11 ffffffe0 00 43 02 ffffffe0 00 45 01 ffffffe0 00 43 02   ..F...C...E...C.
ffffffe0 00 48 02 ffffffe0 00 49 01 ffffffe0 00 4a 02 ffffffe0 00 4b 02   ..H...I...J...K.
ffffffe0 00 50 03 ffffffe0 00 4f 02 ffffffe0 00 4a 01 ffffffe0 00 41 14   ..P...O...J...A.
ffffffe0 00 43 02 ffffffe0 00 47 02 ffffffe0 00 4a 03 ffffffe0 00 4c 02   ..C...G...J...L.
ffffffe0 00 4f 01 ffffffe0 00 4c 02 ffffffe0 00 4a 02 ffffffe0 00 43 01   ..O...L...J...C.
ffffffe0 00 40 14 ffffffe0 00 46 02 ffffffe0 00 49 02 ffffffe0 00 4b 01   ..@...F...I...K.
ffffffe0 00 4d 02 ffffffe0 00 4e 02 ffffffe0 00 4c 01 ffffffe0 00 4d 04   ..M...N...L...M.
ffffffe0 00 44 01 ffffffe0 00 40 14 ffffffe0 00 44 02 ffffffe0 00 48 00   ..D...@...D...H.
ffffff80 28 72 00 ffffffe0 00 49 03 ffffffe0 00 4a 02 ffffffe0 00 4b 00   .(r...I...J...K.
ffffff90 28 6c 00 ffffffe0 00 40 05 ffffff80 2e 6c 05 ffffff80 28 6c 16   .(l...@...l..(l.
ffffff90 28 6b 1f ffffff90 34 71 0e ffffff80 28 71 10 ffffff80 34 71 02   .(k..4q..(q..4q.
ffffff90 28 69 0a ffffff80 28 69 16 ffffff90 28 6f 1f ffffff90 32 6e 05   .(i..(i..(o..2n.
ffffff80 28 6e 1b ffffff90 28 6f 00 ffffff80 32 6f 0d ffffff80 28 6f 13   .(n..(o..2o..(o.
ffffff90 28 72 1f ffffff90 30 76 04 ffffff80 28 76 1c ffffff80 30 76 00   .(r..0v..(v..0v.
ffffff90 28 6a 0c ffffff80 28 6a 15 ffffff90 28 6c 20 ffffff90 2e 73 02   .(j..(j..(l ..s.
ffffff80 28 73 1e ffffff90 28 6f 03 ffffff80 2e 6f 07 ffffff80 28 6f 15   .(s..(o...o..(o.
ffffff90 28 6f 20 ffffff90 2f 6e 20 ffffff80 2f 6e 00 ffffff90 30 6f 12   .(o ./n ./n..0o.
ffffff80 28 6f 0d ffffff80 30 6f 00 ffffff90 28 6e 0c ffffff80 28 6e 14   .(o..0o..(n..(n.
ffffff90 28 6c 20 ffffff90 34 75 17 ffffff80 28 75 08 ffffff90 28 6f 05   .(l .4u..(u..(o.
ffffff80 34 6f 07 ffffff80 28 6f 14 ffffff90 28 6c 21 ffffff90 32 6e 09   .4o..(o..(l!.2n.
ffffff80 28 6e 17 ffffff80 32 6e 00 ffffff90 28 72 08 ffffff80 28 72 18   .(n..2n..(r..(r.
ffffff90 28 73 1f ffffff80 28 73 00 ffffff90 30 75 20 ffffff90 28 6f 0c   .(s..(s..0u .(o.
ffffff80 28 6f 03 ffffff80 30 6f 11 ffffff90 28 72 1f ffffff90 2e 72 0e   .(o..0o..(r...r.
ffffffe0 00 3e 01 ffffffe0 00 40 02 ffffffe0 00 41 02 ffffffe0 00 44 01   ..>...@...A...D.
ffffffe0 00 46 02 ffffffe0 00 4a 02 ffffffe0 00 4c 01 ffffffe0 00 4e 02   ..F...J...L...N.
ffffffe0 00 4b 02 ffffffe0 00 42 10 ffffffe0 00 43 02 ffffffe0 00 45 02   ..K...B...C...E.
ffffffe0 00 43 01 ffffffe0 00 48 02 ffffffe0 00 49 02 ffffffe0 00 4a 01   ..C...H...I...J.
ffffffe0 00 4b 02 ffffffe0 00 50 03 ffffffe0 00 4f 02 ffffffe0 00 4a 02   ..K...P...O...J.
ffffffe0 00 41 12 ffffffe0 00 43 02 ffffffe0 00 46 01 ffffffe0 00 47 02   ..A...C...F...G.
ffffffe0 00 4a 03 ffffffe0 00 4c 02 ffffffe0 00 4f 02 ffffffe0 00 4c 01   ..J...L...O...L.
ffffffe0 00 47 02 ffffffe0 00 43 02 ffffffe0 00 40 14 ffffffe0 00 46 01   ..G...C...@...F.
ffffffe0 00 49 02 ffffffe0 00 4b 02 ffffffe0 00 4d 01 ffffffe0 00 4e 02   ..I...K...M...N.
ffffffe0 00 4c 02 ffffffe0 00 4d 03 ffffffe0 00 44 02 ffffffe0 00 40 14   ..L...M...D...@.
ffffffe0 00 44 01 ffffffe0 00 48 00 ffffff80 28 72 00 ffffffe0 00 49 04   ..D...H..(r...I.
ffffffe0 00 4a 01 ffffffe0 00 4b 00 ffffff80 2e 72 00 ffffff90 31 6c 00   ..J...K...r..1l.
ffffffe0 00 40 09 ffffff80 31 6c 17 ffffff90 31 72 20 ffffff90 3d 72 03   ..@..1l..1r .=r.
ffffff80 31 72 1b ffffff80 3d 72 01 ffffff90 31 6e 0a ffffff80 31 6e 16   .1r..=r..1n..1n.
ffffff90 31 6e 20 ffffff90 3b 6f 03 ffffff80 31 6f 19 ffffff80 3b 6f 03   .1n .;o..1o..;o.
ffffff90 31 68 0a ffffff80 31 68 16 ffffff90 31 6f 20 ffffff90 39 74 01   .1h..1h..1o .9t.
ffffff80 31 74 1e ffffff80 39 74 00 ffffff90 31 6c 0c ffffff80 31 6c 14   .1t..9t..1l..1l.
ffffff90 31 6e 21 ffffff90 37 6e 02 ffffff80 31 6e 1c ffffff80 37 6e 02   .1n!.7n..1n..7n.
ffffff90 31 6e 0d ffffff80 31 6e 13 ffffff90 31 6f 1f ffffff90 38 6e 1e   .1n..1n..1o..8n.
ffffff80 38 6e 02 ffffff90 39 75 16 ffffff80 31 75 06 ffffff80 39 75 04   .8n..9u..1u..9u.
ffffff90 2f 6f 06 ffffff80 2f 6f 19 ffffff90 2f 6f 20 ffffff90 3b 72 07   ./o../o../o .;r.
ffffff80 2f 72 17 ffffff80 3b 72 02 ffffff90 2f 6a 0a ffffff80 2f 6a 15   ./r..;r../j../j.
ffffff90 2f 6c 20 ffffff90 39 6a 05 ffffff80 2f 6a 1b ffffff80 39 6a 01   ./l .9j../j..9j.
ffffff90 2f 72 0a ffffff80 2f 72 16 ffffff90 2f 6a 20 ffffff90 37 75 01   ./r../r../j .7u.
ffffff80 2f 75 19 ffffff80 37 75 05 ffffff90 2e 6f 0f ffffff80 2e 6f 11   ./u..7u...o...o.
ffffff90 2d 72 20 ffffff90 35 72 0d ffffffe0 00 3e 02 ffffffe0 00 40 01   .-r .5r...>...@.
ffffffe0 00 41 02 ffffffe0 00 44 02 ffffffe0 00 46 01 ffffffe0 00 4a 02   ..A...D...F...J.
ffffffe0 00 4c 02 ffffffe0 00 4e 01 ffffffe0 00 4b 02 ffffffe0 00 42 11   ..L...N...K...B.
ffffffe0 00 43 01 ffffffe0 00 45 02 ffffffe0 00 44 02 ffffffe0 00 4b 01   ..C...E...D...K.
ffffffe0 00 49 02 ffffffe0 00 4a 02 ffffffe0 00 4b 01 ffffffe0 00 50 04   ..I...J...K...P.
ffffffe0 00 4f 01 ffffffe0 00 47 02 ffffffe0 00 40 12 ffffffe0 00 41 02   ..O...G...@...A.
ffffffe0 00 46 02 ffffffe0 00 47 01 ffffffe0 00 4a 04 ffffffe0 00 4c 01   ..F...G...J...L.
ffffffe0 00 4f 02 ffffffe0 00 4c 02 ffffffe0 00 47 01 ffffffe0 00 43 02   ..O...L...G...C.
ffffffe0 00 40 14 ffffffe0 00 46 02 ffffffe0 00 49 01 ffffffe0 00 4b 02   ..@...F...I...K.
ffffffe0 00 4d 02 ffffffe0 00 4e 01 ffffffe0 00 4c 02 ffffffe0 00 4d 03   ..M...N...L...M.
ffffffe0 00 44 02 ffffffe0 00 40 14 ffffffe0 00 44 02 ffffffe0 00 48 00   ..D...@...D...H.
ffffff80 2d 72 00 ffffffe0 00 49 03 ffffffe0 00 4a 00 ffffffe0 00 4b 00   .-r...I...J...K.
ffffff90 28 6c 00 ffffffe0 00 40 05 ffffff80 35 6c 07 ffffff80 28 6c 15   .(l...@..5l..(l.
ffffff90 28 6b 20 ffffff90 34 71 0d ffffff80 28 71 11 ffffff80 34 71 02   .(k .4q..(q..4q.
ffffff90 28 69 0a ffffff80 28 69 15 ffffff90 28 6f 20 ffffff90 32 6e 05   .(i..(i..(o .2n.
ffffff80 28 6e 1b ffffff90 28 6f 00 ffffff80 32 6f 0d ffffff80 28 6f 12   .(n..(o..2o..(o.
ffffff90 28 72 20 ffffff90 30 76 03 ffffff80 28 76 1d ffffff80 30 76 00   .(r .0v..(v..0v.
ffffff90 28 6a 0b ffffff80 28 6a 14 ffffff90 28 6c 20 ffffff90 2e 73 02   .(j..(j..(l ..s.
ffffff80 28 73 1f ffffff90 28 6f 04 ffffff80 2e 6f 06 ffffff80 28 6f 16   .(s..(o...o..(o.
ffffff90 28 6f 20 ffffff90 2f 6e 1f ffffff80 2f 6e 00 ffffff90 30 6f 13   .(o ./n../n..0o.
ffffff80 28 6f 0b ffffff80 30 6f 02 ffffff90 28 6e 0c ffffff80 28 6e 14   .(o..0o..(n..(n.
ffffff90 28 6c 1f ffffff90 34 75 18 ffffff80 28 75 08 ffffff90 28 6f 05   .(l..4u..(u..(o.
ffffff80 34 6f 07 ffffff80 28 6f 14 ffffff90 28 6c 1f ffffff90 32 6e 09   .4o..(o..(l..2n.
ffffff80 28 6e 17 ffffff80 32 6e 00 ffffff90 28 72 0a ffffff80 28 72 17   .(n..2n..(r..(r.
ffffff90 28 73 20 ffffff80 28 73 00 ffffff90 43 70 0f ffffff80 43 70 00   .(s .(s..Cp..Cp.
ffffff90 47 69 11 ffffff80 47 69 00 ffffff90 40 70 0f ffffff80 40 70 00   .Gi..Gi..@p..@p.
ffffff90 3b 67 10 ffffff80 3b 67 00 ffffff90 43 6f 0f ffffff80 43 6f 00   .;g..;g..Co..Co.
ffffff90 40 66 11 ffffff80 40 66 00 ffffff90 47 71 0f ffffff80 47 71 00   .@f..@f..Gq..Gq.
ffffff90 43 67 11 ffffff80 43 67 00 ffffff90 47 6f 10 ffffff80 47 6f 00   .Cg..Cg..Go..Go.
ffffff90 43 65 0f ffffff80 43 65 00 ffffff90 40 70 11 ffffff80 40 70 00   .Ce..Ce..@p..@p.
ffffff90 3b 67 0f ffffff80 3b 67 00 ffffff90 43 6e 11 ffffff80 43 6e 00   .;g..;g..Cn..Cn.
ffffff90 47 64 0f ffffff80 47 64 00 ffffff90 4c 71 10 ffffff80 4c 71 00   .Gd..Gd..Lq..Lq.
ffffff90 4f 67 0f ffffff80 4f 67 00 ffffff90 28 6c 0a ffffff80 28 6c 16   .Og..Og..(l..(l.
ffffff90 28 72 21 ffffff90 34 72 04 ffffff80 28 72 1a ffffff80 34 72 02   .(r!.4r..(r..4r.
ffffff90 28 6e 0a ffffff80 28 6e 16 ffffff90 28 6e 1f ffffff90 32 6f 04   .(n..(n..(n..2o.
ffffff80 28 6f 19 ffffff80 32 6f 03 ffffff90 28 68 0a ffffff80 28 68 16   .(o..2o..(h..(h.
ffffff90 28 6f 1f ffffff90 30 74 00 ffffff80 28 74 1e ffffff80 30 74 02   .(o..0t..(t..0t.
ffffff90 28 6c 0a ffffff80 28 6c 16 ffffff90 28 6e 1f ffffff90 2e 6e 04   .(l..(l..(n...n.
ffffff80 28 6e 1c ffffff80 2e 6e 00 ffffff90 28 6e 0d ffffff80 28 6e 14   .(n...n..(n..(n.
ffffff90 28 6f 20 ffffff90 2f 6e 1e ffffff80 2f 6e 02 ffffff90 30 75 15   .(o ./n../n..0u.
ffffff80 28 75 07 ffffff80 30 75 03 ffffff90 28 6f 07 ffffff80 28 6f 19   .(u..0u..(o..(o.
ffffff90 28 6f 20 ffffff90 34 72 06 ffffff80 28 72 16 ffffff80 34 72 03   .(o .4r..(r..4r.
ffffff90 28 6a 0a ffffff80 28 6a 16 ffffff90 28 6c 20 ffffff90 32 6a 05   .(j..(j..(l .2j.
ffffff80 28 6a 1a ffffff80 32 6a 00 ffffff90 28 72 0c ffffff80 28 72 14   .(j..2j..(r..(r.
ffffff90 28 6a 21 ffffff90 30 75 02 ffffff80 28 75 17 ffffff80 30 75 07   .(j!.0u..(u..0u.
ffffff90 28 6f 0c ffffff80 28 6f 14 ffffff90 28 72 1f ffffff90 2e 72 0e   .(o..(o..(r...r.
ffffffe0 00 3e 03 ffffffe0 00 41 02 ffffffe0 00 44 01 ffffffe0 00 47 02   ..>...A...D...G.
ffffffe0 00 4b 02 ffffffe0 00 4c 01 ffffffe0 00 4e 02 ffffffe0 00 4b 02   ..K...L...N...K.
ffffffe0 00 42 10 ffffffe0 00 43 02 ffffffe0 00 45 02 ffffffe0 00 44 01   ..B...C...E...D.
ffffffe0 00 4b 02 ffffffe0 00 49 02 ffffffe0 00 4a 03 ffffffe0 00 50 02   ..K...I...J...P.
ffffffe0 00 4f 01 ffffffe0 00 4c 02 ffffffe0 00 47 02 ffffffe0 00 40 12   ..O...L...G...@.
ffffffe0 00 41 02 ffffffe0 00 46 01 ffffffe0 00 49 02 ffffffe0 00 48 02   ..A...F...I...H.
ffffffe0 00 4a 01 ffffffe0 00 4c 02 ffffffe0 00 50 02 ffffffe0 00 4f 01   ..J...L...P...O.
ffffffe0 00 47 02 ffffffe0 00 43 02 ffffffe0 00 40 14 ffffffe0 00 46 01   ..G...C...@...F.
ffffffe0 00 49 02 ffffffe0 00 4b 02 ffffffe0 00 4f 01 ffffffe0 00 4e 02   ..I...K...O...N.
ffffffe0 00 4d 05 ffffffe0 00 44 02 ffffffe0 00 40 14 ffffffe0 00 44 01   ..M...D...@...D.
ffffffe0 00 48 00 ffffff80 28 72 00 ffffffe0 00 49 02 ffffffe0 00 4a 02   ..H..(r...I...J.
ffffffe0 00 4c 00 ffffffe0 00 4b 00 ffffff90 28 6c 00 ffffffe0 00 40 05   ..L...K..(l...@.
ffffff80 2e 6c 06 ffffff80 28 6c 14 ffffff90 28 6b 20 ffffff90 34 71 0f   ..l..(l..(k .4q.
ffffff80 28 71 11 ffffff80 34 71 01 ffffff90 28 69 0a ffffff80 28 69 16   .(q..4q..(i..(i.
ffffff90 28 6f 20 ffffff90 32 6e 05 ffffff80 28 6e 1a ffffff90 28 6f 00   .(o .2n..(n..(o.
ffffff80 32 6f 0e ffffff80 28 6f 12 ffffff90 28 72 20 ffffff90 30 76 01   .2o..(o..(r .0v.
ffffff80 28 76 1e ffffff80 30 76 00 ffffff90 28 6a 0a ffffff80 28 6a 16   .(v..0v..(j..(j.
ffffff90 28 6c 20 ffffff90 2e 73 01 ffffff80 28 73 1e ffffff90 28 6f 05   .(l ..s..(s..(o.
ffffff80 2e 6f 07 ffffff80 28 6f 14 ffffff90 28 6f 21 ffffff90 2f 6e 1e   ..o..(o..(o!./n.
ffffff80 2f 6e 02 ffffff90 30 6f 11 ffffff80 28 6f 0d ffffff80 30 6f 02   ./n..0o..(o..0o.
ffffff90 28 6e 0a ffffff80 28 6e 15 ffffff90 28 6c 20 ffffff90 34 75 17   .(n..(n..(l .4u.
ffffff80 28 75 09 ffffff90 28 6f 03 ffffff80 34 6f 08 ffffff80 28 6f 14   .(u..(o..4o..(o.
ffffff90 28 6c 20 ffffff90 32 6e 08 ffffff80 28 6e 18 ffffff80 32 6e 00   .(l .2n..(n..2n.
ffffff90 28 72 0a ffffff80 28 72 15 ffffff90 28 73 14 ffffff80 28 73 0c   .(r..(r..(s..(s.
ffffff90 42 70 11 ffffff80 42 70 00 ffffff90 40 69 10 ffffff80 40 69 00   .Bp..Bp..@i..@i.
ffffff90 3f 70 0f ffffff80 3f 70 00 ffffff90 3b 67 11 ffffff80 3b 67 00   .?p..?p..;g..;g.
ffffff90 45 6f 0f ffffff80 45 6f 00 ffffff90 42 66 11 ffffff80 42 66 00   .Eo..Eo..Bf..Bf.
ffffff90 3f 71 0f ffffff80 3f 71 00 ffffff90 3b 67 10 ffffff80 3b 67 00   .?q..?q..;g..;g.
ffffff90 47 6f 0f ffffff80 47 6f 00 ffffff90 45 65 11 ffffff80 45 65 00   .Go..Go..Ee..Ee.
ffffff90 42 70 0f ffffff80 42 70 00 ffffff90 3f 67 11 ffffff80 3f 67 00   .Bp..Bp..?g..?g.
ffffff90 4b 6e 10 ffffff80 4b 6e 00 ffffff90 49 64 0f ffffff80 49 64 00   .Kn..Kn..Id..Id.
ffffff90 47 71 11 ffffff80 47 71 00 ffffff90 45 67 0f ffffff80 45 67 00   .Gq..Gq..Eg..Eg.
ffffff90 28 6c 0a ffffff80 28 6c 16 ffffff90 28 72 1f ffffff90 34 72 05   .(l..(l..(r..4r.
ffffff80 28 72 1b ffffff80 34 72 00 ffffff90 28 6e 0a ffffff80 28 6e 17   .(r..4r..(n..(n.
ffffff90 28 6e 20 ffffff90 32 6f 03 ffffff80 28 6f 19 ffffff80 32 6f 04   .(n .2o..(o..2o.
ffffff90 28 68 0a ffffff80 28 68 15 ffffff90 28 6f 20 ffffff90 30 74 00   .(h..(h..(o .0t.
ffffff80 28 74 1e ffffff80 30 74 02 ffffff90 28 6c 0a ffffff80 28 6c 15   .(t..0t..(l..(l.
ffffff90 28 6e 20 ffffff90 2e 6e 03 ffffff80 28 6e 1d ffffff80 2e 6e 00   .(n ..n..(n...n.
ffffff90 28 6e 0d ffffff80 28 6e 12 ffffff90 28 6f 20 ffffff90 2f 6e 20   .(n..(n..(o ./n 
ffffff80 2f 6e 01 ffffff90 30 75 16 ffffff80 28 75 05 ffffff80 30 75 05   ./n..0u..(u..0u.
ffffff90 28 6f 05 ffffff80 28 6f 1b ffffff90 28 6f 1f ffffff90 34 72 07   .(o..(o..(o..4r.
ffffff80 28 72 16 ffffff80 34 72 03 ffffff90 28 6a 0a ffffff80 28 6a 16   .(r..4r..(j..(j.
ffffff90 28 6c 1f ffffff90 32 6a 05 ffffff80 28 6a 1b ffffff80 32 6a 00   .(l..2j..(j..2j.
ffffff90 28 72 0a ffffff80 28 72 16 ffffff90 28 6a 1f ffffff90 30 75 02   .(r..(r..(j..0u.
ffffff80 28 75 19 ffffff80 30 75 05 ffffff90 28 6f 0c ffffff80 28 6f 15   .(u..0u..(o..(o.
ffffff90 28 72 20 ffffff90 2e 72 0c ffffffe0 00 3e 01 ffffffe0 00 3d 04   .(r ..r...>...=.
ffffffe0 00 41 01 ffffffe0 00 44 02 ffffffe0 00 47 02 ffffffe0 00 4b 01   ..A...D...G...K.
ffffffe0 00 4d 02 ffffffe0 00 4c 02 ffffffe0 00 46 01 ffffffe0 00 40 11   ..M...L...F...@.
ffffffe0 00 43 03 ffffffe0 00 44 02 ffffffe0 00 4b 02 ffffffe0 00 49 01   ..C...D...K...I.
ffffffe0 00 4b 04 ffffffe0 00 50 01 ffffffe0 00 4f 02 ffffffe0 00 4c 02   ..K...P...O...L.
ffffffe0 00 43 14 ffffffe0 00 41 01 ffffffe0 00 46 02 ffffffe0 00 49 02   ..C...A...F...I.
ffffffe0 00 48 01 ffffffe0 00 4a 02 ffffffe0 00 4c 02 ffffffe0 00 50 01   ..H...J...L...P.
ffffffe0 00 4c 02 ffffffe0 00 46 02 ffffffe0 00 41 14 ffffffe0 00 46 01   ..L...F...A...F.
ffffffe0 00 48 04 ffffffe0 00 4b 01 ffffffe0 00 4f 02 ffffffe0 00 4e 02   ..H...K...O...N.
ffffffe0 00 4d 03 ffffffe0 00 44 02 ffffffe0 00 41 14 ffffffe0 00 44 01   ..M...D...A...D.
ffffffe0 00 45 02 ffffffe0 00 48 00 ffffff80 28 72 00 ffffffe0 00 49 02   ..E...H..(r...I.
ffffffe0 00 4a 01 ffffffe0 00 4c 00 ffffffe0 00 4b 00 ffffff90 28 6c 00   ..J...L...K..(l.
ffffffe0 00 40 05 ffffff80 2e 6c 07 ffffff80 28 6c 14 ffffff90 28 6b 20   ..@...l..(l..(k 
ffffff90 34 71 0f ffffff80 28 71 10 ffffff80 34 71 00 ffffff90 28 69 0c   .4q..(q..4q..(i.
ffffff80 28 69 14 ffffff90 28 6f 21 ffffff90 32 6e 05 ffffff80 28 6e 1b   .(i..(o!.2n..(n.
ffffff90 28 6f 00 ffffff80 32 6f 0c ffffff80 28 6f 14 ffffff90 28 72 1f   .(o..2o..(o..(r.
ffffff90 30 76 02 ffffff80 28 76 1c ffffff80 30 76 02 ffffff90 28 6a 0a   .0v..(v..0v..(j.
ffffff80 28 6a 16 ffffff90 28 6c 1f ffffff90 2e 73 02 ffffff80 28 73 1e   .(j..(l...s..(s.
ffffff90 28 6f 05 ffffff80 2e 6f 05 ffffff80 28 6f 16 ffffff90 28 6f 1f   .(o...o..(o..(o.
ffffff90 2f 6e 20 ffffff80 2f 6e 00 ffffff90 30 6f 12 ffffff80 28 6f 0e   ./n ./n..0o..(o.
ffffff80 30 6f 01 ffffff90 28 6e 0a ffffff80 28 6e 16 ffffff90 28 6c 20   .0o..(n..(n..(l 
ffffff90 34 75 17 ffffff80 28 75 08 ffffff90 28 6f 04 ffffff80 34 6f 08   .4u..(u..(o..4o.
ffffff80 28 6f 14 ffffff90 28 6c 20 ffffff90 32 6e 08 ffffff80 28 6e 17   .(o..(l .2n..(n.
ffffff80 32 6e 00 ffffff90 28 72 0a ffffff80 28 72 16 ffffff90 28 73 14   .2n..(r..(r..(s.
ffffff80 28 73 0c ffffff90 4f 67 10 ffffff80 4f 67 00 ffffff90 4c 71 0f   .(s..Og..Og..Lq.
ffffff80 4c 71 00 ffffff90 47 64 11 ffffff80 47 64 00 ffffff90 43 6e 0f   .Lq..Gd..Gd..Cn.
ffffff80 43 6e 00 ffffff90 4c 67 11 ffffff80 4c 67 00 ffffff90 4f 70 10   .Cn..Lg..Lg..Op.
ffffff80 4f 70 00 ffffff90 4c 65 0f ffffff80 4c 65 00 ffffff90 47 6f 11   .Op..Le..Le..Go.
ffffff80 47 6f 00 ffffff90 43 67 0f ffffff80 43 67 00 ffffff90 47 71 11   .Go..Cg..Cg..Gq.
ffffff80 47 71 00 ffffff90 4c 66 0f ffffff80 4c 66 00 ffffff90 47 6f 10   .Gq..Lf..Lf..Go.
ffffff80 47 6f 00 ffffff90 4f 67 0f ffffff80 4f 67 00 ffffff90 4c 70 11   .Go..Og..Og..Lp.
ffffff80 4c 70 00 ffffff90 47 69 0f ffffff80 47 69 00 ffffff90 43 70 11   .Lp..Gi..Gi..Cp.
ffffff80 43 70 00 ffffff90 2d 6c 08 ffffff80 2d 6c 17 ffffff90 2d 72 20   .Cp..-l..-l..-r 
ffffff90 39 72 05 ffffff80 2d 72 1b ffffff80 39 72 00 ffffff90 2d 6e 0a   .9r..-r..9r..-n.
ffffff80 2d 6e 15 ffffff90 2d 6e 20 ffffff90 37 6f 05 ffffff80 2d 6f 19   .-n..-n .7o..-o.
ffffff80 37 6f 03 ffffff90 2d 68 0a ffffff80 2d 68 16 ffffff90 2d 6f 20   .7o..-h..-h..-o 
ffffff90 35 74 00 ffffff80 2d 74 1e ffffff80 35 74 01 ffffff90 2d 6c 0a   .5t..-t..5t..-l.
ffffff80 2d 6c 16 ffffff90 2d 6e 20 ffffff90 33 6e 01 ffffff80 2d 6e 1d   .-l..-n .3n..-n.
ffffff80 33 6e 01 ffffff90 2d 6e 0e ffffff80 2d 6e 12 ffffff90 2d 6f 20   .3n..-n..-n..-o 
ffffff90 34 6e 1f ffffff80 34 6e 00 ffffff90 35 75 16 ffffff80 2d 75 07   .4n..4n..5u..-u.
ffffff80 35 75 03 ffffff90 2d 6f 07 ffffff80 2d 6f 1a ffffff90 2d 6f 20   .5u..-o..-o..-o 
ffffff90 39 72 07 ffffff80 2d 72 15 ffffff80 39 72 04 ffffff90 2d 6a 0a   .9r..-r..9r..-j.
ffffff80 2d 6a 15 ffffff90 2d 6c 20 ffffff90 37 6a 05 ffffff80 2d 6a 1b   .-j..-l .7j..-j.
ffffff80 37 6a 00 ffffff90 2d 72 0a ffffff80 2d 72 15 ffffff90 2d 6a 20   .7j..-r..-r..-j 
ffffff90 35 75 02 ffffff80 2d 75 19 ffffff80 35 75 05 ffffff90 2d 6f 0b   .5u..-u..5u..-o.
ffffff80 2d 6f 14 ffffff90 2d 72 20 ffffff90 33 72 0d ffffffe0 00 3e 02   .-o..-r .3r...>.
ffffffe0 00 3d 03 ffffffe0 00 41 02 ffffffe0 00 46 02 ffffffe0 00 47 01   ..=...A...F...G.
ffffffe0 00 4c 02 ffffffe0 00 4f 02 ffffffe0 00 4c 01 ffffffe0 00 46 02   ..L...O...L...F.
ffffffe0 00 40 11 ffffffe0 00 43 03 ffffffe0 00 44 02 ffffffe0 00 48 01   ..@...C...D...H.
ffffffe0 00 49 02 ffffffe0 00 4b 03 ffffffe0 00 50 02 ffffffe0 00 4f 02   ..I...K...P...O.
ffffffe0 00 4a 01 ffffffe0 00 41 14 ffffffe0 00 43 02 ffffffe0 00 46 02   ..J...A...C...F.
ffffffe0 00 49 01 ffffffe0 00 48 02 ffffffe0 00 4a 02 ffffffe0 00 4f 01   ..I...H...J...O.
ffffffe0 00 4c 02 ffffffe0 00 4a 02 ffffffe0 00 46 01 ffffffe0 00 41 14   ..L...J...F...A.
ffffffe0 00 46 02 ffffffe0 00 48 03 ffffffe0 00 4b 02 ffffffe0 00 4f 02   ..F...H...K...O.
ffffffe0 00 4c 01 ffffffe0 00 4e 04 ffffffe0 00 44 01 ffffffe0 00 40 14   ..L...N...D...@.
ffffffe0 00 44 02 ffffffe0 00 45 02 ffffffe0 00 48 00 ffffff80 2d 72 00   ..D...E...H..-r.
ffffffe0 00 49 01 ffffffe0 00 4a 02 ffffffe0 00 4b 00 ffffff90 2d 6c 00   ..I...J...K..-l.
ffffffe0 00 40 05 ffffff80 33 6c 07 ffffff80 2d 6c 14 ffffff90 2d 6b 1f   ..@..3l..-l..-k.
ffffff90 39 71 0e ffffff80 2d 71 12 ffffff80 39 71 00 ffffff90 2d 69 0c   .9q..-q..9q..-i.
ffffff80 2d 69 14 ffffff90 2d 6f 1f ffffff90 37 6e 05 ffffff80 2d 6e 1b   .-i..-o..7n..-n.
ffffff90 2d 6f 02 ffffff80 37 6f 0b ffffff80 2d 6f 14 ffffff90 2d 72 20   .-o..7o..-o..-r 
ffffff90 35 76 02 ffffff80 2d 76 1c ffffff80 35 76 02 ffffff90 2d 6a 0a   .5v..-v..5v..-j.
ffffff80 2d 6a 15 ffffff90 2d 6c 20 ffffff90 33 73 02 ffffff80 2d 73 1e   .-j..-l .3s..-s.
ffffff90 2d 6f 03 ffffff80 33 6f 07 ffffff80 2d 6f 15 ffffff90 2d 6f 20   .-o..3o..-o..-o 
ffffff90 34 6e 20 ffffff80 34 6e 00 ffffff90 35 6f 12 ffffff80 2d 6f 0d   .4n .4n..5o..-o.
ffffff80 35 6f 00 ffffff90 2d 6e 0c ffffff80 2d 6e 14 ffffff90 2d 6c 21   .5o..-n..-n..-l!
ffffff90 39 75 18 ffffff80 2d 75 08 ffffff90 2d 6f 03 ffffff80 39 6f 07   .9u..-u..-o..9o.
ffffff80 2d 6f 16 ffffff90 2d 6c 1f ffffff90 37 6e 09 ffffff80 2d 6e 17   .-o..-l..7n..-n.
ffffff80 37 6e 00 ffffff90 2d 72 0a ffffff80 2d 72 16 ffffff90 2d 73 12   .7n..-r..-r..-s.
ffffff80 2d 73 0d ffffff90 45 70 11 ffffff80 45 70 00 ffffff90 41 69 0f   .-s..Ep..Ep..Ai.
ffffff80 41 69 00 ffffff90 40 70 11 ffffff80 40 70 00 ffffff90 45 67 0f   .Ai..@p..@p..Eg.
ffffff80 45 67 00 ffffff90 40 6f 10 ffffff80 40 6f 00 ffffff90 3c 66 0f   .Eg..@o..@o..<f.
ffffff80 3c 66 00 ffffff90 40 71 11 ffffff80 40 71 00 ffffff90 45 67 0f   .<f..@q..@q..Eg.
ffffff80 45 67 00 ffffff90 48 6f 11 ffffff80 48 6f 00 ffffff90 45 65 10   .Eg..Ho..Ho..Ee.
ffffff80 45 65 00 ffffff90 40 70 0f ffffff80 40 70 00 ffffff90 45 67 11   .Ee..@p..@p..Eg.
ffffff80 45 67 00 ffffff90 40 6e 0f ffffff80 40 6e 00 ffffff90 45 64 11   .Eg..@n..@n..Ed.
ffffff80 45 64 00 ffffff90 40 71 0f ffffff80 40 71 00 ffffff90 3c 67 10   .Ed..@q..@q..<g.
ffffff80 3c 67 00 ffffff90 28 6c 09 ffffff80 28 6c 17 ffffff90 28 72 20   .<g..(l..(l..(r 
ffffff90 34 72 05 ffffff80 28 72 1a ffffff80 34 72 00 ffffff90 28 6e 0a   .4r..(r..4r..(n.
ffffff80 28 6e 16 ffffff90 28 6e 20 ffffff90 32 6f 05 ffffff80 28 6f 17   .(n..(n .2o..(o.
ffffff80 32 6f 03 ffffff90 28 68 0c ffffff80 28 68 14 ffffff90 28 6f 21   .2o..(h..(h..(o!
ffffff90 30 74 00 ffffff80 28 74 1e ffffff80 30 74 02 ffffff90 28 6c 0a   .0t..(t..0t..(l.
ffffff80 28 6c 16 ffffff90 28 6e 1f ffffff90 2e 6e 02 ffffff80 28 6e 1c   .(l..(n...n..(n.
ffffff80 2e 6e 02 ffffff90 28 6e 0d ffffff80 28 6e 13 ffffff90 28 6f 1f   ..n..(n..(n..(o.
ffffff90 2f 6e 1e ffffff80 2f 6e 02 ffffff90 30 75 16 ffffff80 28 75 06   ./n../n..0u..(u.
ffffff80 30 75 04 ffffff90 28 6f 06 ffffff80 28 6f 19 ffffff90 28 6f 20   .0u..(o..(o..(o 
ffffff90 34 72 07 ffffff80 28 72 17 ffffff80 34 72 03 ffffff90 28 6a 0a   .4r..(r..4r..(j.
ffffff80 28 6a 16 ffffff90 28 6c 20 ffffff90 32 6a 03 ffffff80 28 6a 1b   .(j..(l .2j..(j.
ffffff80 32 6a 01 ffffff90 28 72 0a ffffff80 28 72 16 ffffff90 28 6a 20   .2j..(r..(r..(j 
ffffff90 30 75 01 ffffff80 28 75 19 ffffff80 30 75 05 ffffff90 28 6f 0c   .0u..(u..0u..(o.
ffffff80 28 6f 14 ffffff90 28 72 20 ffffff90 2e 72 0d ffffffe0 00 3e 02   .(o..(r ..r...>.
ffffffe0 00 40 01 ffffffe0 00 41 02 ffffffe0 00 44 02 ffffffe0 00 46 01   ..@...A...D...F.
ffffffe0 00 47 02 ffffffe0 00 4c 02 ffffffe0 00 4f 01 ffffffe0 00 4c 02   ..G...L...O...L.
ffffffe0 00 46 11 ffffffe0 00 43 01 ffffffe0 00 45 02 ffffffe0 00 43 02   ..F...C...E...C.
ffffffe0 00 48 03 ffffffe0 00 49 02 ffffffe0 00 4b 01 ffffffe0 00 50 04   ..H...I...K...P.
ffffffe0 00 4f 01 ffffffe0 00 4a 02 ffffffe0 00 41 14 ffffffe0 00 43 02   ..O...J...A...C.
ffffffe0 00 47 01 ffffffe0 00 4a 04 ffffffe0 00 4c 01 ffffffe0 00 4f 02   ..G...J...L...O.
ffffffe0 00 4c 02 ffffffe0 00 4a 01 ffffffe0 00 43 02 ffffffe0 00 40 14   ..L...J...C...@.
ffffffe0 00 46 02 ffffffe0 00 48 01 ffffffe0 00 4b 02 ffffffe0 00 4d 02   ..F...H...K...M.
ffffffe0 00 4e 01 ffffffe0 00 4c 02 ffffffe0 00 4d 03 ffffffe0 00 44 02   ..N...L...M...D.
ffffffe0 00 40 14 ffffffe0 00 44 02 ffffffe0 00 48 00 ffffff80 28 72 00   ..@...D...H..(r.
ffffffe0 00 49 03 ffffffe0 00 4a 02 ffffffe0 00 4b 00 ffffff90 28 6c 00   ..I...J...K..(l.
ffffffe0 00 40 05 ffffff80 2e 6c 05 ffffff80 28 6c 15 ffffff90 28 6b 20   ..@...l..(l..(k 
ffffff90 34 71 0d ffffff80 28 71 11 ffffff80 34 71 02 ffffff90 28 69 0a   .4q..(q..4q..(i.
ffffff80 28 69 15 ffffff90 28 6f 20 ffffff90 32 6e 05 ffffff80 28 6e 1b   .(i..(o .2n..(n.
ffffff90 28 6f 01 ffffff80 32 6f 0c ffffff80 28 6f 12 ffffff90 28 72 20   .(o..2o..(o..(r 
ffffff90 30 76 03 ffffff80 28 76 1d ffffff80 30 76 01 ffffff90 28 6a 0a   .0v..(v..0v..(j.
ffffff80 28 6a 16 ffffff90 28 6c 20 ffffff90 2e 73 01 ffffff80 28 73 1e   .(j..(l ..s..(s.
ffffff90 28 6f 04 ffffff80 2e 6f 06 ffffff80 28 6f 16 ffffff90 28 6f 20   .(o...o..(o..(o 
ffffff90 2f 6e 1f ffffff80 2f 6e 00 ffffff90 30 6f 13 ffffff80 28 6f 0d   ./n../n..0o..(o.
ffffff80 30 6f 00 ffffff90 28 6e 0c ffffff80 28 6e 14 ffffff90 28 6c 1f   .0o..(n..(n..(l.
ffffff90 34 75 19 ffffff80 28 75 07 ffffff90 28 6f 05 ffffff80 34 6f 07   .4u..(u..(o..4o.
ffffff80 28 6f 15 ffffff90 28 6c 20 ffffff90 32 6e 08 ffffff80 28 6e 18   .(o..(l .2n..(n.
ffffff80 32 6e 00 ffffff90 28 72 08 ffffff80 28 72 17 ffffff90 28 73 20   .2n..(r..(r..(s 
ffffff80 28 73 00 ffffff90 30 75 20 ffffff90 28 6f 0b ffffff80 28 6f 05   .(s..0u .(o..(o.
ffffff80 30 6f 0f ffffff90 28 72 20 ffffff90 2e 72 0d ffffffe0 00 3e 02   .0o..(r ..r...>.
ffffffe0 00 40 02 ffffffe0 00 41 01 ffffffe0 00 44 02 ffffffe0 00 46 02   ..@...A...D...F.
ffffffe0 00 47 01 ffffffe0 00 4c 02 ffffffe0 00 4f 02 ffffffe0 00 4c 01   ..G...L...O...L.
ffffffe0 00 46 11 ffffffe0 00 43 02 ffffffe0 00 45 01 ffffffe0 00 43 02   ..F...C...E...C.
ffffffe0 00 48 02 ffffffe0 00 49 01 ffffffe0 00 4a 02 ffffffe0 00 4b 02   ..H...I...J...K.
ffffffe0 00 50 03 ffffffe0 00 4f 02 ffffffe0 00 4a 01 ffffffe0 00 41 14   ..P...O...J...A.
ffffffe0 00 43 02 ffffffe0 00 47 02 ffffffe0 00 4a 03 ffffffe0 00 4c 02   ..C...G...J...L.
ffffffe0 00 4f 01 ffffffe0 00 4c 02 ffffffe0 00 4a 02 ffffffe0 00 43 01   ..O...L...J...C.
ffffffe0 00 40 14 ffffffe0 00 46 02 ffffffe0 00 49 02 ffffffe0 00 4b 01   ..@...F...I...K.
ffffffe0 00 4d 02 ffffffe0 00 4e 02 ffffffe0 00 4c 01 ffffffe0 00 4d 04   ..M...N...L...M.
ffffffe0 00 44 01 ffffffe0 00 40 14 ffffffe0 00 44 02 ffffffe0 00 48 00   ..D...@...D...H.
ffffff80 28 72 00 ffffffe0 00 49 03 ffffffe0 00 4a 02 ffffffe0 00 4b 00   .(r...I...J...K.
ffffff80 2e 72 00 ffffff90 31 6c 00 ffffffe0 00 40 08 ffffff80 31 6c 18   ..r..1l...@..1l.
ffffff90 31 72 1f ffffff90 3d 72 04 ffffff80 31 72 1a ffffff80 3d 72 02   .1r..=r..1r..=r.
ffffff90 31 6e 0a ffffff80 31 6e 16 ffffff90 31 6e 1f ffffff90 3b 6f 05   .1n..1n..1n..;o.
ffffff80 31 6f 18 ffffff80 3b 6f 03 ffffff90 31 68 0c ffffff80 31 68 14   .1o..;o..1h..1h.
ffffff90 31 6f 1f ffffff90 39 74 02 ffffff80 31 74 1e ffffff80 39 74 00   .1o..9t..1t..9t.
ffffff90 31 6c 0c ffffff80 31 6c 15 ffffff90 31 6e 20 ffffff90 37 6e 02   .1l..1l..1n .7n.
ffffff80 31 6e 1c ffffff80 37 6e 02 ffffff90 31 6e 0d ffffff80 31 6e 12   .1n..7n..1n..1n.
ffffff90 31 6f 20 ffffff90 38 6e 1e ffffff80 38 6e 02 ffffff90 39 75 15   .1o .8n..8n..9u.
ffffff80 31 75 07 ffffff80 39 75 03 ffffff90 2f 6f 07 ffffff80 2f 6f 19   .1u..9u../o../o.
ffffff90 2f 6f 20 ffffff90 3b 72 06 ffffff80 2f 72 18 ffffff80 3b 72 01   ./o .;r../r..;r.
ffffff90 2f 6a 0a ffffff80 2f 6a 16 ffffff90 2f 6c 21 ffffff90 39 6a 04   ./j../j../l!.9j.
ffffff80 2f 6a 1a ffffff80 39 6a 02 ffffff90 2f 72 0a ffffff80 2f 72 16   ./j..9j../r../r.
ffffff90 2f 6a 1f ffffff90 37 75 02 ffffff80 2f 75 19 ffffff80 37 75 05   ./j..7u../u..7u.
ffffff90 2e 6f 0f ffffff80 2e 6f 11 ffffff90 2d 72 1f ffffff90 35 72 0e   ..o...o..-r..5r.
ffffffe0 00 3e 01 ffffffe0 00 40 02 ffffffe0 00 41 02 ffffffe0 00 44 01   ..>...@...A...D.
ffffffe0 00 46 02 ffffffe0 00 4a 02 ffffffe0 00 4c 01 ffffffe0 00 4e 02   ..F...J...L...N.
ffffffe0 00 4b 02 ffffffe0 00 42 10 ffffffe0 00 43 02 ffffffe0 00 45 02   ..K...B...C...E.
ffffffe0 00 43 01 ffffffe0 00 48 02 ffffffe0 00 49 02 ffffffe0 00 4a 01   ..C...H...I...J.
ffffffe0 00 4b 02 ffffffe0 00 50 03 ffffffe0 00 4f 02 ffffffe0 00 4a 02   ..K...P...O...J.
ffffffe0 00 41 12 ffffffe0 00 43 02 ffffffe0 00 46 01 ffffffe0 00 47 02   ..A...C...F...G.
ffffffe0 00 4a 03 ffffffe0 00 4c 02 ffffffe0 00 4f 02 ffffffe0 00 4c 01   ..J...L...O...L.
ffffffe0 00 47 02 ffffffe0 00 43 02 ffffffe0 00 40 14 ffffffe0 00 46 01   ..G...C...@...F.
ffffffe0 00 49 02 ffffffe0 00 4b 02 ffffffe0 00 4d 01 ffffffe0 00 4e 02   ..I...K...M...N.
ffffffe0 00 4c 02 ffffffe0 00 4d 03 ffffffe0 00 44 02 ffffffe0 00 40 14   ..L...M...D...@.
ffffffe0 00 44 01 ffffffe0 00 48 00 ffffff80 2d 72 00 ffffffe0 00 49 04   ..D...H..-r...I.
ffffffe0 00 4a 01 ffffffe0 00 4b 00 ffffff90 28 6c 00 ffffffe0 00 40 05   ..J...K..(l...@.
ffffff80 35 6c 05 ffffff80 28 6c 16 ffffff90 28 6b 20 ffffff90 34 71 0d   .5l..(l..(k .4q.
ffffff80 28 71 11 ffffff80 34 71 01 ffffff90 28 69 0a ffffff80 28 69 16   .(q..4q..(i..(i.
ffffff90 28 6f 20 ffffff90 32 6e 05 ffffff80 28 6e 1a ffffff90 28 6f 00   .(o .2n..(n..(o.
ffffff80 32 6f 0e ffffff80 28 6f 12 ffffff90 28 72 20 ffffff90 30 76 03   .2o..(o..(r .0v.
ffffff80 28 76 1c ffffff80 30 76 00 ffffff90 28 6a 0c ffffff80 28 6a 14   .(v..0v..(j..(j.
ffffff90 28 6c 21 ffffff90 2e 73 02 ffffff80 28 73 1e ffffff90 28 6f 03   .(l!..s..(s..(o.
ffffff80 2e 6f 07 ffffff80 28 6f 16 ffffff90 28 6f 1f ffffff90 2f 6e 20   ..o..(o..(o../n 
ffffff80 2f 6e 00 ffffff90 30 6f 12 ffffff80 28 6f 0c ffffff80 30 6f 02   ./n..0o..(o..0o.
ffffff90 28 6e 0b ffffff80 28 6e 14 ffffff90 28 6c 20 ffffff90 34 75 17   .(n..(n..(l .4u.
ffffff80 28 75 09 ffffff90 28 6f 05 ffffff80 34 6f 06 ffffff80 28 6f 14   .(u..(o..4o..(o.
ffffff90 28 6c 20 ffffff90 32 6e 08 ffffff80 28 6e 19 ffffff80 32 6e 00   .(l .2n..(n..2n.
ffffff90 28 72 09 ffffff80 28 72 17 ffffff90 28 73 20 ffffff80 28 73 00   .(r..(r..(s .(s.
ffffff90 47 70 0f ffffff80 47 70 00 ffffff90 45 69 10 ffffff80 45 69 00   .Gp..Gp..Ei..Ei.
ffffff90 42 70 0f ffffff80 42 70 00 ffffff90 3f 67 11 ffffff80 3f 67 00   .Bp..Bp..?g..?g.
ffffff90 3b 6f 0f ffffff80 3b 6f 00 ffffff90 39 66 11 ffffff80 39 66 00   .;o..;o..9f..9f.
ffffff90 36 71 10 ffffff80 36 71 00 ffffff90 33 67 0f ffffff80 33 67 00   .6q..6q..3g..3g.
ffffff90 4b 6f 11 ffffff80 4b 6f 00 ffffff90 49 65 0f ffffff80 49 65 00   .Ko..Ko..Ie..Ie.
ffffff90 47 70 11 ffffff80 47 70 00 ffffff90 45 67 0f ffffff80 45 67 00   .Gp..Gp..Eg..Eg.
ffffff90 42 6e 10 ffffff80 42 6e 00 ffffff90 3f 64 0f ffffff80 3f 64 00   .Bn..Bn..?d..?d.
ffffff90 3b 71 11 ffffff80 3b 71 00 ffffff90 39 67 0f ffffff80 39 67 00   .;q..;q..9g..9g.
ffffffff 2f 00 4d 54 72 6b 00 00 20 07 00 ffffffc1 1d 00 ffffffb1   ./.MTrk.. ......
07 64 00 ffffffb1 0a 68 00 ffffffb1 07 64 00 ffffffb1 0a 68 00 ffffff91   .d...h...d...h..
28 6c 0a ffffff81 28 6c 15 ffffff91 28 72 20 ffffff91 34 72 05 ffffff81   (l..(l..(r .4r..
28 72 1b ffffff81 34 72 01 ffffff91 28 6e 0a ffffff81 28 6e 16 ffffff91   (r..4r..(n..(n..
28 6e 20 ffffff91 32 6f 03 ffffff81 28 6f 19 ffffff81 32 6f 03 ffffff91   (n .2o..(o..2o..
28 68 0a ffffff81 28 68 16 ffffff91 28 6f 20 ffffff91 30 74 00 ffffff81   (h..(h..(o .0t..
28 74 1e ffffff81 30 74 01 ffffff91 28 6c 0a ffffff81 28 6c 16 ffffff91   (t..0t..(l..(l..
28 6e 20 ffffff91 2e 6e 03 ffffff81 28 6e 1c ffffff81 2e 6e 00 ffffff91   (n ..n..(n...n..
28 6e 0e ffffff81 28 6e 12 ffffff91 28 6f 21 ffffff91 2f 6e 1e ffffff81   (n..(n..(o!./n..
2f 6e 02 ffffff91 30 75 16 ffffff81 28 75 06 ffffff81 30 75 04 ffffff91   /n..0u..(u..0u..
28 6f 06 ffffff81 28 6f 19 ffffff91 28 6f 20 ffffff91 34 72 07 ffffff81   (o..(o..(o .4r..
28 72 15 ffffff81 34 72 04 ffffff91 28 6a 0a ffffff81 28 6a 15 ffffff91   (r..4r..(j..(j..
28 6c 20 ffffff91 32 6a 05 ffffff81 28 6a 1b ffffff81 32 6a 00 ffffff91   (l .2j..(j..2j..
28 72 0a ffffff81 28 72 15 ffffff91 28 6a 20 ffffff81 28 6a 00 ffffff91   (r..(r..(j .(j..
30 75 1b ffffff81 30 75 06 ffffff91 28 6f 0c ffffff81 28 6f 14 ffffff91   0u..0u..(o..(o..
28 72 20 ffffff91 2e 72 0b ffffffe1 00 3e 02 ffffffe1 00 40 02 ffffffe1   (r ..r...>...@..
00 41 01 ffffffe1 00 44 02 ffffffe1 00 47 02 ffffffe1 00 4b 01 ffffffe1   .A...D...G...K..
00 4c 02 ffffffe1 00 4e 02 ffffffe1 00 4b 01 ffffffe1 00 42 11 ffffffe1   .L...N...K...B..
00 43 02 ffffffe1 00 45 01 ffffffe1 00 44 02 ffffffe1 00 4b 02 ffffffe1   .C...E...D...K..
00 49 01 ffffffe1 00 4a 02 ffffffe1 00 4b 02 ffffffe1 00 50 03 ffffffe1   .I...J...K...P..
00 4f 02 ffffffe1 00 47 01 ffffffe1 00 40 13 ffffffe1 00 41 01 ffffffe1   .O...G...@...A..
00 46 02 ffffffe1 00 49 02 ffffffe1 00 48 01 ffffffe1 00 4a 02 ffffffe1   .F...I...H...J..
00 4c 02 ffffffe1 00 50 01 ffffffe1 00 4f 02 ffffffe1 00 47 02 ffffffe1   .L...P...O...G..
00 43 01 ffffffe1 00 40 14 ffffffe1 00 46 02 ffffffe1 00 49 02 ffffffe1   .C...@...F...I..
00 4b 01 ffffffe1 00 4d 02 ffffffe1 00 4e 02 ffffffe1 00 4c 01 ffffffe1   .K...M...N...L..
00 4d 04 ffffffe1 00 44 01 ffffffe1 00 40 14 ffffffe1 00 44 02 ffffffe1   .M...D...@...D..
00 48 02 ffffffe1 00 49 00 ffffff81 28 72 00 ffffffe1 00 4a 01 ffffffe1   .H...I..(r...J..
00 4c 02 ffffffe1 00 40 00 ffffff91 28 6c 05 ffffff81 2e 6c 07 ffffff81   .L...@..(l...l..
28 6c 14 ffffff91 28 6b 1f ffffff91 34 71 0f ffffff81 28 71 11 ffffff81   (l..(k..4q..(q..
34 71 00 ffffff91 28 69 0c ffffff81 28 69 15 ffffff91 28 6f 20 ffffff91   4q..(i..(i..(o .
32 6e 05 ffffff81 28 6e 1b ffffff91 28 6f 00 ffffff81 32 6f 0d ffffff81   2n..(n..(o..2o..
28 6f 12 ffffff91 28 72 20 ffffff91 30 76 02 ffffff81 28 76 1c ffffff81   (o..(r .0v..(v..
30 76 02 ffffff91 28 6a 0a ffffff81 28 6a 15 ffffff91 28 6c 20 ffffff91   0v..(j..(j..(l .
2e 73 02 ffffff81 28 73 1e ffffff91 28 6f 05 ffffff81 2e 6f 05 ffffff81   .s..(s..(o...o..
28 6f 15 ffffff91 28 6f 20 ffffff91 2f 6e 20 ffffff81 2f 6e 01 ffffff91   (o..(o ./n ./n..
30 6f 11 ffffff81 28 6f 0d ffffff81 30 6f 02 ffffff91 28 6e 0a ffffff81   0o..(o..0o..(n..
28 6e 16 ffffff91 28 6c 1f ffffff91 34 75 18 ffffff81 28 75 08 ffffff91   (n..(l..4u..(u..
28 6f 03 ffffff81 34 6f 09 ffffff81 28 6f 14 ffffff91 28 6c 1f ffffff91   (o..4o..(o..(l..
32 6e 09 ffffff81 28 6e 17 ffffff81 32 6e 00 ffffff91 28 72 0a ffffff81   2n..(n..2n..(r..
28 72 16 ffffff91 28 73 1f ffffff81 28 73 00 ffffff91 30 75 20 ffffff91   (r..(s..(s..0u .
28 6f 0c ffffff81 28 6f 05 ffffff81 30 6f 10 ffffff91 28 72 20 ffffff91   (o..(o..0o..(r .
2e 72 0c ffffffe1 00 3e 03 ffffffe1 00 41 02 ffffffe1 00 44 01 ffffffe1   .r...>...A...D..
00 47 02 ffffffe1 00 4b 02 ffffffe1 00 4c 01 ffffffe1 00 4e 02 ffffffe1   .G...K...L...N..
00 4b 02 ffffffe1 00 42 10 ffffffe1 00 43 02 ffffffe1 00 45 02 ffffffe1   .K...B...C...E..
00 44 01 ffffffe1 00 4b 02 ffffffe1 00 49 02 ffffffe1 00 4a 03 ffffffe1   .D...K...I...J..
00 50 02 ffffffe1 00 4f 01 ffffffe1 00 4c 02 ffffffe1 00 47 02 ffffffe1   .P...O...L...G..
00 40 12 ffffffe1 00 41 02 ffffffe1 00 46 01 ffffffe1 00 49 02 ffffffe1   .@...A...F...I..
00 48 02 ffffffe1 00 4a 01 ffffffe1 00 4c 02 ffffffe1 00 50 02 ffffffe1   .H...J...L...P..
00 4f 01 ffffffe1 00 47 02 ffffffe1 00 43 02 ffffffe1 00 40 14 ffffffe1   .O...G...C...@..
00 46 01 ffffffe1 00 49 02 ffffffe1 00 4b 02 ffffffe1 00 4f 01 ffffffe1   .F...I...K...O..
00 4e 02 ffffffe1 00 4d 05 ffffffe1 00 44 02 ffffffe1 00 40 14 ffffffe1   .N...M...D...@..
00 44 01 ffffffe1 00 48 02 ffffffe1 00 49 00 ffffff81 28 72 00 ffffffe1   .D...H...I..(r..
00 4a 02 ffffffe1 00 4c 01 ffffffe1 00 40 00 ffffff81 2e 72 00 ffffff91   .J...L...@...r..
28 6c 09 ffffff81 28 6c 17 ffffff91 28 72 20 ffffff91 34 72 05 ffffff81   (l..(l..(r .4r..
28 72 1a ffffff81 34 72 00 ffffff91 28 6e 0a ffffff81 28 6e 16 ffffff91   (r..4r..(n..(n..
28 6e 21 ffffff91 32 6f 04 ffffff81 28 6f 19 ffffff81 32 6f 03 ffffff91   (n!.2o..(o..2o..
28 68 0a ffffff81 28 68 16 ffffff91 28 6f 1f ffffff91 30 74 00 ffffff81   (h..(h..(o..0t..
28 74 1e ffffff81 30 74 02 ffffff91 28 6c 0a ffffff81 28 6c 16 ffffff91   (t..0t..(l..(l..
28 6e 1f ffffff91 2e 6e 04 ffffff81 28 6e 1a ffffff81 2e 6e 02 ffffff91   (n...n..(n...n..
28 6e 0d ffffff81 28 6e 13 ffffff91 28 6f 1f ffffff91 2f 6e 20 ffffff81   (n..(n..(o../n .
2f 6e 00 ffffff91 30 75 16 ffffff81 28 75 06 ffffff81 30 75 05 ffffff91   /n..0u..(u..0u..
28 6f 05 ffffff81 28 6f 1b ffffff91 28 6f 20 ffffff91 34 72 06 ffffff81   (o..(o..(o .4r..
28 72 16 ffffff81 34 72 03 ffffff91 28 6a 0a ffffff81 28 6a 16 ffffff91   (r..4r..(j..(j..
28 6c 20 ffffff91 32 6a 05 ffffff81 28 6a 1a ffffff81 32 6a 00 ffffff91   (l .2j..(j..2j..
28 72 0a ffffff81 28 72 16 ffffff91 28 6a 20 ffffff91 30 75 01 ffffff81   (r..(r..(j .0u..
28 75 19 ffffff81 30 75 05 ffffff91 28 6f 0c ffffff81 28 6f 14 ffffff91   (u..0u..(o..(o..
28 72 21 ffffff91 2e 72 0c ffffffe1 00 3e 03 ffffffe1 00 41 02 ffffffe1   (r!..r...>...A..
00 44 02 ffffffe1 00 47 01 ffffffe1 00 4b 02 ffffffe1 00 4d 02 ffffffe1   .D...G...K...M..
00 4c 01 ffffffe1 00 46 02 ffffffe1 00 40 11 ffffffe1 00 43 03 ffffffe1   .L...F...@...C..
00 44 02 ffffffe1 00 4b 01 ffffffe1 00 49 02 ffffffe1 00 4a 03 ffffffe1   .D...K...I...J..
00 50 02 ffffffe1 00 4f 02 ffffffe1 00 4c 01 ffffffe1 00 47 02 ffffffe1   .P...O...L...G..
00 40 12 ffffffe1 00 41 02 ffffffe1 00 46 02 ffffffe1 00 49 01 ffffffe1   .@...A...F...I..
00 48 02 ffffffe1 00 4a 02 ffffffe1 00 4c 01 ffffffe1 00 50 02 ffffffe1   .H...J...L...P..
00 4c 02 ffffffe1 00 46 01 ffffffe1 00 41 16 ffffffe1 00 46 02 ffffffe1   .L...F...A...F..
00 49 01 ffffffe1 00 4b 02 ffffffe1 00 4f 02 ffffffe1 00 4e 01 ffffffe1   .I...K...O...N..
00 4d 05 ffffffe1 00 44 02 ffffffe1 00 40 12 ffffffe1 00 44 02 ffffffe1   .M...D...@...D..
00 45 02 ffffffe1 00 49 01 ffffff81 28 72 00 ffffffe1 00 4a 02 ffffffe1   .E...I..(r...J..
00 4c 02 ffffffe1 00 40 00 ffffff91 28 6c 05 ffffff81 2e 6c 06 ffffff81   .L...@..(l...l..
28 6c 14 ffffff91 28 6b 20 ffffff91 34 71 0f ffffff81 28 71 11 ffffff81   (l..(k .4q..(q..
34 71 00 ffffff91 28 69 0b ffffff81 28 69 14 ffffff91 28 6f 20 ffffff91   4q..(i..(i..(o .
32 6e 05 ffffff81 28 6e 1c ffffff91 28 6f 00 ffffff81 32 6f 0c ffffff81   2n..(n..(o..2o..
28 6f 14 ffffff91 28 72 20 ffffff91 30 76 01 ffffff81 28 76 1d ffffff81   (o..(r .0v..(v..
30 76 01 ffffff91 28 6a 0a ffffff81 28 6a 16 ffffff91 28 6c 20 ffffff91   0v..(j..(j..(l .
2e 73 01 ffffff81 28 73 1e ffffff91 28 6f 04 ffffff81 2e 6f 06 ffffff81   .s..(s..(o...o..
28 6f 16 ffffff91 28 6f 20 ffffff91 2f 6e 1f ffffff81 2f 6e 00 ffffff91   (o..(o ./n../n..
30 6f 13 ffffff81 28 6f 0d ffffff81 30 6f 00 ffffff91 28 6e 0c ffffff81   0o..(o..0o..(n..
28 6e 15 ffffff91 28 6c 20 ffffff91 34 75 17 ffffff81 28 75 09 ffffff91   (n..(l .4u..(u..
28 6f 03 ffffff81 34 6f 08 ffffff81 28 6f 14 ffffff91 28 6c 20 ffffff91   (o..4o..(o..(l .
32 6e 08 ffffff81 28 6e 18 ffffff81 32 6e 00 ffffff91 28 72 0a ffffff81   2n..(n..2n..(r..
28 72 15 ffffff91 28 73 13 ffffff81 28 73 0d ffffff91 42 70 11 ffffff81   (r..(s..(s..Bp..
42 70 00 ffffff91 40 69 0f ffffff81 40 69 00 ffffff91 3f 70 10 ffffff81   Bp..@i..@i..?p..
3f 70 00 ffffff91 42 67 0f ffffff81 42 67 00 ffffff91 45 6f 11 ffffff81   ?p..Bg..Bg..Eo..
45 6f 00 ffffff91 43 66 0f ffffff81 43 66 00 ffffff91 42 71 11 ffffff81   Eo..Cf..Cf..Bq..
42 71 00 ffffff91 3f 67 10 ffffff81 3f 67 00 ffffff91 42 6f 0f ffffff81   Bq..?g..?g..Bo..
42 6f 00 ffffff91 43 65 11 ffffff81 43 65 00 ffffff91 45 70 0f ffffff81   Bo..Ce..Ce..Ep..
45 70 00 ffffff91 47 67 11 ffffff81 47 67 00 ffffff91 45 6e 0f ffffff81   Ep..Gg..Gg..En..
45 6e 00 ffffff91 43 64 10 ffffff81 43 64 00 ffffff91 42 71 0f ffffff81   En..Cd..Cd..Bq..
42 71 00 ffffff91 3f 67 11 ffffff81 3f 67 00 ffffff91 28 6c 08 ffffff81   Bq..?g..?g..(l..
28 6c 18 ffffff91 28 72 1f ffffff91 34 72 05 ffffff81 28 72 1b ffffff81   (l..(r..4r..(r..
34 72 00 ffffff91 28 6e 0a ffffff81 28 6e 16 ffffff91 28 6e 1f ffffff91   4r..(n..(n..(n..
32 6f 05 ffffff81 28 6f 18 ffffff81 32 6f 03 ffffff91 28 68 0c ffffff81   2o..(o..2o..(h..
28 68 15 ffffff91 28 6f 20 ffffff91 30 74 00 ffffff81 28 74 1e ffffff81   (h..(o .0t..(t..
30 74 02 ffffff91 28 6c 0a ffffff81 28 6c 15 ffffff91 28 6e 20 ffffff91   0t..(l..(l..(n .
2e 6e 02 ffffff81 28 6e 1c ffffff81 2e 6e 02 ffffff91 28 6e 0d ffffff81   .n..(n...n..(n..
28 6e 12 ffffff91 28 6f 20 ffffff91 2f 6e 1e ffffff81 2f 6e 02 ffffff91   (n..(o ./n../n..
30 75 15 ffffff81 28 75 07 ffffff81 30 75 03 ffffff91 28 6f 07 ffffff81   0u..(u..0u..(o..
28 6f 19 ffffff91 28 6f 21 ffffff91 34 72 07 ffffff81 28 72 16 ffffff81   (o..(o!.4r..(r..
34 72 03 ffffff91 28 6a 0a ffffff81 28 6a 16 ffffff91 28 6c 1f ffffff91   4r..(j..(j..(l..
32 6a 04 ffffff81 28 6a 1c ffffff81 32 6a 00 ffffff91 28 72 0a ffffff81   2j..(j..2j..(r..
28 72 16 ffffff91 28 6a 1f ffffff91 30 75 02 ffffff81 28 75 19 ffffff81   (r..(j..0u..(u..
30 75 05 ffffff91 28 6f 0c ffffff81 28 6f 14 ffffff91 28 72 1f ffffff91   0u..(o..(o..(r..
2e 72 0c ffffffe1 00 3e 02 ffffffe1 00 3d 03 ffffffe1 00 41 02 ffffffe1   .r...>...=...A..
00 44 01 ffffffe1 00 47 02 ffffffe1 00 4b 02 ffffffe1 00 4d 01 ffffffe1   .D...G...K...M..
00 4c 02 ffffffe1 00 46 02 ffffffe1 00 40 10 ffffffe1 00 43 04 ffffffe1   .L...F...@...C..
00 44 01 ffffffe1 00 48 02 ffffffe1 00 49 02 ffffffe1 00 4b 03 ffffffe1   .D...H...I...K..
00 50 02 ffffffe1 00 4f 01 ffffffe1 00 4c 02 ffffffe1 00 43 14 ffffffe1   .P...O...L...C..
00 41 02 ffffffe1 00 46 01 ffffffe1 00 49 02 ffffffe1 00 48 02 ffffffe1   .A...F...I...H..
00 4a 01 ffffffe1 00 4f 02 ffffffe1 00 4c 02 ffffffe1 00 4a 01 ffffffe1   .J...O...L...J..
00 46 02 ffffffe1 00 41 14 ffffffe1 00 46 02 ffffffe1 00 48 03 ffffffe1   .F...A...F...H..
00 4b 02 ffffffe1 00 4f 01 ffffffe1 00 4e 02 ffffffe1 00 4d 03 ffffffe1   .K...O...N...M..
00 44 02 ffffffe1 00 41 14 ffffffe1 00 44 02 ffffffe1 00 45 01 ffffffe1   .D...A...D...E..
00 49 00 ffffff81 28 72 02 ffffffe1 00 4a 02 ffffffe1 00 4b 01 ffffffe1   .I..(r...J...K..
00 40 00 ffffff91 28 6c 05 ffffff81 2e 6c 05 ffffff81 28 6c 16 ffffff91   .@..(l...l..(l..
28 6b 20 ffffff91 34 71 0d ffffff81 28 71 12 ffffff81 34 71 00 ffffff91   (k .4q..(q..4q..
28 69 0a ffffff81 28 69 16 ffffff91 28 6f 20 ffffff91 32 6e 05 ffffff81   (i..(i..(o .2n..
28 6e 1a ffffff91 28 6f 02 ffffff81 32 6f 0c ffffff81 28 6f 12 ffffff91   (n..(o..2o..(o..
28 72 21 ffffff91 30 76 02 ffffff81 28 76 1c ffffff81 30 76 02 ffffff91   (r!.0v..(v..0v..
28 6a 0a ffffff81 28 6a 16 ffffff91 28 6c 1f ffffff91 2e 73 02 ffffff81   (j..(j..(l...s..
28 73 1e ffffff91 28 6f 03 ffffff81 2e 6f 07 ffffff81 28 6f 16 ffffff91   (s..(o...o..(o..
28 6f 1f ffffff91 2f 6e 20 ffffff81 2f 6e 00 ffffff91 30 6f 12 ffffff81   (o../n ./n..0o..
28 6f 0e ffffff81 30 6f 00 ffffff91 28 6e 0b ffffff81 28 6e 14 ffffff91   (o..0o..(n..(n..
28 6c 20 ffffff91 34 75 19 ffffff81 28 75 08 ffffff91 28 6f 04 ffffff81   (l .4u..(u..(o..
34 6f 06 ffffff81 28 6f 16 ffffff91 28 6c 20 ffffff91 32 6e 08 ffffff81   4o..(o..(l .2n..
28 6e 17 ffffff81 32 6e 00 ffffff91 28 72 09 ffffff81 28 72 17 ffffff91   (n..2n..(r..(r..
28 73 12 ffffff81 28 73 0e ffffff91 47 70 10 ffffff81 47 70 00 ffffff91   (s..(s..Gp..Gp..
43 69 0f ffffff81 43 69 00 ffffff91 40 70 11 ffffff81 40 70 00 ffffff91   Ci..Ci..@p..@p..
43 67 0f ffffff81 43 67 00 ffffff91 47 6f 11 ffffff81 47 6f 00 ffffff91   Cg..Cg..Go..Go..
43 66 0f ffffff81 43 66 00 ffffff91 47 71 10 ffffff81 47 71 00 ffffff91   Cf..Cf..Gq..Gq..
4c 67 0f ffffff81 4c 67 00 ffffff91 47 6f 11 ffffff81 47 6f 00 ffffff91   Lg..Lg..Go..Go..
43 65 0f ffffff81 43 65 00 ffffff91 47 70 11 ffffff81 47 70 00 ffffff91   Ce..Ce..Gp..Gp..
43 67 10 ffffff81 43 67 00 ffffff91 47 6e 0f ffffff81 47 6e 00 ffffff91   Cg..Cg..Gn..Gn..
4c 64 11 ffffff81 4c 64 00 ffffff91 4f 71 0f ffffff81 4f 71 00 ffffff91   Ld..Ld..Oq..Oq..
53 67 11 ffffff81 53 67 00 ffffff91 2d 6c 08 ffffff81 2d 6c 17 ffffff91   Sg..Sg..-l..-l..
2d 72 20 ffffff91 39 72 05 ffffff81 2d 72 19 ffffff81 39 72 02 ffffff91   -r .9r..-r..9r..
2d 6e 0a ffffff81 2d 6e 15 ffffff91 2d 6e 20 ffffff91 37 6f 05 ffffff81   -n..-n..-n .7o..
2d 6f 17 ffffff81 37 6f 04 ffffff91 2d 68 0b ffffff81 2d 68 14 ffffff91   -o..7o..-h..-h..
2d 6f 20 ffffff91 35 74 02 ffffff81 2d 74 1e ffffff81 35 74 01 ffffff91   -o .5t..-t..5t..
2d 6c 0a ffffff81 2d 6c 16 ffffff91 2d 6e 20 ffffff91 33 6e 01 ffffff81   -l..-l..-n .3n..
2d 6e 1d ffffff81 33 6e 01 ffffff91 2d 6e 0e ffffff81 2d 6e 12 ffffff91   -n..3n..-n..-n..
2d 6f 20 ffffff91 34 6e 1e ffffff81 34 6e 01 ffffff91 35 75 16 ffffff81   -o .4n..4n..5u..
2d 75 07 ffffff81 35 75 03 ffffff91 2d 6f 07 ffffff81 2d 6f 19 ffffff91   -u..5u..-o..-o..
2d 6f 1f ffffff91 39 72 07 ffffff81 2d 72 17 ffffff81 39 72 02 ffffff91   -o..9r..-r..9r..
2d 6a 0a ffffff81 2d 6a 17 ffffff91 2d 6c 20 ffffff91 37 6a 03 ffffff81   -j..-j..-l .7j..
2d 6a 1b ffffff81 37 6a 02 ffffff91 2d 72 0a ffffff81 2d 72 15 ffffff91   -j..7j..-r..-r..
2d 6a 20 ffffff91 35 75 02 ffffff81 2d 75 19 ffffff81 35 75 05 ffffff91   -j .5u..-u..5u..
2d 6f 0b ffffff81 2d 6f 14 ffffff91 2d 72 20 ffffff91 33 72 0c ffffffe1   -o..-o..-r .3r..
00 3e 01 ffffffe1 00 3d 04 ffffffe1 00 41 01 ffffffe1 00 46 02 ffffffe1   .>...=...A...F..
00 47 02 ffffffe1 00 4c 01 ffffffe1 00 4f 02 ffffffe1 00 4c 02 ffffffe1   .G...L...O...L..
00 46 01 ffffffe1 00 40 0f ffffffe1 00 43 02 ffffffe1 00 45 02 ffffffe1   .F...@...C...E..
00 43 01 ffffffe1 00 48 04 ffffffe1 00 49 01 ffffffe1 00 4b 02 ffffffe1   .C...H...I...K..
00 50 03 ffffffe1 00 4f 02 ffffffe1 00 4a 02 ffffffe1 00 41 14 ffffffe1   .P...O...J...A..
00 43 01 ffffffe1 00 46 02 ffffffe1 00 49 02 ffffffe1 00 48 01 ffffffe1   .C...F...I...H..
00 4a 02 ffffffe1 00 4f 02 ffffffe1 00 4c 01 ffffffe1 00 4a 02 ffffffe1   .J...O...L...J..
00 43 02 ffffffe1 00 40 14 ffffffe1 00 46 01 ffffffe1 00 48 04 ffffffe1   .C...@...F...H..
00 4b 01 ffffffe1 00 4f 02 ffffffe1 00 4c 02 ffffffe1 00 4e 03 ffffffe1   .K...O...L...N..
00 44 02 ffffffe1 00 40 14 ffffffe1 00 44 01 ffffffe1 00 48 02 ffffffe1   .D...@...D...H..
00 49 00 ffffff81 2d 72 02 ffffffe1 00 4a 01 ffffffe1 00 4b 02 ffffffe1   .I..-r...J...K..
00 40 00 ffffff91 2d 6c 05 ffffff81 33 6c 05 ffffff81 2d 6c 16 ffffff91   .@..-l..3l..-l..
2d 6b 1f ffffff91 39 71 0e ffffff81 2d 71 10 ffffff81 39 71 02 ffffff91   -k..9q..-q..9q..
2d 69 0a ffffff81 2d 69 16 ffffff91 2d 6f 1f ffffff91 37 6e 05 ffffff81   -i..-i..-o..7n..
2d 6e 1b ffffff91 2d 6f 00 ffffff81 37 6f 0d ffffff81 2d 6f 13 ffffff91   -n..-o..7o..-o..
2d 72 1f ffffff91 35 76 04 ffffff81 2d 76 1c ffffff81 35 76 00 ffffff91   -r..5v..-v..5v..
2d 6a 0c ffffff81 2d 6a 15 ffffff91 2d 6c 20 ffffff91 33 73 02 ffffff81   -j..-j..-l .3s..
2d 73 1e ffffff91 2d 6f 03 ffffff81 33 6f 07 ffffff81 2d 6f 15 ffffff91   -s..-o..3o..-o..
2d 6f 20 ffffff91 34 6e 20 ffffff81 34 6e 00 ffffff91 35 6f 12 ffffff81   -o .4n .4n..5o..
2d 6f 0d ffffff81 35 6f 00 ffffff91 2d 6e 0c ffffff81 2d 6e 14 ffffff91   -o..5o..-n..-n..
2d 6c 20 ffffff91 39 75 17 ffffff81 2d 75 08 ffffff91 2d 6f 05 ffffff81   -l .9u..-u..-o..
39 6f 07 ffffff81 2d 6f 14 ffffff91 2d 6c 21 ffffff91 37 6e 09 ffffff81   9o..-o..-l!.7n..
2d 6e 17 ffffff81 37 6e 00 ffffff91 2d 72 08 ffffff81 2d 72 18 ffffff91   -n..7n..-r..-r..
2d 73 12 ffffff81 2d 73 0d ffffff91 40 70 0f ffffff81 40 70 00 ffffff91   -s..-s..@p..@p..
3e 69 11 ffffff81 3e 69 00 ffffff91 3c 70 0f ffffff81 3c 70 00 ffffff91   >i..>i..<p..<p..
40 67 11 ffffff81 40 67 00 ffffff91 3c 6f 10 ffffff81 3c 6f 00 ffffff91   @g..@g..<o..<o..
39 66 0f ffffff81 39 66 00 ffffff91 3c 71 11 ffffff81 3c 71 00 ffffff91   9f..9f..<q..<q..
40 67 0f ffffff81 40 67 00 ffffff91 45 6f 11 ffffff81 45 6f 00 ffffff91   @g..@g..Eo..Eo..
40 65 0f ffffff81 40 65 00 ffffff91 3c 70 10 ffffff81 3c 70 00 ffffff91   @e..@e..<p..<p..
40 67 0f ffffff81 40 67 00 ffffff91 3c 6e 11 ffffff81 3c 6e 00 ffffff91   @g..@g..<n..<n..
40 64 0f ffffff81 40 64 00 ffffff91 3c 71 11 ffffff81 3c 71 00 ffffff91   @d..@d..<q..<q..
39 67 10 ffffff81 39 67 00 ffffff91 28 6c 09 ffffff81 28 6c 17 ffffff91   9g..9g..(l..(l..
28 72 20 ffffff91 34 72 03 ffffff81 28 72 1b ffffff81 34 72 01 ffffff91   (r .4r..(r..4r..
28 6e 0a ffffff81 28 6e 16 ffffff91 28 6e 20 ffffff91 32 6f 03 ffffff81   (n..(n..(n .2o..
28 6f 19 ffffff81 32 6f 03 ffffff91 28 68 0a ffffff81 28 68 16 ffffff91   (o..2o..(h..(h..
28 6f 20 ffffff91 30 74 00 ffffff81 28 74 1f ffffff81 30 74 00 ffffff91   (o .0t..(t..0t..
28 6c 0c ffffff81 28 6c 14 ffffff91 28 6e 21 ffffff91 2e 6e 02 ffffff81   (l..(l..(n!..n..
28 6e 1c ffffff81 2e 6e 02 ffffff91 28 6e 0d ffffff81 28 6e 13 ffffff91   (n...n..(n..(n..
28 6f 1f ffffff91 2f 6e 1e ffffff81 2f 6e 02 ffffff91 30 75 16 ffffff81   (o../n../n..0u..
28 75 06 ffffff81 30 75 04 ffffff91 28 6f 06 ffffff81 28 6f 19 ffffff91   (u..0u..(o..(o..
28 6f 20 ffffff91 34 72 07 ffffff81 28 72 17 ffffff81 34 72 02 ffffff91   (o .4r..(r..4r..
28 6a 0a ffffff81 28 6a 15 ffffff91 28 6c 20 ffffff91 32 6a 05 ffffff81   (j..(j..(l .2j..
28 6a 1b ffffff81 32 6a 01 ffffff91 28 72 0a ffffff81 28 72 16 ffffff91   (j..2j..(r..(r..
28 6a 20 ffffff91 30 75 01 ffffff81 28 75 19 ffffff81 30 75 05 ffffff91   (j .0u..(u..0u..
28 6f 0c ffffff81 28 6f 14 ffffff91 28 72 20 ffffff91 2e 72 0b ffffffe1   (o..(o..(r ..r..
00 3e 02 ffffffe1 00 40 02 ffffffe1 00 41 01 ffffffe1 00 44 02 ffffffe1   .>...@...A...D..
00 46 02 ffffffe1 00 47 01 ffffffe1 00 4c 02 ffffffe1 00 4f 02 ffffffe1   .F...G...L...O..
00 4c 01 ffffffe1 00 46 11 ffffffe1 00 43 02 ffffffe1 00 45 01 ffffffe1   .L...F...C...E..
00 43 02 ffffffe1 00 48 02 ffffffe1 00 49 01 ffffffe1 00 4a 02 ffffffe1   .C...H...I...J..
00 4b 02 ffffffe1 00 50 03 ffffffe1 00 4f 02 ffffffe1 00 4a 01 ffffffe1   .K...P...O...J..
00 41 14 ffffffe1 00 43 02 ffffffe1 00 47 02 ffffffe1 00 4a 03 ffffffe1   .A...C...G...J..
00 4c 02 ffffffe1 00 4f 01 ffffffe1 00 4c 02 ffffffe1 00 4a 02 ffffffe1   .L...O...L...J..
00 43 01 ffffffe1 00 40 14 ffffffe1 00 46 02 ffffffe1 00 49 02 ffffffe1   .C...@...F...I..
00 4b 01 ffffffe1 00 4d 02 ffffffe1 00 4e 02 ffffffe1 00 4c 01 ffffffe1   .K...M...N...L..
00 4d 04 ffffffe1 00 44 01 ffffffe1 00 40 14 ffffffe1 00 44 02 ffffffe1   .M...D...@...D..
00 48 02 ffffffe1 00 49 00 ffffff81 28 72 01 ffffffe1 00 4a 02 ffffffe1   .H...I..(r...J..
00 40 00 ffffff91 28 6c 05 ffffff81 2e 6c 07 ffffff81 28 6c 15 ffffff91   .@..(l...l..(l..
28 6b 20 ffffff91 34 71 0d ffffff81 28 71 11 ffffff81 34 71 02 ffffff91   (k .4q..(q..4q..
28 69 0a ffffff81 28 69 15 ffffff91 28 6f 20 ffffff91 32 6e 05 ffffff81   (i..(i..(o .2n..
28 6e 1b ffffff91 28 6f 00 ffffff81 32 6f 0d ffffff81 28 6f 12 ffffff91   (n..(o..2o..(o..
28 72 20 ffffff91 30 76 03 ffffff81 28 76 1d ffffff81 30 76 00 ffffff91   (r .0v..(v..0v..
28 6a 0b ffffff81 28 6a 14 ffffff91 28 6c 20 ffffff91 2e 73 02 ffffff81   (j..(j..(l ..s..
28 73 1f ffffff91 28 6f 04 ffffff81 2e 6f 06 ffffff81 28 6f 16 ffffff91   (s..(o...o..(o..
28 6f 20 ffffff91 2f 6e 1f ffffff81 2f 6e 00 ffffff91 30 6f 13 ffffff81   (o ./n../n..0o..
28 6f 0b ffffff81 30 6f 02 ffffff91 28 6e 0a ffffff81 28 6e 16 ffffff91   (o..0o..(n..(n..
28 6c 1f ffffff91 34 75 18 ffffff81 28 75 08 ffffff91 28 6f 05 ffffff81   (l..4u..(u..(o..
34 6f 07 ffffff81 28 6f 14 ffffff91 28 6c 1f ffffff91 32 6e 09 ffffff81   4o..(o..(l..2n..
28 6e 17 ffffff81 32 6e 00 ffffff91 28 72 0a ffffff81 28 72 17 ffffff91   (n..2n..(r..(r..
28 73 20 ffffff81 28 73 00 ffffff91 30 75 20 ffffff91 28 6f 0b ffffff81   (s .(s..0u .(o..
28 6f 04 ffffff81 30 6f 10 ffffff91 28 72 20 ffffff91 2e 72 0c ffffffe1   (o..0o..(r ..r..
00 3e 01 ffffffe1 00 40 02 ffffffe1 00 41 02 ffffffe1 00 44 01 ffffffe1   .>...@...A...D..
00 46 02 ffffffe1 00 4a 02 ffffffe1 00 4c 01 ffffffe1 00 4e 02 ffffffe1   .F...J...L...N..
00 4b 02 ffffffe1 00 42 10 ffffffe1 00 43 02 ffffffe1 00 45 02 ffffffe1   .K...B...C...E..
00 43 01 ffffffe1 00 48 02 ffffffe1 00 49 02 ffffffe1 00 4a 01 ffffffe1   .C...H...I...J..
00 4b 02 ffffffe1 00 50 03 ffffffe1 00 4f 02 ffffffe1 00 4a 02 ffffffe1   .K...P...O...J..
00 41 12 ffffffe1 00 43 02 ffffffe1 00 46 01 ffffffe1 00 47 02 ffffffe1   .A...C...F...G..
00 4a 03 ffffffe1 00 4c 02 ffffffe1 00 4f 02 ffffffe1 00 4c 01 ffffffe1   .J...L...O...L..
00 47 02 ffffffe1 00 43 02 ffffffe1 00 40 14 ffffffe1 00 46 01 ffffffe1   .G...C...@...F..
00 49 02 ffffffe1 00 4b 02 ffffffe1 00 4d 01 ffffffe1 00 4e 02 ffffffe1   .I...K...M...N..
00 4c 02 ffffffe1 00 4d 03 ffffffe1 00 44 02 ffffffe1 00 40 14 ffffffe1   .L...M...D...@..
00 44 01 ffffffe1 00 48 02 ffffffe1 00 49 00 ffffff81 28 72 02 ffffffe1   .D...H...I..(r..
00 4a 01 ffffffe1 00 40 00 ffffff81 2e 72 00 ffffff91 31 6c 0a ffffff81   .J...@...r..1l..
31 6c 16 ffffff91 31 72 21 ffffff91 3d 72 04 ffffff81 31 72 1a ffffff81   1l..1r!.=r..1r..
3d 72 02 ffffff91 31 6e 0a ffffff81 31 6e 16 ffffff91 31 6e 1f ffffff91   =r..1n..1n..1n..
3b 6f 04 ffffff81 31 6f 19 ffffff81 3b 6f 03 ffffff91 31 68 0a ffffff81   ;o..1o..;o..1h..
31 68 16 ffffff91 31 6f 1f ffffff91 39 74 00 ffffff81 31 74 1e ffffff81   1h..1o..9t..1t..
39 74 02 ffffff91 31 6c 0a ffffff81 31 6c 16 ffffff91 31 6e 1f ffffff91   9t..1l..1l..1n..
37 6e 04 ffffff81 31 6e 1c ffffff81 37 6e 00 ffffff91 31 6e 0d ffffff81   7n..1n..7n..1n..
31 6e 14 ffffff91 31 6f 20 ffffff91 38 6e 1e ffffff81 38 6e 02 ffffff91   1n..1o .8n..8n..
39 75 15 ffffff81 31 75 07 ffffff81 39 75 03 ffffff91 2f 6f 07 ffffff81   9u..1u..9u../o..
2f 6f 19 ffffff91 2f 6f 20 ffffff91 3b 72 06 ffffff81 2f 72 16 ffffff81   /o../o .;r../r..
3b 72 03 ffffff91 2f 6a 0a ffffff81 2f 6a 16 ffffff91 2f 6c 20 ffffff91   ;r../j../j../l .
39 6a 05 ffffff81 2f 6a 1a ffffff81 39 6a 00 ffffff91 2f 72 0c ffffff81   9j../j..9j../r..
2f 72 14 ffffff91 2f 6a 21 ffffff91 37 75 02 ffffff81 2f 75 17 ffffff81   /r../j!.7u../u..
37 75 07 ffffff91 2e 6f 0c ffffff81 2e 6f 14 ffffff91 2d 72 1f ffffff91   7u...o...o..-r..
35 72 0c ffffffe1 00 3e 02 ffffffe1 00 40 01 ffffffe1 00 41 02 ffffffe1   5r...>...@...A..
00 44 02 ffffffe1 00 46 01 ffffffe1 00 4a 02 ffffffe1 00 4c 02 ffffffe1   .D...F...J...L..
00 4e 01 ffffffe1 00 4b 02 ffffffe1 00 42 11 ffffffe1 00 43 01 ffffffe1   .N...K...B...C..
00 45 02 ffffffe1 00 44 02 ffffffe1 00 4b 01 ffffffe1 00 49 02 ffffffe1   .E...D...K...I..
00 4a 02 ffffffe1 00 4b 01 ffffffe1 00 50 04 ffffffe1 00 4f 01 ffffffe1   .J...K...P...O..
00 47 02 ffffffe1 00 40 12 ffffffe1 00 41 02 ffffffe1 00 46 02 ffffffe1   .G...@...A...F..
00 47 01 ffffffe1 00 4a 04 ffffffe1 00 4c 01 ffffffe1 00 4f 02 ffffffe1   .G...J...L...O..
00 4c 02 ffffffe1 00 47 01 ffffffe1 00 43 02 ffffffe1 00 40 14 ffffffe1   .L...G...C...@..
00 46 02 ffffffe1 00 49 01 ffffffe1 00 4b 02 ffffffe1 00 4d 02 ffffffe1   .F...I...K...M..
00 4e 01 ffffffe1 00 4c 02 ffffffe1 00 4d 03 ffffffe1 00 44 02 ffffffe1   .N...L...M...D..
00 40 14 ffffffe1 00 44 02 ffffffe1 00 48 01 ffffffe1 00 49 00 ffffff81   .@...D...H...I..
2d 72 02 ffffffe1 00 4a 02 ffffffe1 00 40 00 ffffff91 28 6c 05 ffffff81   -r...J...@..(l..
35 6c 06 ffffff81 28 6c 14 ffffff91 28 6b 20 ffffff91 34 71 0f ffffff81   5l..(l..(k .4q..
28 71 11 ffffff81 34 71 01 ffffff91 28 69 0a ffffff81 28 69 16 ffffff91   (q..4q..(i..(i..
28 6f 20 ffffff91 32 6e 05 ffffff81 28 6e 1a ffffff91 28 6f 00 ffffff81   (o .2n..(n..(o..
32 6f 0e ffffff81 28 6f 12 ffffff91 28 72 20 ffffff91 30 76 01 ffffff81   2o..(o..(r .0v..
28 76 1e ffffff81 30 76 00 ffffff91 28 6a 0a ffffff81 28 6a 16 ffffff91   (v..0v..(j..(j..
28 6c 20 ffffff91 2e 73 01 ffffff81 28 73 1e ffffff91 28 6f 05 ffffff81   (l ..s..(s..(o..
2e 6f 07 ffffff81 28 6f 14 ffffff91 28 6f 21 ffffff91 2f 6e 1e ffffff81   .o..(o..(o!./n..
2f 6e 02 ffffff91 30 6f 11 ffffff81 28 6f 0d ffffff81 30 6f 02 ffffff91   /n..0o..(o..0o..
28 6e 0a ffffff81 28 6e 15 ffffff91 28 6c 20 ffffff91 34 75 17 ffffff81   (n..(n..(l .4u..
28 75 09 ffffff91 28 6f 03 ffffff81 34 6f 08 ffffff81 28 6f 14 ffffff91   (u..(o..4o..(o..
28 6c 20 ffffff91 32 6e 08 ffffff81 28 6e 18 ffffff81 32 6e 00 ffffff91   (l .2n..(n..2n..
28 72 0a ffffff81 28 72 15 ffffff91 28 73 20 ffffff81 28 73 00 ffffff91   (r..(r..(s .(s..
40 70 11 ffffff81 40 70 00 ffffff91 43 69 10 ffffff81 43 69 00 ffffff91   @p..@p..Ci..Ci..
3b 70 0f ffffff81 3b 70 00 ffffff91 37 67 11 ffffff81 37 67 00 ffffff91   ;p..;p..7g..7g..
40 6f 0f ffffff81 40 6f 00 ffffff91 3b 66 11 ffffff81 3b 66 00 ffffff91   @o..@o..;f..;f..
43 71 0f ffffff81 43 71 00 ffffff91 40 67 10 ffffff81 40 67 00 ffffff91   Cq..Cq..@g..@g..
43 6f 0f ffffff81 43 6f 00 ffffff91 40 65 11 ffffff81 40 65 00 ffffff91   Co..Co..@e..@e..
3b 70 0f ffffff81 3b 70 00 ffffff91 37 67 11 ffffff81 37 67 00 ffffff91   ;p..;p..7g..7g..
40 6e 10 ffffff81 40 6e 00 ffffff91 43 64 0f ffffff81 43 64 00 ffffff91   @n..@n..Cd..Cd..
47 71 11 ffffff81 47 71 00 ffffff91 4c 67 0f ffffff81 4c 67 00 ffffff91   Gq..Gq..Lg..Lg..
28 6c 0a ffffff81 28 6c 16 ffffff91 28 72 1f ffffff91 34 72 05 ffffff81   (l..(l..(r..4r..
28 72 1b ffffff81 34 72 00 ffffff91 28 6e 0a ffffff81 28 6e 17 ffffff91   (r..4r..(n..(n..
28 6e 20 ffffff91 32 6f 03 ffffff81 28 6f 19 ffffff81 32 6f 04 ffffff91   (n .2o..(o..2o..
28 68 0a ffffff81 28 68 15 ffffff91 28 6f 20 ffffff91 30 74 00 ffffff81   (h..(h..(o .0t..
28 74 1e ffffff81 30 74 02 ffffff91 28 6c 0a ffffff81 28 6c 15 ffffff91   (t..0t..(l..(l..
28 6e 20 ffffff91 2e 6e 03 ffffff81 28 6e 1b ffffff81 2e 6e 02 ffffff91   (n ..n..(n...n..
28 6e 0d ffffff81 28 6e 12 ffffff91 28 6f 20 ffffff91 2f 6e 20 ffffff81   (n..(n..(o ./n .
2f 6e 01 ffffff91 30 75 14 ffffff81 28 75 07 ffffff81 30 75 05 ffffff91   /n..0u..(u..0u..
28 6f 05 ffffff81 28 6f 1b ffffff91 28 6f 1f ffffff91 34 72 07 ffffff81   (o..(o..(o..4r..
28 72 16 ffffff81 34 72 03 ffffff91 28 6a 0a ffffff81 28 6a 16 ffffff91   (r..4r..(j..(j..
28 6c 1f ffffff91 32 6a 05 ffffff81 28 6a 1b ffffff81 32 6a 00 ffffff91   (l..2j..(j..2j..
28 72 0a ffffff81 28 72 16 ffffff91 28 6a 1f ffffff91 30 75 02 ffffff81   (r..(r..(j..0u..
28 75 19 ffffff81 30 75 05 ffffff91 28 6f 0c ffffff81 28 6f 15 ffffff91   (u..0u..(o..(o..
28 72 20 ffffff91 2e 72 0c ffffffe1 00 3e 03 ffffffe1 00 41 02 ffffffe1   (r ..r...>...A..
00 44 01 ffffffe1 00 47 02 ffffffe1 00 4b 02 ffffffe1 00 4c 01 ffffffe1   .D...G...K...L..
00 4e 02 ffffffe1 00 4b 02 ffffffe1 00 42 10 ffffffe1 00 43 02 ffffffe1   .N...K...B...C..
00 45 02 ffffffe1 00 44 01 ffffffe1 00 4b 02 ffffffe1 00 49 02 ffffffe1   .E...D...K...I..
00 4a 03 ffffffe1 00 50 02 ffffffe1 00 4f 01 ffffffe1 00 4c 02 ffffffe1   .J...P...O...L..
00 47 02 ffffffe1 00 40 12 ffffffe1 00 41 02 ffffffe1 00 46 01 ffffffe1   .G...@...A...F..
00 49 02 ffffffe1 00 48 02 ffffffe1 00 4a 01 ffffffe1 00 4c 02 ffffffe1   .I...H...J...L..
00 50 02 ffffffe1 00 4f 01 ffffffe1 00 47 02 ffffffe1 00 43 02 ffffffe1   .P...O...G...C..
00 40 14 ffffffe1 00 46 01 ffffffe1 00 49 02 ffffffe1 00 4b 02 ffffffe1   .@...F...I...K..
00 4f 01 ffffffe1 00 4e 02 ffffffe1 00 4d 05 ffffffe1 00 44 02 ffffffe1   .O...N...M...D..
00 40 14 ffffffe1 00 44 01 ffffffe1 00 48 02 ffffffe1 00 49 00 ffffff81   .@...D...H...I..
28 72 00 ffffffe1 00 4a 02 ffffffe1 00 4c 01 ffffffe1 00 40 00 ffffff91   (r...J...L...@..
28 6c 05 ffffff81 2e 6c 07 ffffff81 28 6c 14 ffffff91 28 6b 20 ffffff91   (l...l..(l..(k .
34 71 0f ffffff81 28 71 10 ffffff81 34 71 00 ffffff91 28 69 0c ffffff81   4q..(q..4q..(i..
28 69 14 ffffff91 28 6f 21 ffffff91 32 6e 05 ffffff81 28 6e 1b ffffff91   (i..(o!.2n..(n..
28 6f 00 ffffff81 32 6f 0c ffffff81 28 6f 14 ffffff91 28 72 1f ffffff91   (o..2o..(o..(r..
30 76 02 ffffff81 28 76 1c ffffff81 30 76 02 ffffff91 28 6a 0a ffffff81   0v..(v..0v..(j..
28 6a 16 ffffff91 28 6c 1f ffffff91 2e 73 02 ffffff81 28 73 1e ffffff91   (j..(l...s..(s..
28 6f 05 ffffff81 2e 6f 05 ffffff81 28 6f 16 ffffff91 28 6f 1f ffffff91   (o...o..(o..(o..
2f 6e 20 ffffff81 2f 6e 00 ffffff91 30 6f 12 ffffff81 28 6f 0e ffffff81   /n ./n..0o..(o..
30 6f 01 ffffff91 28 6e 0a ffffff81 28 6e 16 ffffff91 28 6c 20 ffffff91   0o..(n..(n..(l .
34 75 17 ffffff81 28 75 08 ffffff91 28 6f 04 ffffff81 34 6f 08 ffffff81   4u..(u..(o..4o..
28 6f 14 ffffff91 28 6c 20 ffffff91 32 6e 08 ffffff81 28 6e 17 ffffff81   (o..(l .2n..(n..
32 6e 00 ffffff91 28 72 0a ffffff81 28 72 16 ffffff91 28 73 14 ffffff81   2n..(r..(r..(s..
28 73 0c ffffff91 3f 70 10 ffffff81 3f 70 00 ffffff91 3c 69 0f ffffff81   (s..?p..?p..<i..
3c 69 00 ffffff91 3b 70 11 ffffff81 3b 70 00 ffffff91 36 67 0f ffffff81   <i..;p..;p..6g..
36 67 00 ffffff91 42 6f 11 ffffff81 42 6f 00 ffffff91 3f 66 10 ffffff81   6g..Bo..Bo..?f..
3f 66 00 ffffff91 3b 71 0f ffffff81 3b 71 00 ffffff91 39 67 11 ffffff81   ?f..;q..;q..9g..
39 67 00 ffffff91 45 6f 0f ffffff81 45 6f 00 ffffff91 42 65 11 ffffff81   9g..Eo..Eo..Be..
42 65 00 ffffff91 3f 70 0f ffffff81 3f 70 00 ffffff91 3b 67 10 ffffff81   Be..?p..?p..;g..
3b 67 00 ffffff91 47 6e 0f ffffff81 47 6e 00 ffffff91 45 64 11 ffffff81   ;g..Gn..Gn..Ed..
45 64 00 ffffff91 42 71 0f ffffff81 42 71 00 ffffff91 3f 67 11 ffffff81   Ed..Bq..Bq..?g..
3f 67 00 ffffff91 28 6c 08 ffffff81 28 6c 17 ffffff91 28 72 20 ffffff91   ?g..(l..(l..(r .
37 72 05 ffffff81 28 72 1b ffffff81 37 72 00 ffffff91 28 6e 0a ffffff81   7r..(r..7r..(n..
28 6e 15 ffffff91 28 6e 20 ffffff91 36 6f 05 ffffff81 28 6f 19 ffffff81   (n..(n .6o..(o..
36 6f 03 ffffff91 28 68 0a ffffff81 28 68 16 ffffff91 28 6f 20 ffffff91   6o..(h..(h..(o .
33 74 00 ffffff81 28 74 1e ffffff81 33 74 01 ffffff91 28 6c 0a ffffff81   3t..(t..3t..(l..
28 6c 16 ffffff91 28 6e 20 ffffff91 32 6e 01 ffffff81 28 6e 1d ffffff81   (l..(n .2n..(n..
32 6e 01 ffffff91 28 6e 0e ffffff81 28 6e 12 ffffff91 28 6f 20 ffffff91   2n..(n..(n..(o .
32 6e 1f ffffff81 32 6e 00 ffffff91 34 75 16 ffffff81 28 75 07 ffffff81   2n..2n..4u..(u..
34 75 03 ffffff91 28 6f 07 ffffff81 28 6f 1a ffffff91 28 6f 20 ffffff91   4u..(o..(o..(o .
37 72 07 ffffff81 28 72 15 ffffff81 37 72 04 ffffff91 28 6a 0a ffffff81   7r..(r..7r..(j..
28 6a 15 ffffff91 28 6c 20 ffffff91 36 6a 05 ffffff81 28 6a 1b ffffff81   (j..(l .6j..(j..
36 6a 00 ffffff91 28 72 0a ffffff81 28 72 15 ffffff91 28 6a 20 ffffff91   6j..(r..(r..(j .
34 75 02 ffffff81 28 75 19 ffffff81 34 75 05 ffffff91 28 6f 0b ffffff81   4u..(u..4u..(o..
28 6f 14 ffffff91 28 72 20 ffffff91 31 72 0c ffffffe1 00 3e 01 ffffffe1   (o..(r .1r...>..
00 3d 04 ffffffe1 00 41 01 ffffffe1 00 44 02 ffffffe1 00 47 02 ffffffe1   .=...A...D...G..
00 4b 01 ffffffe1 00 4d 02 ffffffe1 00 4c 02 ffffffe1 00 46 01 ffffffe1   .K...M...L...F..
00 40 11 ffffffe1 00 43 03 ffffffe1 00 44 02 ffffffe1 00 4b 02 ffffffe1   .@...C...D...K..
00 49 01 ffffffe1 00 4b 04 ffffffe1 00 50 01 ffffffe1 00 4f 02 ffffffe1   .I...K...P...O..
00 4c 02 ffffffe1 00 43 14 ffffffe1 00 41 01 ffffffe1 00 46 02 ffffffe1   .L...C...A...F..
00 49 02 ffffffe1 00 48 01 ffffffe1 00 4a 02 ffffffe1 00 4c 02 ffffffe1   .I...H...J...L..
00 50 01 ffffffe1 00 4c 02 ffffffe1 00 46 02 ffffffe1 00 41 14 ffffffe1   .P...L...F...A..
00 46 01 ffffffe1 00 48 04 ffffffe1 00 4b 01 ffffffe1 00 4f 02 ffffffe1   .F...H...K...O..
00 4e 02 ffffffe1 00 4d 03 ffffffe1 00 44 02 ffffffe1 00 41 14 ffffffe1   .N...M...D...A..
00 44 01 ffffffe1 00 45 02 ffffffe1 00 49 02 ffffff81 28 72 00 ffffffe1   .D...E...I..(r..
00 4a 01 ffffffe1 00 4c 02 ffffffe1 00 40 00 ffffff81 31 72 00 ffffff91   .J...L...@..1r..
28 6c 0a ffffff81 28 6c 16 ffffff91 28 6b 1f ffffff91 37 71 0e ffffff81   (l..(l..(k..7q..
28 71 12 ffffff81 37 71 00 ffffff91 28 69 0c ffffff81 28 69 14 ffffff91   (q..7q..(i..(i..
28 6f 1f ffffff91 36 6e 05 ffffff81 28 6e 1b ffffff91 28 6f 02 ffffff81   (o..6n..(n..(o..
36 6f 0b ffffff81 28 6f 14 ffffff91 28 72 20 ffffff91 33 76 02 ffffff81   6o..(o..(r .3v..
28 76 1c ffffff81 33 76 02 ffffff91 28 6a 0a ffffff81 28 6a 15 ffffff91   (v..3v..(j..(j..
28 6c 20 ffffff91 32 73 02 ffffff81 28 73 1e ffffff91 28 6f 03 ffffff81   (l .2s..(s..(o..
32 6f 07 ffffff81 28 6f 15 ffffff91 28 6f 20 ffffff91 32 6e 20 ffffff81   2o..(o..(o .2n .
32 6e 00 ffffff91 34 6f 12 ffffff81 28 6f 0d ffffff81 34 6f 00 ffffff91   2n..4o..(o..4o..
28 6e 0c ffffff81 28 6e 14 ffffff91 28 6c 21 ffffff91 37 75 18 ffffff81   (n..(n..(l!.7u..
28 75 08 ffffff91 28 6f 03 ffffff81 37 6f 07 ffffff81 28 6f 16 ffffff91   (u..(o..7o..(o..
28 6c 1f ffffff91 36 6e 09 ffffff81 28 6e 17 ffffff81 36 6e 00 ffffff91   (l..6n..(n..6n..
28 72 08 ffffff81 28 72 18 ffffff91 28 73 12 ffffff81 28 73 0d ffffff91   (r..(r..(s..(s..
4c 67 11 ffffff81 4c 67 00 ffffff91 47 71 0f ffffff81 47 71 00 ffffff91   Lg..Lg..Gq..Gq..
43 64 11 ffffff81 43 64 00 ffffff91 40 6e 0f ffffff81 40 6e 00 ffffff91   Cd..Cd..@n..@n..
47 67 10 ffffff81 47 67 00 ffffff91 4c 70 0f ffffff81 4c 70 00 ffffff91   Gg..Gg..Lp..Lp..
47 65 11 ffffff81 47 65 00 ffffff91 43 6f 0f ffffff81 43 6f 00 ffffff91   Ge..Ge..Co..Co..
40 67 11 ffffff81 40 67 00 ffffff91 43 71 10 ffffff81 43 71 00 ffffff91   @g..@g..Cq..Cq..
47 66 0f ffffff81 47 66 00 ffffff91 43 6f 11 ffffff81 43 6f 00 ffffff91   Gf..Gf..Co..Co..
4c 67 0f ffffff81 4c 67 00 ffffff91 47 70 11 ffffff81 47 70 00 ffffff91   Lg..Lg..Gp..Gp..
43 69 0f ffffff81 43 69 00 ffffff91 40 70 10 ffffff81 40 70 00 ffffff91   Ci..Ci..@p..@p..
2d 6c 09 ffffff81 2d 6c 17 ffffff91 2d 72 20 ffffff91 3c 72 05 ffffff81   -l..-l..-r .<r..
2d 72 1a ffffff81 3c 72 00 ffffff91 2d 6e 0a ffffff81 2d 6e 16 ffffff91   -r..<r..-n..-n..
2d 6e 20 ffffff91 3b 6f 05 ffffff81 2d 6f 17 ffffff81 3b 6f 03 ffffff91   -n .;o..-o..;o..
2d 68 0c ffffff81 2d 68 14 ffffff91 2d 6f 21 ffffff91 38 74 00 ffffff81   -h..-h..-o!.8t..
2d 74 1e ffffff81 38 74 02 ffffff91 2d 6c 0a ffffff81 2d 6c 16 ffffff91   -t..8t..-l..-l..
2d 6e 1f ffffff91 37 6e 02 ffffff81 2d 6e 1c ffffff81 37 6e 02 ffffff91   -n..7n..-n..7n..
2d 6e 0d ffffff81 2d 6e 13 ffffff91 2d 6f 1f ffffff91 37 6e 1e ffffff81   -n..-n..-o..7n..
37 6e 02 ffffff91 39 75 16 ffffff81 2d 75 06 ffffff81 39 75 04 ffffff91   7n..9u..-u..9u..
2d 6f 06 ffffff81 2d 6f 19 ffffff91 2d 6f 20 ffffff91 3c 72 07 ffffff81   -o..-o..-o .<r..
2d 72 17 ffffff81 3c 72 03 ffffff91 2d 6a 0a ffffff81 2d 6a 16 ffffff91   -r..<r..-j..-j..
2d 6c 20 ffffff91 3b 6a 03 ffffff81 2d 6a 1b ffffff81 3b 6a 01 ffffff91   -l .;j..-j..;j..
2d 72 0a ffffff81 2d 72 16 ffffff91 2d 6a 20 ffffff91 39 75 01 ffffff81   -r..-r..-j .9u..
2d 75 19 ffffff81 39 75 05 ffffff91 2d 6f 0c ffffff81 2d 6f 14 ffffff91   -u..9u..-o..-o..
2d 72 20 ffffff91 37 72 0b ffffffe1 00 3e 02 ffffffe1 00 3d 03 ffffffe1   -r .7r...>...=..
00 41 02 ffffffe1 00 46 02 ffffffe1 00 47 01 ffffffe1 00 4c 02 ffffffe1   .A...F...G...L..
00 4f 02 ffffffe1 00 4c 01 ffffffe1 00 46 02 ffffffe1 00 40 11 ffffffe1   .O...L...F...@..
00 43 03 ffffffe1 00 44 02 ffffffe1 00 48 01 ffffffe1 00 49 02 ffffffe1   .C...D...H...I..
00 4b 03 ffffffe1 00 50 02 ffffffe1 00 4f 02 ffffffe1 00 4a 01 ffffffe1   .K...P...O...J..
00 41 14 ffffffe1 00 43 02 ffffffe1 00 46 02 ffffffe1 00 49 01 ffffffe1   .A...C...F...I..
00 48 02 ffffffe1 00 4a 02 ffffffe1 00 4f 01 ffffffe1 00 4c 02 ffffffe1   .H...J...O...L..
00 4a 02 ffffffe1 00 46 01 ffffffe1 00 41 14 ffffffe1 00 46 02 ffffffe1   .J...F...A...F..
00 48 03 ffffffe1 00 4b 02 ffffffe1 00 4f 02 ffffffe1 00 4c 01 ffffffe1   .H...K...O...L..
00 4e 04 ffffffe1 00 44 01 ffffffe1 00 40 14 ffffffe1 00 44 02 ffffffe1   .N...D...@...D..
00 45 02 ffffffe1 00 49 00 ffffff81 2d 72 01 ffffffe1 00 4a 02 ffffffe1   .E...I..-r...J..
00 4b 02 ffffffe1 00 40 00 ffffff91 2d 6c 05 ffffff81 37 6c 05 ffffff81   .K...@..-l..7l..
2d 6c 15 ffffff91 2d 6b 20 ffffff91 3c 71 0d ffffff81 2d 71 11 ffffff81   -l..-k .<q..-q..
3c 71 02 ffffff91 2d 69 0a ffffff81 2d 69 15 ffffff91 2d 6f 20 ffffff91   <q..-i..-i..-o .
3b 6e 05 ffffff81 2d 6e 1b ffffff91 2d 6f 00 ffffff81 3b 6f 0d ffffff81   ;n..-n..-o..;o..
2d 6f 12 ffffff91 2d 72 20 ffffff91 38 76 03 ffffff81 2d 76 1d ffffff81   -o..-r .8v..-v..
38 76 01 ffffff91 2d 6a 0a ffffff81 2d 6a 16 ffffff91 2d 6c 20 ffffff91   8v..-j..-j..-l .
37 73 01 ffffff81 2d 73 1e ffffff91 2d 6f 04 ffffff81 37 6f 06 ffffff81   7s..-s..-o..7o..
2d 6f 16 ffffff91 2d 6f 20 ffffff91 37 6e 1f ffffff81 37 6e 00 ffffff91   -o..-o .7n..7n..
39 6f 13 ffffff81 2d 6f 0d ffffff81 39 6f 00 ffffff91 2d 6e 0c ffffff81   9o..-o..9o..-n..
2d 6e 14 ffffff91 2d 6c 1f ffffff91 3c 75 19 ffffff81 2d 75 07 ffffff91   -n..-l..<u..-u..
2d 6f 05 ffffff81 3c 6f 07 ffffff81 2d 6f 15 ffffff91 2d 6c 20 ffffff91   -o..<o..-o..-l .
3b 6e 08 ffffff81 2d 6e 18 ffffff81 3b 6e 00 ffffff91 2d 72 08 ffffff81   ;n..-n..;n..-r..
2d 72 17 ffffff91 2d 73 13 ffffff81 2d 73 0d ffffff91 40 70 0f ffffff81   -r..-s..-s..@p..
40 70 00 ffffff91 3e 69 11 ffffff81 3e 69 00 ffffff91 3c 70 10 ffffff81   @p..>i..>i..<p..
3c 70 00 ffffff91 40 67 0f ffffff81 40 67 00 ffffff91 3c 6f 11 ffffff81   <p..@g..@g..<o..
3c 6f 00 ffffff91 39 66 0f ffffff81 39 66 00 ffffff91 3c 71 11 ffffff81   <o..9f..9f..<q..
3c 71 00 ffffff91 40 67 0f ffffff81 40 67 00 ffffff91 45 6f 10 ffffff81   <q..@g..@g..Eo..
45 6f 00 ffffff91 40 65 0f ffffff81 40 65 00 ffffff91 3c 70 11 ffffff81   Eo..@e..@e..<p..
3c 70 00 ffffff91 40 67 0f ffffff81 40 67 00 ffffff91 3c 6e 11 ffffff81   <p..@g..@g..<n..
3c 6e 00 ffffff91 40 64 10 ffffff81 40 64 00 ffffff91 3c 71 0f ffffff81   <n..@d..@d..<q..
3c 71 00 ffffff91 39 67 11 ffffff81 39 67 00 ffffff91 28 6c 08 ffffff81   <q..9g..9g..(l..
28 6c 18 ffffff91 28 72 1f ffffff91 37 72 04 ffffff81 28 72 1a ffffff81   (l..(r..7r..(r..
37 72 02 ffffff91 28 6e 0a ffffff81 28 6e 16 ffffff91 28 6e 1f ffffff91   7r..(n..(n..(n..
36 6f 04 ffffff81 28 6f 19 ffffff81 36 6f 03 ffffff91 28 68 0c ffffff81   6o..(o..6o..(h..
28 68 14 ffffff91 28 6f 1f ffffff91 33 74 02 ffffff81 28 74 1e ffffff81   (h..(o..3t..(t..
33 74 00 ffffff91 28 6c 0c ffffff81 28 6c 15 ffffff91 28 6e 20 ffffff91   3t..(l..(l..(n .
32 6e 02 ffffff81 28 6e 1c ffffff81 32 6e 02 ffffff91 28 6e 0d ffffff81   2n..(n..2n..(n..
28 6e 12 ffffff91 28 6f 20 ffffff91 32 6e 1e ffffff81 32 6e 02 ffffff91   (n..(o .2n..2n..
34 75 15 ffffff81 28 75 07 ffffff81 34 75 03 ffffff91 28 6f 07 ffffff81   4u..(u..4u..(o..
28 6f 19 ffffff91 28 6f 20 ffffff91 37 72 06 ffffff81 28 72 18 ffffff81   (o..(o .7r..(r..
37 72 01 ffffff91 28 6a 0a ffffff81 28 6a 16 ffffff91 28 6c 21 ffffff91   7r..(j..(j..(l!.
36 6a 04 ffffff81 28 6a 1a ffffff81 36 6a 02 ffffff91 28 72 0a ffffff81   6j..(j..6j..(r..
28 72 16 ffffff91 28 6a 1f ffffff91 34 75 02 ffffff81 28 75 19 ffffff81   (r..(j..4u..(u..
34 75 05 ffffff91 28 6f 0c ffffff81 28 6f 14 ffffff91 28 72 1f ffffff91   4u..(o..(o..(r..
31 72 0c ffffffe1 00 3e 02 ffffffe1 00 40 01 ffffffe1 00 41 02 ffffffe1   1r...>...@...A..
00 44 02 ffffffe1 00 46 01 ffffffe1 00 47 02 ffffffe1 00 4c 02 ffffffe1   .D...F...G...L..
00 4f 01 ffffffe1 00 4c 02 ffffffe1 00 46 11 ffffffe1 00 43 01 ffffffe1   .O...L...F...C..
00 45 02 ffffffe1 00 43 02 ffffffe1 00 48 03 ffffffe1 00 49 02 ffffffe1   .E...C...H...I..
00 4b 01 ffffffe1 00 50 04 ffffffe1 00 4f 01 ffffffe1 00 4a 02 ffffffe1   .K...P...O...J..
00 41 14 ffffffe1 00 43 02 ffffffe1 00 47 01 ffffffe1 00 4a 04 ffffffe1   .A...C...G...J..
00 4c 01 ffffffe1 00 4f 02 ffffffe1 00 4c 02 ffffffe1 00 4a 01 ffffffe1   .L...O...L...J..
00 43 02 ffffffe1 00 40 14 ffffffe1 00 46 02 ffffffe1 00 48 01 ffffffe1   .C...@...F...H..
00 4b 02 ffffffe1 00 4d 02 ffffffe1 00 4e 01 ffffffe1 00 4c 02 ffffffe1   .K...M...N...L..
00 4d 03 ffffffe1 00 44 02 ffffffe1 00 40 14 ffffffe1 00 44 02 ffffffe1   .M...D...@...D..
00 48 01 ffffffe1 00 49 00 ffffff81 28 72 02 ffffffe1 00 4a 02 ffffffe1   .H...I..(r...J..
00 4b 01 ffffffe1 00 40 00 ffffff91 28 6c 05 ffffff81 31 6c 05 ffffff81   .K...@..(l..1l..
28 6c 16 ffffff91 28 6b 20 ffffff91 37 71 0d ffffff81 28 71 11 ffffff81   (l..(k .7q..(q..
37 71 01 ffffff91 28 69 0a ffffff81 28 69 16 ffffff91 28 6f 20 ffffff91   7q..(i..(i..(o .
36 6e 05 ffffff81 28 6e 1a ffffff91 28 6f 00 ffffff81 36 6f 0e ffffff81   6n..(n..(o..6o..
28 6f 12 ffffff91 28 72 20 ffffff91 33 76 03 ffffff81 28 76 1c ffffff81   (o..(r .3v..(v..
33 76 00 ffffff91 28 6a 0c ffffff81 28 6a 14 ffffff91 28 6c 21 ffffff91   3v..(j..(j..(l!.
32 73 02 ffffff81 28 73 1e ffffff91 28 6f 03 ffffff81 32 6f 07 ffffff81   2s..(s..(o..2o..
28 6f 16 ffffff91 28 6f 1f ffffff91 32 6e 20 ffffff81 32 6e 00 ffffff91   (o..(o..2n .2n..
34 6f 12 ffffff81 28 6f 0c ffffff81 34 6f 02 ffffff91 28 6e 0b ffffff81   4o..(o..4o..(n..
28 6e 14 ffffff91 28 6c 20 ffffff91 37 75 17 ffffff81 28 75 09 ffffff91   (n..(l .7u..(u..
28 6f 05 ffffff81 37 6f 06 ffffff81 28 6f 14 ffffff91 28 6c 20 ffffff91   (o..7o..(o..(l .
36 6e 08 ffffff81 28 6e 19 ffffff81 36 6e 00 ffffff91 28 72 09 ffffff81   6n..(n..6n..(r..
28 72 17 ffffff91 28 73 20 ffffff81 28 73 00 ffffff91 34 75 1f ffffff91   (r..(s .(s..4u..
28 6f 0c ffffff81 28 6f 03 ffffff81 34 6f 11 ffffff91 28 72 20 ffffff91   (o..(o..4o..(r .
31 72 0b ffffffe1 00 3e 02 ffffffe1 00 40 02 ffffffe1 00 41 01 ffffffe1   1r...>...@...A..
00 44 02 ffffffe1 00 46 02 ffffffe1 00 47 01 ffffffe1 00 4c 02 ffffffe1   .D...F...G...L..
00 4f 02 ffffffe1 00 4c 01 ffffffe1 00 46 11 ffffffe1 00 43 02 ffffffe1   .O...L...F...C..
00 45 01 ffffffe1 00 43 02 ffffffe1 00 48 02 ffffffe1 00 49 01 ffffffe1   .E...C...H...I..
00 4a 02 ffffffe1 00 4b 02 ffffffe1 00 50 03 ffffffe1 00 4f 02 ffffffe1   .J...K...P...O..
00 4a 01 ffffffe1 00 41 14 ffffffe1 00 43 02 ffffffe1 00 47 02 ffffffe1   .J...A...C...G..
00 4a 03 ffffffe1 00 4c 02 ffffffe1 00 4f 01 ffffffe1 00 4c 02 ffffffe1   .J...L...O...L..
00 4a 02 ffffffe1 00 43 01 ffffffe1 00 40 14 ffffffe1 00 46 02 ffffffe1   .J...C...@...F..
00 49 02 ffffffe1 00 4b 01 ffffffe1 00 4d 02 ffffffe1 00 4e 02 ffffffe1   .I...K...M...N..
00 4c 01 ffffffe1 00 4d 04 ffffffe1 00 44 01 ffffffe1 00 40 14 ffffffe1   .L...M...D...@..
00 44 02 ffffffe1 00 48 02 ffffffe1 00 49 00 ffffff81 28 72 01 ffffffe1   .D...H...I..(r..
00 4a 02 ffffffe1 00 40 00 ffffff81 31 72 00 ffffff91 31 6c 0a ffffff81   .J...@..1r..1l..
31 6c 17 ffffff91 31 72 20 ffffff91 43 72 03 ffffff81 31 72 1b ffffff81   1l..1r .Cr..1r..
43 72 02 ffffff91 31 6e 0a ffffff81 31 6e 15 ffffff91 31 6e 20 ffffff91   Cr..1n..1n..1n .
42 6f 03 ffffff81 31 6f 19 ffffff81 42 6f 04 ffffff91 31 68 0a ffffff81   Bo..1o..Bo..1h..
31 68 15 ffffff91 31 6f 20 ffffff91 40 74 00 ffffff81 31 74 1e ffffff81   1h..1o .@t..1t..
40 74 02 ffffff91 31 6c 0a ffffff81 31 6c 15 ffffff91 31 6e 20 ffffff91   @t..1l..1l..1n .
3d 6e 03 ffffff81 31 6e 1d ffffff81 3d 6e 01 ffffff91 31 6e 0e ffffff81   =n..1n..=n..1n..
31 6e 12 ffffff91 31 6f 20 ffffff91 3d 6e 1e ffffff81 3d 6e 01 ffffff91   1n..1o .=n..=n..
40 75 16 ffffff81 31 75 07 ffffff81 40 75 03 ffffff91 2f 6f 07 ffffff81   @u..1u..@u../o..
2f 6f 19 ffffff91 2f 6f 1f ffffff91 42 72 07 ffffff81 2f 72 16 ffffff81   /o../o..Br../r..
42 72 03 ffffff91 2f 6a 0a ffffff81 2f 6a 16 ffffff91 2f 6c 1f ffffff91   Br../j../j../l..
40 6a 05 ffffff81 2f 6a 1b ffffff81 40 6a 00 ffffff91 2f 72 0c ffffff81   @j../j..@j../r..
2f 72 15 ffffff91 2f 6a 20 ffffff91 3f 75 02 ffffff81 2f 75 19 ffffff81   /r../j .?u../u..
3f 75 05 ffffff91 2e 6f 0b ffffff81 2e 6f 14 ffffff91 2d 72 20 ffffff91   ?u...o...o..-r .
3b 72 0c ffffffe1 00 3e 01 ffffffe1 00 40 02 ffffffe1 00 41 02 ffffffe1   ;r...>...@...A..
00 44 01 ffffffe1 00 46 02 ffffffe1 00 4a 02 ffffffe1 00 4c 01 ffffffe1   .D...F...J...L..
00 4e 02 ffffffe1 00 4b 02 ffffffe1 00 42 10 ffffffe1 00 43 02 ffffffe1   .N...K...B...C..
00 45 02 ffffffe1 00 43 01 ffffffe1 00 48 02 ffffffe1 00 49 02 ffffffe1   .E...C...H...I..
00 4a 01 ffffffe1 00 4b 02 ffffffe1 00 50 03 ffffffe1 00 4f 02 ffffffe1   .J...K...P...O..
00 4a 02 ffffffe1 00 41 12 ffffffe1 00 43 02 ffffffe1 00 46 01 ffffffe1   .J...A...C...F..
00 47 02 ffffffe1 00 4a 03 ffffffe1 00 4c 02 ffffffe1 00 4f 02 ffffffe1   .G...J...L...O..
00 4c 01 ffffffe1 00 47 02 ffffffe1 00 43 02 ffffffe1 00 40 14 ffffffe1   .L...G...C...@..
00 46 01 ffffffe1 00 49 02 ffffffe1 00 4b 02 ffffffe1 00 4d 01 ffffffe1   .F...I...K...M..
00 4e 02 ffffffe1 00 4c 02 ffffffe1 00 4d 03 ffffffe1 00 44 02 ffffffe1   .N...L...M...D..
00 40 14 ffffffe1 00 44 01 ffffffe1 00 48 02 ffffffe1 00 49 00 ffffff81   .@...D...H...I..
2d 72 02 ffffffe1 00 4a 01 ffffffe1 00 40 00 ffffff91 28 6c 05 ffffff81   -r...J...@..(l..
3b 6c 07 ffffff81 28 6c 14 ffffff91 28 6b 21 ffffff91 37 71 0e ffffff81   ;l..(l..(k!.7q..
28 71 10 ffffff81 37 71 02 ffffff91 28 69 0a ffffff81 28 69 16 ffffff91   (q..7q..(i..(i..
28 6f 1f ffffff91 36 6e 05 ffffff81 28 6e 1b ffffff91 28 6f 00 ffffff81   (o..6n..(n..(o..
36 6f 0d ffffff81 28 6f 13 ffffff91 28 72 1f ffffff91 33 76 04 ffffff81   6o..(o..(r..3v..
28 76 1c ffffff81 33 76 00 ffffff91 28 6a 0c ffffff81 28 6a 14 ffffff91   (v..3v..(j..(j..
28 6c 1f ffffff91 32 73 02 ffffff81 28 73 1e ffffff91 28 6f 05 ffffff81   (l..2s..(s..(o..
32 6f 07 ffffff81 28 6f 15 ffffff91 28 6f 20 ffffff91 32 6e 20 ffffff81   2o..(o..(o .2n .
32 6e 00 ffffff91 34 6f 10 ffffff81 28 6f 0e ffffff81 34 6f 01 ffffff91   2n..4o..(o..4o..
28 6e 0a ffffff81 28 6e 16 ffffff91 28 6c 20 ffffff91 37 75 17 ffffff81   (n..(n..(l .7u..
28 75 08 ffffff91 28 6f 04 ffffff81 37 6f 08 ffffff81 28 6f 14 ffffff91   (u..(o..7o..(o..
28 6c 20 ffffff91 36 6e 08 ffffff81 28 6e 17 ffffff81 36 6e 00 ffffff91   (l .6n..(n..6n..
28 72 0a ffffff81 28 72 16 ffffff91 28 73 21 ffffff81 28 73 00 ffffff91   (r..(r..(s!.(s..
45 70 0f ffffff81 45 70 00 ffffff91 42 69 11 ffffff81 42 69 00 ffffff91   Ep..Ep..Bi..Bi..
3f 70 0f ffffff81 3f 70 00 ffffff91 3b 67 11 ffffff81 3b 67 00 ffffff91   ?p..?p..;g..;g..
39 6f 0f ffffff81 39 6f 00 ffffff91 36 66 10 ffffff81 36 66 00 ffffff91   9o..9o..6f..6f..
33 71 0f ffffff81 33 71 00 ffffff91 2f 67 11 ffffff81 2f 67 00 ffffff91   3q..3q../g../g..
47 6f 0f ffffff81 47 6f 00 ffffff91 45 65 11 ffffff81 45 65 00 ffffff91   Go..Go..Ee..Ee..
42 70 10 ffffff81 42 70 00 ffffff91 3f 67 0f ffffff81 3f 67 00 ffffff91   Bp..Bp..?g..?g..
3b 6e 11 ffffff81 3b 6e 00 ffffff91 39 64 0f ffffff81 39 64 00 ffffff91   ;n..;n..9d..9d..
36 71 11 ffffff81 36 71 00 ffffff91 33 67 0d ffffff81 33 67 00 ffffffff   6q..6q..3g..3g..
2f 00 4d 54 72 6b 00 00 08 4d 00 ffffffc2 22 00 ffffffb2 07   /.MTrk...M.."...
64 00 ffffffb2 0a 40 00 ffffff92 28 78 15 ffffff82 28 78 ffffff83 67 ffffff92   d...@..(x..(x.g.
28 7f 20 ffffff82 28 7f ffffff83 5c ffffff92 28 7f 18 ffffff82 28 7f ffffff83   (. .(..\.(...(..
66 ffffff92 28 7f 1d ffffff82 28 7f ffffff83 60 ffffff92 28 7a 1a ffffff82 28   f.(...(..`.(z..(
7a ffffff83 64 ffffff92 28 7d 1f ffffff82 28 7d ffffff83 5d ffffff92 28 7d 23   z.d.(}..(}.].(}#
ffffff82 28 7d ffffff83 5b ffffff92 28 74 2b ffffff82 28 74 ffffff83 51 ffffff92 28   .(}.[.(t+.(t.Q.(
56 18 ffffff82 28 56 28 ffffff92 28 5c 19 ffffff82 28 5c 26 ffffff92 28   V..(V(.(\..(\&.(
56 1b ffffff82 28 56 26 ffffff92 28 5c 19 ffffff82 28 5c 26 ffffff92 28   V..(V&.(\..(\&.(
59 1b ffffff82 28 59 25 ffffff92 28 5c 1a ffffff82 28 5c 25 ffffff92 28   Y..(Y%.(\..(\%.(
53 1b ffffff82 28 53 24 ffffff92 28 53 1d ffffff82 28 53 24 ffffff92 28   S..(S$.(S..(S$.(
5c 1b ffffff82 28 5c 25 ffffff92 28 5c 1a ffffff82 28 5c 25 ffffff92 28   \..(\%.(\..(\%.(
59 19 ffffff82 28 59 26 ffffff92 28 53 1d ffffff82 28 53 23 ffffff92 28   Y..(Y&.(S..(S#.(
59 1a ffffff82 28 59 25 ffffff92 28 5c 1c ffffff82 28 5c 25 ffffff92 28   Y..(Y%.(\..(\%.(
56 1b ffffff82 28 56 24 ffffff92 28 47 1d ffffff82 28 47 23 ffffff92 28   V..(V$.(G..(G#.(
4d 1e ffffff82 28 4d 21 ffffff92 28 5c 1b ffffff82 28 5c 24 ffffff92 28   M..(M!.(\..(\$.(
5c 1d ffffff82 28 5c 24 ffffff92 28 59 1b ffffff82 28 59 25 ffffff92 28   \..(\$.(Y..(Y%.(
62 1a ffffff82 28 62 25 ffffff92 28 59 1c ffffff82 28 59 23 ffffff92 28   b..(b%.(Y..(Y#.(
56 19 ffffff82 28 56 27 ffffff92 28 5c 1e ffffff82 28 5c 21 ffffff92 28   V..(V'.(\..(\!.(
5c 1c ffffff82 28 5c 25 ffffff92 28 53 1b ffffff82 28 53 24 ffffff92 28   \..(\%.(S..(S$.(
59 1d ffffff82 28 59 23 ffffff92 28 62 1a ffffff82 28 62 25 ffffff92 28   Y..(Y#.(b..(b%.(
68 1c ffffff82 28 68 23 ffffff92 28 62 1b ffffff82 28 62 26 ffffff92 28   h..(h#.(b..(b&.(
5c 19 ffffff82 28 5c 27 ffffff92 28 68 19 ffffff82 28 68 26 ffffff92 21   \..(\'.(h..(h&.!
56 17 ffffff82 21 56 28 ffffff92 21 5c 19 ffffff82 21 5c 27 ffffff92 21   V..!V(.!\..!\'.!
56 19 ffffff82 21 56 26 ffffff92 21 5c 1b ffffff82 21 5c 26 ffffff92 21   V..!V&.!\..!\&.!
59 1b ffffff82 21 59 24 ffffff92 21 5c 1b ffffff82 21 5c 25 ffffff92 21   Y..!Y$.!\..!\%.!
53 1a ffffff82 21 53 25 ffffff92 21 53 1c ffffff82 21 53 23 ffffff92 21   S..!S%.!S..!S#.!
5c 1d ffffff82 21 5c 24 ffffff92 21 5c 1b ffffff82 21 5c 25 ffffff92 21   \..!\$.!\..!\%.!
59 19 ffffff82 21 59 26 ffffff92 21 53 1b ffffff82 21 53 24 ffffff92 21   Y..!Y&.!S..!S$.!
59 1b ffffff82 21 59 25 ffffff92 21 5c 1c ffffff82 21 5c 23 ffffff92 21   Y..!Y%.!\..!\#.!
56 1c ffffff82 21 56 25 ffffff92 21 47 1c ffffff82 21 47 23 ffffff92 21   V..!V%.!G..!G#.!
4d 1e ffffff82 21 4d 22 ffffff92 21 5c 1a ffffff82 21 5c 25 ffffff92 21   M..!M".!\..!\%.!
5c 1c ffffff82 21 5c 23 ffffff92 21 59 1d ffffff82 21 59 24 ffffff92 21   \..!\#.!Y..!Y$.!
62 1b ffffff82 21 62 25 ffffff92 21 59 1c ffffff82 21 59 23 ffffff92 21   b..!b%.!Y..!Y#.!
56 19 ffffff82 21 56 26 ffffff92 21 5c 1d ffffff82 21 5c 23 ffffff92 21   V..!V&.!\..!\#.!
5c 1c ffffff82 21 5c 23 ffffff92 21 53 1c ffffff82 21 53 25 ffffff92 21   \..!\#.!S..!S%.!
59 1c ffffff82 21 59 23 ffffff92 21 62 1b ffffff82 21 62 25 ffffff92 21   Y..!Y#.!b..!b%.!
68 1c ffffff82 21 68 23 ffffff92 21 62 1b ffffff82 21 62 24 ffffff92 21   h..!h#.!b..!b$.!
5c 1b ffffff82 21 5c 26 ffffff92 21 68 19 ffffff82 21 68 27 ffffff92 28   \..!\&.!h..!h'.(
56 17 ffffff82 28 56 28 ffffff92 28 5c 17 ffffff82 28 5c 28 ffffff92 28   V..(V(.(\..(\(.(
56 19 ffffff82 28 56 27 ffffff92 28 5c 1a ffffff82 28 5c 25 ffffff92 28   V..(V'.(\..(\%.(
59 1c ffffff82 28 59 25 ffffff92 28 5c 1b ffffff82 28 5c 24 ffffff92 28   Y..(Y%.(\..(\$.(
53 1b ffffff82 28 53 25 ffffff92 28 53 1c ffffff82 28 53 23 ffffff92 28   S..(S%.(S..(S#.(
5c 1b ffffff82 28 5c 24 ffffff92 28 5c 1d ffffff82 28 5c 24 ffffff92 28   \..(\$.(\..(\$.(
59 19 ffffff82 28 59 27 ffffff92 28 53 1a ffffff82 28 53 25 ffffff92 28   Y..(Y'.(S..(S%.(
59 1b ffffff82 28 59 24 ffffff92 28 5c 1d ffffff82 28 5c 23 ffffff92 28   Y..(Y$.(\..(\#.(
56 1c ffffff82 28 56 23 ffffff92 28 47 1c ffffff82 28 47 25 ffffff92 28   V..(V#.(G..(G%.(
4d 1e ffffff82 28 4d 21 ffffff92 28 5c 19 ffffff82 28 5c 27 ffffff92 28   M..(M!.(\..(\'.(
5c 1c ffffff82 28 5c 23 ffffff92 28 59 1b ffffff82 28 59 24 ffffff92 28   \..(\#.(Y..(Y$.(
62 1d ffffff82 28 62 24 ffffff92 28 59 1b ffffff82 28 59 25 ffffff92 28   b..(b$.(Y..(Y%.(
56 19 ffffff82 28 56 26 ffffff92 28 5c 1c ffffff82 28 5c 23 ffffff92 28   V..(V&.(\..(\#.(
5c 1d ffffff82 28 5c 23 ffffff92 28 53 1a ffffff82 28 53 25 ffffff92 28   \..(\#.(S..(S%.(
59 1e ffffff82 28 59 23 ffffff92 28 62 1b ffffff82 28 62 24 ffffff92 28   Y..(Y#.(b..(b$.(
68 1d ffffff82 28 68 23 ffffff92 28 62 19 ffffff82 28 62 26 ffffff92 28   h..(h#.(b..(b&.(
5c 1b ffffff82 28 5c 24 ffffff92 28 68 1b ffffff82 28 68 26 ffffff92 25   \..(\$.(h..(h&.%
6e 20 ffffff82 25 6e 20 ffffff92 25 62 28 ffffff82 25 62 17 ffffff92 25   n .%n .%b(.%b..%
59 28 ffffff82 25 59 17 ffffff92 25 68 25 ffffff82 25 68 1b ffffff92 25   Y(.%Y..%h%.%h..%
72 24 ffffff82 25 72 1b ffffff92 25 68 28 ffffff82 25 68 19 ffffff92 25   r$.%r..%h(.%h..%
68 28 ffffff82 25 68 17 ffffff92 25 62 27 ffffff82 25 62 19 ffffff92 23   h(.%h..%b'.%b..#
4d 29 ffffff82 23 4d 16 ffffff92 23 5c 28 ffffff82 23 5c 17 ffffff92 23   M).#M..#\(.#\..#
68 27 ffffff82 23 68 1a ffffff92 23 56 23 ffffff82 23 56 1d ffffff92 21   h'.#h..#V#.#V..!
62 26 ffffff82 21 62 19 ffffff92 21 62 26 ffffff82 21 62 19 ffffff92 21   b&.!b..!b&.!b..!
56 27 ffffff82 21 56 19 ffffff92 21 59 28 ffffff82 21 59 17 ffffff92 28   V'.!V..!Y(.!Y..(
50 26 ffffff82 28 50 1b ffffff92 28 53 2a ffffff82 28 53 15 ffffff92 28   P&.(P..(S*.(S..(
53 27 ffffff82 28 53 19 ffffff92 28 53 29 ffffff82 28 53 16 ffffff92 28   S'.(S..(S).(S..(
4d 28 ffffff82 28 4d 17 ffffff92 28 4a 27 ffffff82 28 4a 1a ffffff92 28   M(.(M..(J'.(J..(
59 28 ffffff82 28 59 18 ffffff92 28 53 28 ffffff82 28 53 17 ffffff92 28   Y(.(Y..(S(.(S..(
56 25 ffffff82 28 56 1a ffffff92 28 62 25 ffffff82 28 62 1b ffffff92 28   V%.(V..(b%.(b..(
59 28 ffffff82 28 59 17 ffffff92 28 68 2f ffffff82 28 68 12 ffffff92 1c   Y(.(Y..(h/.(h...
68 20 ffffff82 1c 68 ffffff81 5d ffffff92 28 7a 1b ffffff82 28 7a ffffff83 63   h ..h.].(z..(z.c
ffffff92 28 7d 20 ffffff82 28 7d ffffff83 5d ffffff92 28 7d 23 ffffff82 28 7d   .(} .(}.].(}#.(}
ffffff83 5b ffffff92 28 74 2b ffffff82 28 74 ffffff83 51 ffffff92 28 56 17 ffffff82   .[.(t+.(t.Q.(V..
28 56 28 ffffff92 28 5c 19 ffffff82 28 5c 28 ffffff92 28 56 19 ffffff82   (V(.(\..(\(.(V..
28 56 27 ffffff92 28 5c 19 ffffff82 28 5c 26 ffffff92 28 59 1b ffffff82   (V'.(\..(\&.(Y..
28 59 24 ffffff92 28 5c 1b ffffff82 28 5c 25 ffffff92 28 53 1a ffffff82   (Y$.(\..(\%.(S..
28 53 25 ffffff92 28 53 1c ffffff82 28 53 25 ffffff92 28 5c 1b ffffff82   (S%.(S..(S%.(\..
28 5c 24 ffffff92 28 5c 1d ffffff82 28 5c 23 ffffff92 28 59 1a ffffff82   (\$.(\..(\#.(Y..
28 59 25 ffffff92 28 53 1c ffffff82 28 53 23 ffffff92 28 59 1b ffffff82   (Y%.(S..(S#.(Y..
28 59 26 ffffff92 28 5c 1b ffffff82 28 5c 25 ffffff92 28 56 1a ffffff82   (Y&.(\..(\%.(V..
28 56 25 ffffff92 28 47 1c ffffff82 28 47 23 ffffff92 28 4d 1e ffffff82   (V%.(G..(G#.(M..
28 4d 22 ffffff92 28 5c 1a ffffff82 28 5c 25 ffffff92 28 5c 1c ffffff82   (M".(\..(\%.(\..
28 5c 25 ffffff92 28 59 1b ffffff82 28 59 24 ffffff92 28 62 1b ffffff82   (\%.(Y..(Y$.(b..
28 62 25 ffffff92 28 59 1c ffffff82 28 59 23 ffffff92 28 56 1b ffffff82   (b%.(Y..(Y#.(V..
28 56 24 ffffff92 28 5c 1e ffffff82 28 5c 23 ffffff92 28 5c 1b ffffff82   (V$.(\..(\#.(\..
28 5c 25 ffffff92 28 53 1a ffffff82 28 53 25 ffffff92 28 59 1c ffffff82   (\%.(S..(S%.(Y..
28 59 23 ffffff92 28 62 1b ffffff82 28 62 25 ffffff92 28 68 1c ffffff82   (Y#.(b..(b%.(h..
28 68 23 ffffff92 28 62 1b ffffff82 28 62 26 ffffff92 28 5c 19 ffffff82   (h#.(b..(b&.(\..
28 5c 26 ffffff92 28 68 1b ffffff82 28 68 25 ffffff92 21 56 17 ffffff82   (\&.(h..(h%.!V..
21 56 28 ffffff92 21 5c 19 ffffff82 21 5c 26 ffffff92 21 56 1b ffffff82   !V(.!\..!\&.!V..
21 56 26 ffffff92 21 5c 19 ffffff82 21 5c 27 ffffff92 21 59 1a ffffff82   !V&.!\..!\'.!Y..
21 59 25 ffffff92 21 5c 1b ffffff82 21 5c 24 ffffff92 21 53 1b ffffff82   !Y%.!\..!\$.!S..
21 53 25 ffffff92 21 53 1c ffffff82 21 53 23 ffffff92 21 5c 1c ffffff82   !S%.!S..!S#.!\..
21 5c 25 ffffff92 21 5c 1b ffffff82 21 5c 24 ffffff92 21 59 19 ffffff82   !\%.!\..!\$.!Y..
21 59 27 ffffff92 21 53 1c ffffff82 21 53 23 ffffff92 21 59 1b ffffff82   !Y'.!S..!S#.!Y..
21 59 24 ffffff92 21 5c 1d ffffff82 21 5c 24 ffffff92 21 56 1b ffffff82   !Y$.!\..!\$.!V..
21 56 25 ffffff92 21 47 1c ffffff82 21 47 23 ffffff92 21 4d 1e ffffff82   !V%.!G..!G#.!M..
21 4d 21 ffffff92 21 5c 1b ffffff82 21 5c 25 ffffff92 21 5c 1c ffffff82   !M!.!\..!\%.!\..
21 5c 23 ffffff92 21 59 1c ffffff82 21 59 25 ffffff92 21 62 1b ffffff82   !\#.!Y..!Y%.!b..
21 62 24 ffffff92 21 59 1d ffffff82 21 59 23 ffffff92 21 56 19 ffffff82   !b$.!Y..!Y#.!V..
21 56 26 ffffff92 21 5c 1e ffffff82 21 5c 21 ffffff92 21 5c 1d ffffff82   !V&.!\..!\!.!\..
21 5c 24 ffffff92 21 53 1b ffffff82 21 53 25 ffffff92 21 59 1c ffffff82   !\$.!S..!S%.!Y..
21 59 23 ffffff92 21 62 1b ffffff82 21 62 24 ffffff92 21 68 1d ffffff82   !Y#.!b..!b$.!h..
21 68 23 ffffff92 21 62 1a ffffff82 21 62 25 ffffff92 21 5c 1b ffffff82   !h#.!b..!b%.!\..
21 5c 26 ffffff92 21 68 19 ffffff82 21 68 26 ffffff92 28 56 18 ffffff82   !\&.!h..!h&.(V..
28 56 28 ffffff92 28 5c 19 ffffff82 28 5c 26 ffffff92 28 56 19 ffffff82   (V(.(\..(\&.(V..
28 56 26 ffffff92 28 5c 1b ffffff82 28 5c 26 ffffff92 28 59 1b ffffff82   (V&.(\..(\&.(Y..
28 59 25 ffffff92 28 5c 1a ffffff82 28 5c 25 ffffff92 28 53 1b ffffff82   (Y%.(\..(\%.(S..
28 53 24 ffffff92 28 53 1d ffffff82 28 53 23 ffffff92 28 5c 1a ffffff82   (S$.(S..(S#.(\..
28 5c 25 ffffff92 28 5c 1c ffffff82 28 5c 25 ffffff92 28 59 19 ffffff82   (\%.(\..(\%.(Y..
28 59 26 ffffff92 28 53 1b ffffff82 28 53 25 ffffff92 28 59 1a ffffff82   (Y&.(S..(S%.(Y..
28 59 25 ffffff92 28 5c 1c ffffff82 28 5c 23 ffffff92 28 56 1d ffffff82   (Y%.(\..(\#.(V..
28 56 24 ffffff92 28 47 1b ffffff82 28 47 25 ffffff92 28 4d 1e ffffff82   (V$.(G..(G%.(M..
28 4d 21 ffffff92 28 5c 19 ffffff82 28 5c 26 ffffff92 28 5c 1d ffffff82   (M!.(\..(\&.(\..
28 5c 23 ffffff92 28 59 1a ffffff82 28 59 25 ffffff92 28 62 1c ffffff82   (\#.(Y..(Y%.(b..
28 62 25 ffffff92 28 59 1c ffffff82 28 59 23 ffffff92 28 56 19 ffffff82   (b%.(Y..(Y#.(V..
28 56 27 ffffff92 28 5c 1c ffffff82 28 5c 23 ffffff92 28 5c 1c ffffff82   (V'.(\..(\#.(\..
28 5c 23 ffffff92 28 53 1d ffffff82 28 53 24 ffffff92 28 59 1d ffffff82   (\#.(S..(S$.(Y..
28 59 23 ffffff92 28 62 1a ffffff82 28 62 25 ffffff92 28 68 1c ffffff82   (Y#.(b..(b%.(h..
28 68 23 ffffff92 28 62 19 ffffff82 28 62 27 ffffff92 28 5c 1a ffffff82   (h#.(b..(b'.(\..
28 5c 25 ffffff92 28 68 1b ffffff82 28 68 26 ffffff92 25 6e 20 ffffff82   (\%.(h..(h&.%n .
25 6e 1f ffffff92 25 62 28 ffffff82 25 62 18 ffffff92 25 59 28 ffffff82   %n..%b(.%b..%Y(.
25 59 17 ffffff92 25 68 25 ffffff82 25 68 1a ffffff92 25 72 25 ffffff82   %Y..%h%.%h..%r%.
25 72 1c ffffff92 25 68 27 ffffff82 25 68 19 ffffff92 25 68 28 ffffff82   %r..%h'.%h..%h(.
25 68 17 ffffff92 25 62 26 ffffff82 25 62 19 ffffff92 23 4d 2a ffffff82   %h..%b&.%b..#M*.
23 4d 16 ffffff92 23 5c 28 ffffff82 23 5c 17 ffffff92 23 68 26 ffffff82   #M..#\(.#\..#h&.
23 68 1b ffffff92 23 56 25 ffffff82 23 56 1a ffffff92 21 62 27 ffffff82   #h..#V%.#V..!b'.
21 62 19 ffffff92 21 62 26 ffffff82 21 62 19 ffffff92 21 56 26 ffffff82   !b..!b&.!b..!V&.
21 56 19 ffffff92 21 59 28 ffffff82 21 59 19 ffffff92 28 50 25 ffffff82   !V..!Y(.!Y..(P%.
28 50 1b ffffff92 28 53 29 ffffff82 28 53 16 ffffff92 28 53 26 ffffff82   (P..(S).(S..(S&.
28 53 19 ffffff92 28 53 2a ffffff82 28 53 16 ffffff92 28 4d 28 ffffff82   (S..(S*.(S..(M(.
28 4d 17 ffffff92 28 4a 26 ffffff82 28 4a 1b ffffff92 28 59 28 ffffff82   (M..(J&.(J..(Y(.
28 59 17 ffffff92 28 53 28 ffffff82 28 53 18 ffffff92 28 56 24 ffffff82   (Y..(S(.(S..(V$.
28 56 1b ffffff92 28 62 25 ffffff82 28 62 1a ffffff92 28 59 28 ffffff82   (V..(b%.(b..(Y(.
28 59 19 ffffff92 28 68 2d ffffff82 28 68 13 ffffff92 1c 68 1f ffffff82   (Y..(h-.(h...h..
1c 68 ffffff81 5e ffffffff 2f 00 4d 54 72 6b 00 00 16 2d 00   .h.^./.MTrk...-.
ffffffb9 07 64 00 ffffffb9 0a 40 00 ffffffc9 00 00 ffffff99 24 7b 00 ffffff99   ..d...@.....${..
28 73 00 ffffff99 29 78 00 ffffffb9 07 64 00 ffffffb9 0a 40 00 ffffffb9   (s..)x...d...@..
07 64 00 ffffffb9 0a 40 00 ffffffb9 07 64 00 ffffffb9 0a 40 00 ffffffb9   .d...@...d...@..
07 64 00 ffffffb9 0a 40 1c ffffff89 24 78 05 ffffff89 28 78 02 ffffff89   .d...@..$x..(x..
29 78 ffffff83 59 ffffff99 24 7b 00 ffffff99 29 7b 00 ffffff99 28 7b 19   )x.Y.${..){..({.
ffffff89 24 7b 00 ffffff89 29 7b 03 ffffff89 28 7b ffffff83 60 ffffff99 24 7b   .${..){..({.`.${
00 ffffff99 29 7b 00 ffffff99 28 7b 18 ffffff89 24 7b 03 ffffff89 29 7b   ..){..({..${..){
02 ffffff89 28 7b ffffff83 61 ffffff99 24 77 00 ffffff99 29 7b 00 ffffff99 28   ..({.a.$w..){..(
77 18 ffffff89 24 77 03 ffffff89 29 77 03 ffffff89 28 77 ffffff83 5f ffffff99   w..$w..)w..(w._.
24 7b 00 ffffff99 28 7b 00 ffffff99 29 7b 00 ffffff99 39 3d 00 ffffff99   ${..({..){..9=..
31 47 14 ffffff89 24 47 00 ffffff89 39 47 01 ffffff89 31 47 00 ffffff89   1G..$G..9G..1G..
28 47 02 ffffff89 29 47 19 ffffff99 39 17 00 ffffff99 31 17 0a ffffff89   (G..)G..9...1...
39 17 00 ffffff89 31 17 ffffff83 44 ffffff99 24 7b 00 ffffff99 29 7b 00   9...1..D.${..){.
ffffff99 28 7b 00 ffffff99 39 40 00 ffffff99 31 46 14 ffffff89 39 46 01   .({..9@..1F..9F.
ffffff89 24 46 00 ffffff89 31 46 00 ffffff89 28 46 02 ffffff89 29 46 17   .$F..1F..(F..)F.
ffffff99 39 17 00 ffffff99 31 17 0c ffffff89 39 17 00 ffffff89 31 17 ffffff83   .9...1...9...1..
42 ffffff99 24 7a 00 ffffff99 28 79 00 ffffff99 29 7b 00 ffffff99 31 4a   B.$z..(y..){..1J
00 ffffff99 39 38 12 ffffff89 39 38 02 ffffff89 31 38 05 ffffff89 24 38   ..98..98..18..$8
02 ffffff89 29 38 01 ffffff89 28 38 14 ffffff99 31 17 00 ffffff99 39 17   ..)8..(8..1...9.
0a ffffff89 31 17 00 ffffff89 39 17 ffffff83 44 ffffff99 24 7b 00 ffffff99 29   ..1...9..D.${..)
7b 00 ffffff99 28 7b 00 ffffff99 31 4a 00 ffffff99 39 44 11 ffffff89 39   {..({..1J..9D..9
44 03 ffffff89 31 44 02 ffffff89 24 44 03 ffffff89 29 44 02 ffffff89 28   D..1D..$D..)D..(
44 14 ffffff99 31 17 00 ffffff99 39 17 0b ffffff89 31 17 00 ffffff89 39   D..1...9...1...9
17 ffffff81 43 ffffff99 29 5b 00 ffffff99 28 5a 00 ffffff99 24 5d 0f ffffff89   ..C.)[..(Z..$]..
29 5d 00 ffffff89 28 5d 00 ffffff89 24 5d 11 ffffff99 24 55 00 ffffff99   )]..(]..$]..$U..
29 5d 00 ffffff99 28 51 0d ffffff89 29 51 00 ffffff89 28 51 02 ffffff89   )]..(Q..)Q..(Q..
24 51 12 ffffff99 24 58 00 ffffff99 28 58 00 ffffff99 29 5a 0f ffffff89   $Q..$X..(X..)Z..
24 5a 00 ffffff89 29 5a 02 ffffff89 28 5a 0f ffffff99 24 58 00 ffffff99   $Z..)Z..(Z..$X..
29 5b 00 ffffff99 28 49 0d ffffff89 29 49 02 ffffff89 28 49 02 ffffff89   )[..(I..)I..(I..
24 49 0f ffffff99 24 5d 00 ffffff99 29 58 00 ffffff99 28 58 0d ffffff89   $I..$]..)X..(X..
24 58 02 ffffff89 29 58 00 ffffff89 28 58 10 ffffff99 24 5d 00 ffffff99   $X..)X..(X..$]..
28 52 00 ffffff99 29 57 0f ffffff89 29 57 00 ffffff89 24 57 00 ffffff89   (R..)W..)W..$W..
28 57 11 ffffff99 24 5b 00 ffffff99 28 5b 00 ffffff99 29 5d 0d ffffff89   (W..$[..([..)]..
24 5d 02 ffffff89 29 5d 02 ffffff89 28 5d 0f ffffff99 24 5d 00 ffffff99   $]..)]..(]..$]..
29 5d 00 ffffff99 28 5a 0f ffffff89 29 5a 00 ffffff89 28 5a 00 ffffff89   )]..(Z..)Z..(Z..
24 5a 10 ffffff99 24 76 02 ffffff99 2e 48 16 ffffff89 2e 48 03 ffffff89   $Z..$v...H...H..
24 48 25 ffffff99 28 76 03 ffffff99 2e 55 12 ffffff89 28 55 04 ffffff89   $H%.(v...U..(U..
2e 55 26 ffffff99 24 74 05 ffffff99 2e 51 0d ffffff89 24 51 0a ffffff89   .U&.$t...Q..$Q..
2e 51 05 ffffff99 24 76 14 ffffff89 24 76 0c ffffff99 28 7b 03 ffffff99   .Q..$v..$v..({..
2e 51 11 ffffff89 28 51 07 ffffff89 2e 51 24 ffffff99 24 7b 02 ffffff99   .Q..(Q...Q$.${..
2e 4b 17 ffffff89 24 4b 02 ffffff89 2e 4b 25 ffffff99 28 75 05 ffffff99   .K..$K...K%.(u..
2e 48 10 ffffff89 28 48 07 ffffff89 2e 48 23 ffffff99 24 74 03 ffffff99   .H..(H...H#.$t..
2e 4b 0e ffffff89 24 4b 08 ffffff89 2e 4b 07 ffffff99 24 79 14 ffffff89   .K..$K...K..$y..
24 79 0b ffffff99 28 7a 04 ffffff99 2e 4e 10 ffffff89 28 4e 07 ffffff89   $y..(z...N..(N..
2e 4e 26 ffffff99 24 7a 02 ffffff99 2e 44 16 ffffff89 24 44 00 ffffff89   .N&.$z...D..$D..
2e 44 28 ffffff99 28 79 03 ffffff99 2e 48 11 ffffff89 28 48 03 ffffff89   .D(.(y...H..(H..
2e 48 28 ffffff99 24 74 07 ffffff99 2e 41 0a ffffff89 24 41 0b ffffff89   .H(.$t...A..$A..
2e 41 04 ffffff99 24 75 14 ffffff89 24 75 0b ffffff99 28 7a 05 ffffff99   .A..$u..$u..(z..
2e 4b 0f ffffff89 28 4b 05 ffffff89 2e 4b 27 ffffff99 24 7b 00 ffffff99   .K..(K...K'.${..
2e 4b 15 ffffff89 2e 4b 05 ffffff89 24 4b 25 ffffff99 28 75 02 ffffff99   .K...K..$K%.(u..
2e 45 14 ffffff89 28 45 00 ffffff89 2e 45 29 ffffff99 2e 49 02 ffffff99   .E..(E...E)..I..
24 79 11 ffffff89 24 79 03 ffffff89 2e 79 0c ffffff99 24 78 14 ffffff89   $y..$y...y..$x..
24 78 0b ffffff99 28 7a 02 ffffff99 2e 47 12 ffffff89 28 47 04 ffffff89   $x..(z...G..(G..
2e 47 26 ffffff99 2e 4b 02 ffffff99 24 7a 14 ffffff89 2e 7a 05 ffffff89   .G&..K..$z...z..
24 7a 26 ffffff99 2e 45 00 ffffff99 28 79 14 ffffff89 2e 79 02 ffffff89   $z&..E..(y...y..
28 79 29 ffffff99 2e 4f 00 ffffff99 24 7a 13 ffffff89 24 7a 03 ffffff89   (y)..O..$z..$z..
2e 7a 0a ffffff99 24 73 14 ffffff89 24 73 0c ffffff99 2e 47 01 ffffff99   .z..$s..$s...G..
28 7b 13 ffffff89 28 7b 03 ffffff89 2e 7b 2a ffffff99 24 7a 01 ffffff99   ({..({...{*.$z..
2e 41 16 ffffff89 24 41 00 ffffff89 2e 41 28 ffffff99 28 7a 02 ffffff99   .A..$A...A(.(z..
2e 4b 14 ffffff89 28 4b 00 ffffff89 2e 4b 29 ffffff99 24 7a 00 ffffff99   .K..(K...K).$z..
2e 48 16 ffffff89 2e 48 03 ffffff89 24 48 27 ffffff99 28 7a 03 ffffff99   .H...H..$H'.(z..
2e 47 12 ffffff89 28 47 02 ffffff89 2e 47 28 ffffff99 24 7b 02 ffffff99   .G..(G...G(.${..
2e 48 14 ffffff89 2e 48 03 ffffff89 24 48 26 ffffff99 2e 49 02 ffffff99   .H...H..$H&..I..
28 7b 12 ffffff89 2e 7b 04 ffffff89 28 7b 28 ffffff99 2e 47 01 ffffff99   ({...{..({(..G..
24 7a 11 ffffff89 24 7a 05 ffffff89 2e 7a 0a ffffff99 24 7a 14 ffffff89   $z..$z...z..$z..
24 7a 0c ffffff99 28 78 01 ffffff99 2e 49 13 ffffff89 28 49 01 ffffff89   $z..(x...I..(I..
2e 49 2a ffffff99 24 52 02 ffffff99 32 5b 01 ffffff99 28 52 05 ffffff89   .I*.$R..2[..(R..
24 52 04 ffffff89 32 52 01 ffffff89 28 52 13 ffffff99 24 5c 0a ffffff89   $R..2R..(R..$\..
24 5c 15 ffffff99 24 5c 04 ffffff99 28 55 01 ffffff99 2f 55 05 ffffff89   $\..$\..(U../U..
24 55 02 ffffff89 28 55 03 ffffff89 2f 55 11 ffffff99 24 5d 0c ffffff89   $U..(U../U..$]..
24 5d 15 ffffff99 24 57 05 ffffff99 2d 5d 02 ffffff99 28 5b 03 ffffff89   $]..$W..-]..([..
24 5b 05 ffffff89 2d 5b 00 ffffff89 28 5b 11 ffffff99 24 5d 0a ffffff89   $[..-[..([..$]..
24 5d 16 ffffff99 24 5d 05 ffffff99 28 5a 01 ffffff99 29 49 04 ffffff89   $]..$]..(Z..)I..
24 49 03 ffffff89 28 49 02 ffffff89 29 49 10 ffffff99 24 5d 04 ffffff99   $I..(I..)I..$]..
28 5b 00 ffffff99 29 58 06 ffffff89 24 58 02 ffffff89 28 58 03 ffffff89   ([..)X..$X..(X..
29 58 11 ffffff99 24 76 00 ffffff99 33 70 14 ffffff89 33 70 07 ffffff89   )X..$v..3p..3p..
24 70 24 ffffff99 28 76 00 ffffff99 33 74 11 ffffff89 33 74 05 ffffff89   $p$.(v..3t..3t..
28 74 2a ffffff99 24 74 00 ffffff99 33 74 10 ffffff89 24 74 04 ffffff89   (t*.$t..3t..$t..
33 74 0b ffffff99 24 76 16 ffffff89 24 76 0a ffffff99 28 7b 00 ffffff99   3t..$v..$v..({..
33 6e 12 ffffff89 33 6e 02 ffffff89 28 6e 2d ffffff99 24 7b 00 ffffff99   3n..3n..(n-.${..
33 75 14 ffffff89 33 75 03 ffffff89 24 75 28 ffffff99 28 75 00 ffffff99   3u..3u..$u(.(u..
33 77 14 ffffff89 33 77 00 ffffff89 28 77 2c ffffff99 24 74 00 ffffff99   3w..3w..(w,.$t..
33 6f 10 ffffff89 24 6f 05 ffffff89 33 6f 0a ffffff99 24 79 14 ffffff89   3o..$o..3o..$y..
24 79 0c ffffff99 28 7a 00 ffffff99 33 6f 14 ffffff89 28 6f 02 ffffff89   $y..(z..3o..(o..
33 6f 29 ffffff99 24 7a 00 ffffff99 33 6c 14 ffffff89 33 6c 05 ffffff89   3o).$z..3l..3l..
24 6c 28 ffffff99 28 79 00 ffffff99 33 6f 13 ffffff89 33 6f 01 ffffff89   $l(.(y..3o..3o..
28 6f 2c ffffff99 24 74 00 ffffff99 33 65 10 ffffff89 24 65 04 ffffff89   (o,.$t..3e..$e..
33 65 0b ffffff99 24 75 13 ffffff89 24 75 0d ffffff99 28 7a 00 ffffff99   3e..$u..$u..(z..
33 70 14 ffffff89 28 70 02 ffffff89 33 70 29 ffffff99 24 7b 00 ffffff99   3p..(p..3p).${..
33 69 14 ffffff89 33 69 05 ffffff89 24 69 27 ffffff99 28 75 00 ffffff99   3i..3i..$i'.(u..
33 6c 14 ffffff89 33 6c 01 ffffff89 28 6c 2a ffffff99 24 79 00 ffffff99   3l..3l..(l*.$y..
33 75 12 ffffff89 24 75 02 ffffff89 33 75 0d ffffff99 24 78 14 ffffff89   3u..$u..3u..$x..
24 78 0c ffffff99 28 7a 00 ffffff99 33 6c 12 ffffff89 28 6c 02 ffffff89   $x..(z..3l..(l..
33 6c 2b ffffff99 24 7a 00 ffffff99 33 6b 14 ffffff89 33 6b 05 ffffff89   3l+.$z..3k..3k..
24 6b 27 ffffff99 28 79 00 ffffff99 33 73 14 ffffff89 33 73 00 ffffff89   $k'.(y..3s..3s..
28 73 2b ffffff99 24 7a 00 ffffff99 33 6b 12 ffffff89 24 6b 04 ffffff89   (s+.$z..3k..$k..
33 6b 0a ffffff99 24 73 14 ffffff89 24 73 0b ffffff99 28 7b 00 ffffff99   3k..$s..$s..({..
33 72 13 ffffff89 28 72 01 ffffff89 33 72 2d ffffff99 24 7a 00 ffffff99   3r..(r..3r-.$z..
33 6e 14 ffffff89 33 6e 04 ffffff89 24 6e 28 ffffff99 28 7a 00 ffffff99   3n..3n..$n(.(z..
33 77 12 ffffff89 33 77 03 ffffff89 28 77 2a ffffff99 24 7a 00 ffffff99   3w..3w..(w*.$z..
33 6e 14 ffffff89 33 6e 03 ffffff89 24 6e 28 ffffff99 28 7a 00 ffffff99   3n..3n..$n(.(z..
33 6e 14 ffffff89 33 6e 02 ffffff89 28 6e 2a ffffff99 24 7b 00 ffffff99   3n..3n..(n*.${..
33 77 14 ffffff89 33 77 05 ffffff89 24 77 26 ffffff99 28 7b 00 ffffff99   3w..3w..$w&.({..
33 73 14 ffffff89 33 73 03 ffffff89 28 73 2a ffffff99 24 7a 00 ffffff99   3s..3s..(s*.$z..
33 77 11 ffffff89 24 77 05 ffffff89 33 77 0a ffffff99 24 7a 14 ffffff89   3w..$w..3w..$z..
24 7a 0b ffffff99 28 78 00 ffffff99 33 75 14 ffffff89 33 75 00 ffffff89   $z..(x..3u..3u..
28 75 2c ffffff99 33 71 03 ffffff99 28 52 05 ffffff89 28 52 08 ffffff99   (u,.3q..(R..(R..
28 58 02 ffffff89 33 58 03 ffffff89 28 58 0c ffffff99 24 4f 05 ffffff89   (X..3X..(X..$O..
24 4f 19 ffffff99 28 5d 07 ffffff89 28 5d 1a ffffff99 24 58 04 ffffff89   $O..(]..(]..$X..
24 58 0b ffffff99 24 56 07 ffffff89 24 56 0a ffffff99 28 5d 07 ffffff89   $X..$V..$V..(]..
28 5d 08 ffffff99 28 57 08 ffffff89 28 57 0a ffffff99 24 56 05 ffffff89   (]..(W..(W..$V..
24 56 0a ffffff99 24 5d 07 ffffff89 24 5d 0a ffffff99 28 5d 07 ffffff89   $V..$]..$]..(]..
28 5d 0a ffffff99 28 58 06 ffffff89 28 58 09 ffffff99 24 5d 05 ffffff89   (]..(X..(X..$]..
24 5d 19 ffffff99 24 76 00 ffffff99 2e 48 17 ffffff89 2e 48 02 ffffff89   $]..$v...H...H..
24 48 26 ffffff99 28 76 02 ffffff99 2e 55 14 ffffff89 28 55 03 ffffff89   $H&.(v...U..(U..
2e 55 26 ffffff99 24 74 04 ffffff99 2e 51 0d ffffff89 24 51 0a ffffff89   .U&.$t...Q..$Q..
2e 51 05 ffffff99 24 76 16 ffffff89 24 76 0a ffffff99 28 7b 05 ffffff99   .Q..$v..$v..({..
2e 51 0f ffffff89 28 51 06 ffffff89 2e 51 25 ffffff99 24 7b 03 ffffff99   .Q..(Q...Q%.${..
2e 4b 16 ffffff89 24 4b 02 ffffff89 2e 4b 26 ffffff99 28 75 03 ffffff99   .K..$K...K&.(u..
2e 48 11 ffffff89 28 48 07 ffffff89 2e 48 24 ffffff99 24 74 02 ffffff99   .H..(H...H$.$t..
2e 4b 0f ffffff89 24 4b 08 ffffff89 2e 4b 07 ffffff99 24 79 12 ffffff89   .K..$K...K..$y..
24 79 0e ffffff99 28 7a 03 ffffff99 2e 4e 11 ffffff89 28 4e 05 ffffff89   $y..(z...N..(N..
2e 4e 26 ffffff99 24 7a 02 ffffff99 2e 44 17 ffffff89 24 44 00 ffffff89   .N&.$z...D..$D..
2e 44 26 ffffff99 28 79 04 ffffff99 2e 48 12 ffffff89 28 48 03 ffffff89   .D&.(y...H..(H..
2e 48 28 ffffff99 24 74 07 ffffff99 2e 41 0a ffffff89 24 41 0c ffffff89   .H(.$t...A..$A..
2e 41 03 ffffff99 24 75 12 ffffff89 24 75 0e ffffff99 28 7a 05 ffffff99   .A..$u..$u..(z..
2e 4b 0f ffffff89 28 4b 05 ffffff89 2e 4b 26 ffffff99 24 7b 00 ffffff99   .K..(K...K&.${..
2e 4b 16 ffffff89 2e 4b 03 ffffff89 24 4b 26 ffffff99 28 75 02 ffffff99   .K...K..$K&.(u..
2e 45 14 ffffff89 28 45 00 ffffff89 2e 45 2a ffffff99 2e 49 00 ffffff99   .E..(E...E*..I..
24 79 10 ffffff89 24 79 05 ffffff89 2e 79 0a ffffff99 24 78 16 ffffff89   $y..$y...y..$x..
24 78 0a ffffff99 28 7a 03 ffffff99 2e 47 11 ffffff89 28 47 05 ffffff89   $x..(z...G..(G..
2e 47 26 ffffff99 2e 4b 02 ffffff99 24 7a 14 ffffff89 2e 7a 05 ffffff89   .G&..K..$z...z..
24 7a 25 ffffff99 2e 45 01 ffffff99 28 79 14 ffffff89 2e 79 00 ffffff89   $z%..E..(y...y..
28 79 2c ffffff99 2e 4f 00 ffffff99 24 7a 12 ffffff89 24 7a 02 ffffff89   (y,..O..$z..$z..
2e 7a 0b ffffff99 24 73 14 ffffff89 24 73 0c ffffff99 2e 47 00 ffffff99   .z..$s..$s...G..
28 7b 12 ffffff89 28 7b 05 ffffff89 2e 7b 28 ffffff99 24 7a 04 ffffff99   ({..({...{(.$z..
2e 41 14 ffffff89 24 41 01 ffffff89 2e 41 28 ffffff99 28 7a 02 ffffff99   .A..$A...A(.(z..
2e 4b 14 ffffff89 28 4b 00 ffffff89 2e 4b 2a ffffff99 24 7a 00 ffffff99   .K..(K...K*.$z..
2e 48 14 ffffff89 2e 48 03 ffffff89 24 48 28 ffffff99 28 7a 03 ffffff99   .H...H..$H(.(z..
2e 47 13 ffffff89 28 47 01 ffffff89 2e 47 28 ffffff99 24 7b 02 ffffff99   .G..(G...G(.${..
2e 48 14 ffffff89 2e 48 02 ffffff89 24 48 26 ffffff99 2e 49 02 ffffff99   .H...H..$H&..I..
28 7b 12 ffffff89 2e 7b 05 ffffff89 28 7b 28 ffffff99 2e 47 00 ffffff99   ({...{..({(..G..
24 7a 12 ffffff89 24 7a 05 ffffff89 2e 7a 0a ffffff99 24 7a 14 ffffff89   $z..$z...z..$z..
24 7a 0c ffffff99 28 78 02 ffffff99 2e 49 12 ffffff89 28 49 02 ffffff89   $z..(x...I..(I..
2e 49 29 ffffff99 26 55 00 ffffff99 28 5c 04 ffffff89 26 5c 01 ffffff89   .I).&U..(\..&\..
28 5c 18 ffffff99 24 56 05 ffffff89 24 56 1a ffffff99 26 52 02 ffffff99   (\..$V..$V..&R..
28 5c 02 ffffff89 26 5c 01 ffffff89 28 5c 1d ffffff99 24 5b 05 ffffff89   (\..&\..(\..$[..
24 5b 1c ffffff99 26 4f 00 ffffff99 28 58 03 ffffff89 26 58 02 ffffff89   $[..&O..(X..&X..
28 58 08 ffffff99 26 4f 02 ffffff99 28 5a 02 ffffff89 26 5a 03 ffffff89   (X..&O..(Z..&Z..
28 5a 0c ffffff99 24 5d 05 ffffff89 24 5d 19 ffffff99 26 57 01 ffffff99   (Z..$]..$]..&W..
28 5d 02 ffffff89 26 5d 02 ffffff89 28 5d 1a ffffff99 24 5d 04 ffffff89   (]..&]..(]..$]..
24 5d 1f ffffff99 24 76 00 ffffff99 39 4f 14 ffffff89 39 4f 05 ffffff89   $]..$v..9O..9O..
24 4f 25 ffffff99 35 7b 02 ffffff99 28 76 06 ffffff89 35 76 0f ffffff89   $O%.5{..(v..5v..
28 76 28 ffffff99 35 7d 02 ffffff99 24 74 05 ffffff89 35 74 0c ffffff89   (v(.5}..$t..5t..
24 74 0f ffffff99 24 76 15 ffffff89 24 76 09 ffffff99 35 7a 01 ffffff99   $t..$v..$v..5z..
28 7b 05 ffffff89 35 7b 0f ffffff89 28 7b 2c ffffff99 35 7c 00 ffffff99   ({..5{..({,.5|..
24 7b 06 ffffff89 35 7b 13 ffffff89 24 7b 26 ffffff99 28 75 02 ffffff99   ${..5{..${&.(u..
35 72 06 ffffff89 35 72 0e ffffff89 28 72 2b ffffff99 24 74 00 ffffff99   5r..5r..(r+.$t..
35 78 07 ffffff89 35 78 0a ffffff89 24 78 0f ffffff99 24 79 12 ffffff89   5x..5x..$x..$y..
24 79 0c ffffff99 35 7c 01 ffffff99 28 7a 05 ffffff89 35 7a 0f ffffff89   $y..5|..(z..5z..
28 7a 2c ffffff99 24 7a 00 ffffff99 31 4f 17 ffffff89 24 4f 03 ffffff89   (z,.$z..1O..$O..
31 4f 23 ffffff99 35 7c 02 ffffff99 28 79 07 ffffff89 35 79 0f ffffff89   1O#.5|..(y..5y..
28 79 28 ffffff99 35 77 01 ffffff99 24 74 07 ffffff89 35 74 0a ffffff89   (y(.5w..$t..5t..
24 74 0f ffffff99 24 75 14 ffffff89 24 75 0a ffffff99 35 7c 03 ffffff99   $t..$u..$u..5|..
28 7a 04 ffffff89 35 7a 10 ffffff89 28 7a 2a ffffff99 35 7d 02 ffffff99   (z..5z..(z*.5}..
24 7b 06 ffffff89 35 7b 13 ffffff89 24 7b 26 ffffff99 35 7d 00 ffffff99   ${..5{..${&.5}..
28 75 07 ffffff89 35 75 0d ffffff89 28 75 2b ffffff99 35 7d 00 ffffff99   (u..5u..(u+.5}..
24 79 07 ffffff89 35 79 0a ffffff89 24 79 0f ffffff99 24 78 16 ffffff89   $y..5y..$y..$x..
24 78 0a ffffff99 28 7a 00 ffffff99 35 7d 08 ffffff89 35 7d 0c ffffff89   $x..(z..5}..5}..
28 7d 2b ffffff99 24 7a 00 ffffff99 39 4f 16 ffffff89 39 4f 05 ffffff89   (}+.$z..9O..9O..
24 4f 24 ffffff99 35 7d 02 ffffff99 28 79 05 ffffff89 35 79 0f ffffff89   $O$.5}..(y..5y..
28 79 2b ffffff99 24 7a 00 ffffff99 35 7d 09 ffffff89 35 7d 08 ffffff89   (y+.$z..5}..5}..
24 7d 0f ffffff99 24 73 14 ffffff89 24 73 08 ffffff99 35 7c 04 ffffff99   $}..$s..$s..5|..
28 7b 05 ffffff89 35 7b 0d ffffff89 28 7b 2b ffffff99 35 7c 02 ffffff99   ({..5{..({+.5|..
24 7a 07 ffffff89 35 7a 10 ffffff89 24 7a 27 ffffff99 35 7d 01 ffffff99   $z..5z..$z'.5}..
28 7a 07 ffffff89 35 7a 0f ffffff89 28 7a 2a ffffff99 35 7d 01 ffffff99   (z..5z..(z*.5}..
24 7a 07 ffffff89 35 7a 11 ffffff89 24 7a 28 ffffff99 35 77 00 ffffff99   $z..5z..$z(.5w..
28 7a 05 ffffff89 35 7a 10 ffffff89 28 7a 2a ffffff99 24 7b 00 ffffff99   (z..5z..(z*.${..
35 7c 07 ffffff89 35 7c 10 ffffff89 24 7c 28 ffffff99 28 7b 02 ffffff99   5|..5|..$|(.({..
35 7d 07 ffffff89 35 7d 0f ffffff89 28 7d 28 ffffff99 24 7a 01 ffffff99   5}..5}..(}(.$z..
35 7c 07 ffffff89 35 7c 0a ffffff89 24 7c 0d ffffff99 24 7a 16 ffffff89   5|..5|..$|..$z..
24 7a 0a ffffff99 35 7d 00 ffffff99 28 78 07 ffffff89 35 78 0d ffffff89   $z..5}..(x..5x..
28 78 2d ffffff99 26 74 00 ffffff99 24 63 00 ffffff99 35 7d 00 ffffff99   (x-.&t..$c..5}..
28 7a 05 ffffff89 24 7a 02 ffffff89 26 7a 00 ffffff89 35 7a 01 ffffff89   (z..$z..&z..5z..
28 7a ffffff81 75 ffffff99 24 7b 00 ffffff99 28 7b 00 ffffff99 29 7b 00   (z.u.${..({..){.
ffffff99 39 3d 00 ffffff99 31 47 14 ffffff89 24 47 02 ffffff89 39 47 00   .9=..1G..$G..9G.
ffffff89 31 47 00 ffffff89 28 47 02 ffffff89 29 47 19 ffffff99 39 17 00   .1G..(G..)G..9..
ffffff99 31 17 0a ffffff89 39 17 00 ffffff89 31 17 ffffff83 43 ffffff99 24 7b   .1...9...1..C.${
00 ffffff99 29 7b 00 ffffff99 28 7b 00 ffffff99 39 40 00 ffffff99 31 46   ..){..({..9@..1F
16 ffffff89 39 46 00 ffffff89 24 46 00 ffffff89 31 46 02 ffffff89 28 46   ..9F..$F..1F..(F
00 ffffff89 29 46 17 ffffff99 39 17 00 ffffff99 31 17 0c ffffff89 39 17   ..)F..9...1...9.
00 ffffff89 31 17 ffffff83 42 ffffff99 24 7a 00 ffffff99 28 79 00 ffffff99 29   ..1..B.$z..(y..)
7b 00 ffffff99 31 4a 00 ffffff99 39 38 12 ffffff89 39 38 02 ffffff89 31   {..1J..98..98..1
38 05 ffffff89 24 38 01 ffffff89 29 38 02 ffffff89 28 38 14 ffffff99 31   8..$8..)8..(8..1
17 00 ffffff99 39 17 0a ffffff89 31 17 00 ffffff89 39 17 ffffff83 44 ffffff99   ...9...1...9..D.
24 7b 00 ffffff99 29 7b 00 ffffff99 28 7b 00 ffffff99 31 4a 00 ffffff99   ${..){..({..1J..
39 44 12 ffffff89 39 44 02 ffffff89 31 44 01 ffffff89 24 44 04 ffffff89   9D..9D..1D..$D..
29 44 01 ffffff89 28 44 14 ffffff99 31 17 00 ffffff99 39 17 0c ffffff89   )D..(D..1...9...
31 17 00 ffffff89 39 17 ffffff81 43 ffffff99 29 5b 00 ffffff99 28 5a 0f   1...9..C.)[..(Z.
ffffff89 29 5a 00 ffffff89 28 5a 12 ffffff99 24 5d 0f ffffff89 24 5d 11   .)Z..(Z..$]..$].
ffffff99 28 58 00 ffffff99 29 5a 0f ffffff89 29 5a 02 ffffff89 28 5a 0f   .(X..)Z..)Z..(Z.
ffffff99 24 58 0f ffffff89 24 58 10 ffffff99 24 5d 00 ffffff99 29 58 00   .$X..$X..$]..)X.
ffffff99 28 58 0e ffffff89 24 58 01 ffffff89 29 58 00 ffffff89 28 58 11   .(X..$X..)X..(X.
ffffff99 24 5d 00 ffffff99 28 52 00 ffffff99 29 57 0f ffffff89 29 57 00   .$]..(R..)W..)W.
ffffff89 24 57 00 ffffff89 28 57 11 ffffff99 24 5b 00 ffffff99 28 5b 00   .$W..(W..$[..([.
ffffff99 29 5d 0d ffffff89 24 5d 02 ffffff89 29 5d 01 ffffff89 28 5d 0f   .)]..$]..)]..(].
ffffff99 24 5d 00 ffffff99 29 5d 00 ffffff99 28 5a 0f ffffff89 29 5a 00   .$]..)]..(Z..)Z.
ffffff89 28 5a 00 ffffff89 24 5a 11 ffffff99 24 76 02 ffffff99 2e 48 15   .(Z..$Z..$v...H.
ffffff89 2e 48 04 ffffff89 24 48 24 ffffff99 28 76 04 ffffff99 2e 55 12   ..H..$H$.(v...U.
ffffff89 28 55 05 ffffff89 2e 55 26 ffffff99 24 74 04 ffffff99 2e 51 0d   .(U...U&.$t...Q.
ffffff89 24 51 0a ffffff89 2e 51 05 ffffff99 24 76 14 ffffff89 24 76 0c   .$Q...Q..$v..$v.
ffffff99 28 7b 05 ffffff99 2e 51 0f ffffff89 28 51 06 ffffff89 2e 51 25   .({...Q..(Q...Q%
ffffff99 24 7b 03 ffffff99 2e 4b 16 ffffff89 24 4b 02 ffffff89 2e 4b 24   .${...K..$K...K$
ffffff99 28 75 05 ffffff99 2e 48 11 ffffff89 28 48 07 ffffff89 2e 48 23   .(u...H..(H...H#
ffffff99 24 74 03 ffffff99 2e 4b 0d ffffff89 24 4b 09 ffffff89 2e 4b 06   .$t...K..$K...K.
ffffff99 24 79 14 ffffff89 24 79 0c ffffff99 28 7a 03 ffffff99 2e 4e 11   .$y..$y..(z...N.
ffffff89 28 4e 07 ffffff89 2e 4e 26 ffffff99 24 7a 02 ffffff99 2e 44 15   .(N...N&.$z...D.
ffffff89 24 44 00 ffffff89 2e 44 28 ffffff99 28 79 04 ffffff99 2e 48 10   .$D...D(.(y...H.
ffffff89 28 48 04 ffffff89 2e 48 28 ffffff99 24 74 06 ffffff99 2e 41 0a   .(H...H(.$t...A.
ffffff89 24 41 0c ffffff89 2e 41 03 ffffff99 24 75 14 ffffff89 24 75 0c   .$A...A..$u..$u.
ffffff99 28 7a 05 ffffff99 2e 4b 11 ffffff89 28 4b 05 ffffff89 2e 4b 24   .(z...K..(K...K$
ffffff99 24 7b 00 ffffff99 2e 4b 16 ffffff89 2e 4b 05 ffffff89 24 4b 26   .${...K...K..$K&
ffffff99 28 75 00 ffffff99 2e 45 14 ffffff89 28 45 02 ffffff89 2e 45 2a   .(u...E..(E...E*
ffffff99 2e 49 00 ffffff99 24 79 10 ffffff89 24 79 04 ffffff89 2e 79 0b   ..I..$y..$y...y.
ffffff99 24 78 14 ffffff89 24 78 0c ffffff99 28 7a 02 ffffff99 2e 47 12   .$x..$x..(z...G.
ffffff89 28 47 03 ffffff89 2e 47 28 ffffff99 2e 4b 00 ffffff99 24 7a 14   .(G...G(..K..$z.
ffffff89 2e 7a 05 ffffff89 24 7a 27 ffffff99 2e 45 00 ffffff99 28 79 14   ..z..$z'..E..(y.
ffffff89 2e 79 01 ffffff89 28 79 2a ffffff99 2e 4f 00 ffffff99 24 7a 12   ..y..(y*..O..$z.
ffffff89 24 7a 04 ffffff89 2e 7a 0b ffffff99 24 73 14 ffffff89 24 73 0a   .$z...z..$s..$s.
ffffff99 2e 47 02 ffffff99 28 7b 12 ffffff89 28 7b 04 ffffff89 2e 7b 29   ..G..({..({...{)
ffffff99 24 7a 02 ffffff99 2e 41 16 ffffff89 24 41 00 ffffff89 2e 41 28   .$z...A..$A...A(
ffffff99 28 7a 01 ffffff99 2e 4b 14 ffffff89 28 4b 00 ffffff89 2e 4b 2a   .(z...K..(K...K*
ffffff99 24 7a 00 ffffff99 2e 48 16 ffffff89 2e 48 03 ffffff89 24 48 26   .$z...H...H..$H&
ffffff99 28 7a 04 ffffff99 2e 47 14 ffffff89 28 47 00 ffffff89 2e 47 29   .(z...G..(G...G)
ffffff99 24 7b 00 ffffff99 2e 48 14 ffffff89 2e 48 04 ffffff89 24 48 26   .${...H...H..$H&
ffffff99 2e 49 02 ffffff99 28 7b 12 ffffff89 2e 7b 03 ffffff89 28 7b 2a   ..I..({...{..({*
ffffff99 2e 47 00 ffffff99 24 7a 11 ffffff89 24 7a 05 ffffff89 2e 7a 0a   ..G..$z..$z...z.
ffffff99 24 7a 14 ffffff89 24 7a 0b ffffff99 28 78 02 ffffff99 2e 49 12   .$z..$z..(x...I.
ffffff89 28 49 02 ffffff89 2e 49 2a ffffff99 24 52 01 ffffff99 32 5b 02   .(I...I*.$R..2[.
ffffff99 28 52 05 ffffff89 24 52 03 ffffff89 32 52 02 ffffff89 28 52 12   .(R..$R..2R..(R.
ffffff99 24 5c 0a ffffff89 24 5c 16 ffffff99 24 5c 03 ffffff99 28 55 02   .$\..$\..$\..(U.
ffffff99 2f 55 05 ffffff89 24 55 02 ffffff89 28 55 03 ffffff89 2f 55 12   ./U..$U..(U../U.
ffffff99 24 5d 0a ffffff89 24 5d 16 ffffff99 24 57 05 ffffff99 2d 5d 02   .$]..$]..$W..-].
ffffff99 28 5b 03 ffffff89 24 5b 05 ffffff89 2d 5b 00 ffffff89 28 5b 11   .([..$[..-[..([.
ffffff99 24 5d 0a ffffff89 24 5d 15 ffffff99 24 5d 05 ffffff99 28 5a 02   .$]..$]..$]..(Z.
ffffff99 29 49 03 ffffff89 24 49 04 ffffff89 28 49 01 ffffff89 29 49 11   .)I..$I..(I..)I.
ffffff99 24 5d 0c ffffff89 24 5d 14 ffffff99 24 76 00 ffffff99 33 70 14   .$]..$]..$v..3p.
ffffff89 33 70 06 ffffff89 24 70 25 ffffff99 28 76 00 ffffff99 33 74 12   .3p..$p%.(v..3t.
ffffff89 33 74 04 ffffff89 28 74 29 ffffff99 24 74 00 ffffff99 33 74 13   .3t..(t).$t..3t.
ffffff89 24 74 01 ffffff89 33 74 0c ffffff99 24 76 16 ffffff89 24 76 0b   .$t..3t..$v..$v.
ffffff99 28 7b 00 ffffff99 33 6e 13 ffffff89 33 6e 01 ffffff89 28 6e 2c   .({..3n..3n..(n,
ffffff99 24 7b 00 ffffff99 33 75 14 ffffff89 33 75 03 ffffff89 24 75 28   .${..3u..3u..$u(
ffffff99 28 75 00 ffffff99 33 77 14 ffffff89 33 77 00 ffffff89 28 77 2b   .(u..3w..3w..(w+
ffffff99 24 74 00 ffffff99 33 6f 11 ffffff89 24 6f 05 ffffff89 33 6f 0a   .$t..3o..$o..3o.
ffffff99 24 79 14 ffffff89 24 79 0c ffffff99 28 7a 00 ffffff99 33 6f 14   .$y..$y..(z..3o.
ffffff89 28 6f 01 ffffff89 33 6f 2a ffffff99 24 7a 00 ffffff99 33 6c 14   .(o..3o*.$z..3l.
ffffff89 33 6c 05 ffffff89 24 6c 28 ffffff99 28 79 00 ffffff99 33 6f 12   .3l..$l(.(y..3o.
ffffff89 33 6f 02 ffffff89 28 6f 2b ffffff99 24 74 00 ffffff99 33 65 11   .3o..(o+.$t..3e.
ffffff89 24 65 03 ffffff89 33 65 0c ffffff99 24 75 12 ffffff89 24 75 0e   .$e..3e..$u..$u.
ffffff99 28 7a 00 ffffff99 33 70 14 ffffff89 28 70 01 ffffff89 33 70 2a   .(z..3p..(p..3p*
ffffff99 24 7b 00 ffffff99 33 69 14 ffffff89 33 69 07 ffffff89 24 69 24   .${..3i..3i..$i$
ffffff99 28 75 00 ffffff99 33 6c 14 ffffff89 33 6c 02 ffffff89 28 6c 2b   .(u..3l..3l..(l+
ffffff99 24 79 00 ffffff99 33 75 11 ffffff89 24 75 03 ffffff89 33 75 0c   .$y..3u..$u..3u.
ffffff99 24 78 14 ffffff89 24 78 0c ffffff99 28 7a 00 ffffff99 33 6c 14   .$x..$x..(z..3l.
ffffff89 28 6c 00 ffffff89 33 6c 2b ffffff99 24 7a 00 ffffff99 33 6b 14   .(l..3l+.$z..3k.
ffffff89 33 6b 05 ffffff89 24 6b 26 ffffff99 28 79 00 ffffff99 33 73 14   .3k..$k&.(y..3s.
ffffff89 33 73 00 ffffff89 28 73 2c ffffff99 24 7a 00 ffffff99 33 6b 12   .3s..(s,.$z..3k.
ffffff89 24 6b 03 ffffff89 33 6b 0a ffffff99 24 73 14 ffffff89 24 73 0c   .$k..3k..$s..$s.
ffffff99 28 7b 00 ffffff99 33 72 12 ffffff89 28 72 02 ffffff89 33 72 2d   .({..3r..(r..3r-
ffffff99 24 7a 00 ffffff99 33 6e 14 ffffff89 33 6e 03 ffffff89 24 6e 28   .$z..3n..3n..$n(
ffffff99 28 7a 00 ffffff99 33 77 13 ffffff89 33 77 03 ffffff89 28 77 2a   .(z..3w..3w..(w*
ffffff99 24 7a 00 ffffff99 33 6e 14 ffffff89 33 6e 05 ffffff89 24 6e 26   .$z..3n..3n..$n&
ffffff99 28 7a 00 ffffff99 33 6e 14 ffffff89 33 6e 02 ffffff89 28 6e 29   .(z..3n..3n..(n)
ffffff99 24 7b 00 ffffff99 33 77 14 ffffff89 33 77 05 ffffff89 24 77 28   .${..3w..3w..$w(
ffffff99 28 7b 00 ffffff99 33 73 14 ffffff89 33 73 02 ffffff89 28 73 2a   .({..3s..3s..(s*
ffffff99 24 7a 00 ffffff99 33 77 10 ffffff89 24 77 05 ffffff89 33 77 0a   .$z..3w..$w..3w.
ffffff99 24 7a 14 ffffff89 24 7a 0c ffffff99 28 78 00 ffffff99 33 75 14   .$z..$z..(x..3u.
ffffff89 33 75 00 ffffff89 28 75 2b ffffff99 33 71 04 ffffff99 28 52 05   .3u..(u+.3q..(R.
ffffff89 28 52 0a ffffff89 33 52 0f ffffff99 24 4f 05 ffffff89 24 4f 19   .(R..3R..$O..$O.
ffffff99 28 5d 06 ffffff89 28 5d 1b ffffff99 24 58 05 ffffff89 24 58 0a   .(]..(]..$X..$X.
ffffff99 24 56 07 ffffff89 24 56 0a ffffff99 28 5d 06 ffffff89 28 5d 09   .$V..$V..(]..(].
ffffff99 28 57 08 ffffff89 28 57 0a ffffff99 24 56 05 ffffff89 24 56 1b   .(W..(W..$V..$V.
ffffff99 28 5d 06 ffffff89 28 5d 19 ffffff99 24 5d 07 ffffff89 24 5d 07   .(]..(]..$]..$].
ffffff99 24 58 06 ffffff89 24 58 0a ffffff99 24 76 00 ffffff99 2e 48 18   .$X..$X..$v...H.
ffffff89 2e 48 03 ffffff89 24 48 25 ffffff99 28 76 01 ffffff99 2e 55 14   ..H..$H%.(v...U.
ffffff89 28 55 04 ffffff89 2e 55 26 ffffff99 24 74 03 ffffff99 2e 51 0e   .(U...U&.$t...Q.
ffffff89 24 51 0b ffffff89 2e 51 04 ffffff99 24 76 15 ffffff89 24 76 0a   .$Q...Q..$v..$v.
ffffff99 28 7b 05 ffffff99 2e 51 0f ffffff89 28 51 07 ffffff89 2e 51 26   .({...Q..(Q...Q&
ffffff99 24 7b 02 ffffff99 2e 4b 16 ffffff89 24 4b 01 ffffff89 2e 4b 27   .${...K..$K...K'
ffffff99 28 75 05 ffffff99 2e 48 0f ffffff89 28 48 06 ffffff89 2e 48 25   .(u...H..(H...H%
ffffff99 24 74 02 ffffff99 2e 4b 0f ffffff89 24 4b 08 ffffff89 2e 4b 07   .$t...K..$K...K.
ffffff99 24 79 14 ffffff89 24 79 0b ffffff99 28 7a 04 ffffff99 2e 4e 10   .$y..$y..(z...N.
ffffff89 28 4e 05 ffffff89 2e 4e 27 ffffff99 24 7a 01 ffffff99 2e 44 18   .(N...N'.$z...D.
ffffff89 24 44 00 ffffff89 2e 44 26 ffffff99 28 79 03 ffffff99 2e 48 13   .$D...D&.(y...H.
ffffff89 28 48 03 ffffff89 2e 48 28 ffffff99 24 74 07 ffffff99 2e 41 0a   .(H...H(.$t...A.
ffffff89 24 41 0b ffffff89 2e 41 04 ffffff99 24 75 12 ffffff89 24 75 0d   .$A...A..$u..$u.
ffffff99 28 7a 05 ffffff99 2e 4b 0f ffffff89 28 4b 05 ffffff89 2e 4b 27   .(z...K..(K...K'
ffffff99 24 7b 00 ffffff99 2e 4b 15 ffffff89 2e 4b 04 ffffff89 24 4b 26   .${...K...K..$K&
ffffff99 28 75 02 ffffff99 2e 45 14 ffffff89 28 45 00 ffffff89 2e 45 29   .(u...E..(E...E)
ffffff99 2e 49 00 ffffff99 24 79 13 ffffff89 24 79 03 ffffff89 2e 79 0a   ..I..$y..$y...y.
ffffff99 24 78 16 ffffff89 24 78 0b ffffff99 28 7a 02 ffffff99 2e 47 11   .$x..$x..(z...G.
ffffff89 28 47 05 ffffff89 2e 47 26 ffffff99 2e 4b 02 ffffff99 24 7a 14   .(G...G&..K..$z.
ffffff89 2e 7a 05 ffffff89 24 7a 24 ffffff99 2e 45 02 ffffff99 28 79 14   ..z..$z$..E..(y.
ffffff89 2e 79 00 ffffff89 28 79 2b ffffff99 2e 4f 00 ffffff99 24 7a 13   ..y..(y+..O..$z.
ffffff89 24 7a 01 ffffff89 2e 7a 0c ffffff99 24 73 14 ffffff89 24 73 0c   .$z...z..$s..$s.
ffffff99 2e 47 00 ffffff99 28 7b 12 ffffff89 28 7b 05 ffffff89 2e 7b 28   ..G..({..({...{(
ffffff99 24 7a 03 ffffff99 2e 41 14 ffffff89 24 41 02 ffffff89 2e 41 28   .$z...A..$A...A(
ffffff99 28 7a 02 ffffff99 2e 4b 14 ffffff89 28 4b 00 ffffff89 2e 4b 29   .(z...K..(K...K)
ffffff99 24 7a 00 ffffff99 2e 48 14 ffffff89 2e 48 04 ffffff89 24 48 28   .$z...H...H..$H(
ffffff99 28 7a 03 ffffff99 2e 47 12 ffffff89 28 47 02 ffffff89 2e 47 28   .(z...G..(G...G(
ffffff99 24 7b 02 ffffff99 2e 48 14 ffffff89 2e 48 03 ffffff89 24 48 25   .${...H...H..$H%
ffffff99 2e 49 01 ffffff99 28 7b 14 ffffff89 2e 7b 04 ffffff89 28 7b 28   ..I..({...{..({(
ffffff99 2e 47 01 ffffff99 24 7a 11 ffffff89 24 7a 05 ffffff89 2e 7a 0a   ..G..$z..$z...z.
ffffff99 24 7a 14 ffffff89 24 7a 0c ffffff99 28 78 01 ffffff99 2e 49 13   .$z..$z..(x...I.
ffffff89 28 49 01 ffffff89 2e 49 2a ffffff99 26 55 00 ffffff99 28 5c 03   .(I...I*.&U..(\.
ffffff89 26 5c 02 ffffff89 28 5c 17 ffffff99 24 56 05 ffffff89 24 56 1b   .&\..(\..$V..$V.
ffffff99 26 52 02 ffffff99 28 5c 01 ffffff89 26 5c 02 ffffff89 28 5c 1c   .&R..(\..&\..(\.
ffffff99 24 5b 05 ffffff89 24 5b 1d ffffff99 26 4f 01 ffffff99 28 58 02   .$[..$[..&O..(X.
ffffff89 26 58 02 ffffff89 28 58 08 ffffff99 26 4f 02 ffffff99 28 5a 01   .&X..(X..&O..(Z.
ffffff89 26 5a 04 ffffff89 28 5a 0b ffffff99 24 5d 05 ffffff89 24 5d 19   .&Z..(Z..$]..$].
ffffff99 26 57 02 ffffff99 28 5d 02 ffffff89 26 5d 01 ffffff89 28 5d 1b   .&W..(]..&]..(].
ffffff99 24 5d 05 ffffff89 24 5d 1e ffffff99 24 76 00 ffffff99 39 4f 14   .$]..$]..$v..9O.
ffffff89 39 4f 05 ffffff89 24 4f 25 ffffff99 35 7b 01 ffffff99 28 76 07   .9O..$O%.5{..(v.
ffffff89 35 76 0f ffffff89 28 76 28 ffffff99 35 7d 02 ffffff99 24 74 05   .5v..(v(.5}..$t.
ffffff89 35 74 0b ffffff89 24 74 0f ffffff99 24 76 16 ffffff89 24 76 08   .5t..$t..$v..$v.
ffffff99 35 7a 02 ffffff99 28 7b 05 ffffff89 35 7b 0f ffffff89 28 7b 2b   .5z..({..5{..({+
ffffff99 35 7c 00 ffffff99 24 7b 07 ffffff89 35 7b 12 ffffff89 24 7b 28   .5|..${..5{..${(
ffffff99 28 75 00 ffffff99 35 72 07 ffffff89 35 72 0d ffffff89 28 72 2c   .(u..5r..5r..(r,
ffffff99 24 74 00 ffffff99 35 78 06 ffffff89 35 78 0a ffffff89 24 78 0f   .$t..5x..5x..$x.
ffffff99 24 79 13 ffffff89 24 79 0b ffffff99 35 7c 02 ffffff99 28 7a 05   .$y..$y..5|..(z.
ffffff89 35 7a 0f ffffff89 28 7a 2b ffffff99 24 7a 00 ffffff99 31 4f 18   .5z..(z+.$z..1O.
ffffff89 24 4f 03 ffffff89 31 4f 25 ffffff99 35 7c 00 ffffff99 28 79 06   .$O..1O%.5|..(y.
ffffff89 35 79 0f ffffff89 28 79 2a ffffff99 35 77 00 ffffff99 24 74 07   .5y..(y*.5w..$t.
ffffff89 35 74 0a ffffff89 24 74 10 ffffff99 24 75 13 ffffff89 24 75 0a   .5t..$t..$u..$u.
ffffff99 35 7c 03 ffffff99 28 7a 03 ffffff89 35 7a 11 ffffff89 28 7a 2a   .5|..(z..5z..(z*
ffffff99 35 7d 01 ffffff99 24 7b 07 ffffff89 35 7b 12 ffffff89 24 7b 27   .5}..${..5{..${'
ffffff99 35 7d 00 ffffff99 28 75 06 ffffff89 35 75 0f ffffff89 28 75 2a   .5}..(u..5u..(u*
ffffff99 35 7d 00 ffffff99 24 79 07 ffffff89 35 79 0a ffffff89 24 79 0f   .5}..$y..5y..$y.
ffffff99 24 78 15 ffffff89 24 78 0a ffffff99 28 7a 00 ffffff99 35 7d 09   .$x..$x..(z..5}.
ffffff89 35 7d 0b ffffff89 28 7d 2d ffffff99 24 7a 00 ffffff99 39 4f 14   .5}..(}-.$z..9O.
ffffff89 39 4f 05 ffffff89 24 4f 25 ffffff99 35 7d 02 ffffff99 28 79 05   .9O..$O%.5}..(y.
ffffff89 35 79 0f ffffff89 28 79 2b ffffff99 24 7a 00 ffffff99 35 7d 08   .5y..(y+.$z..5}.
ffffff89 35 7d 09 ffffff89 24 7d 0f ffffff99 24 73 14 ffffff89 24 73 08   .5}..$}..$s..$s.
ffffff99 35 7c 03 ffffff99 28 7b 05 ffffff89 35 7b 0e ffffff89 28 7b 2b   .5|..({..5{..({+
ffffff99 35 7c 02 ffffff99 24 7a 06 ffffff89 35 7a 11 ffffff89 24 7a 28   .5|..$z..5z..$z(
ffffff99 35 7d 00 ffffff99 28 7a 07 ffffff89 35 7a 0f ffffff89 28 7a 29   .5}..(z..5z..(z)
ffffff99 35 7d 02 ffffff99 24 7a 07 ffffff89 35 7a 10 ffffff89 24 7a 28   .5}..$z..5z..$z(
ffffff99 35 77 00 ffffff99 28 7a 05 ffffff89 35 7a 11 ffffff89 28 7a 2a   .5w..(z..5z..(z*
ffffff99 24 7b 00 ffffff99 35 7c 06 ffffff89 35 7c 11 ffffff89 24 7c 28   .${..5|..5|..$|(
ffffff99 28 7b 02 ffffff99 35 7d 06 ffffff89 35 7d 0f ffffff89 28 7d 28   .({..5}..5}..(}(
ffffff99 24 7a 02 ffffff99 35 7c 07 ffffff89 35 7c 0a ffffff89 24 7c 0d   .$z..5|..5|..$|.
ffffff99 24 7a 16 ffffff89 24 7a 0a ffffff99 35 7d 01 ffffff99 28 78 05   .$z..$z..5}..(x.
ffffff89 35 78 0f ffffff89 28 78 2c ffffff99 26 74 00 ffffff99 24 63 00   .5x..(x,.&t..$c.
ffffff99 35 7d 01 ffffff99 28 7a 05 ffffff89 24 7a 00 ffffff89 26 7a 00   .5}..(z..$z..&z.
ffffff89 35 7a 02 ffffff89 28 7a ffffff81 75 ffffffff 2f 00               .5z..(z.u./.
